/* XPM */
static char *tweenMachine[] = {
/* width height ncolors chars_per_pixel */
"32 32 35 2",
/* colors */
"AA c #FFFFEFEFC6C6",
"BA c #FFFFEFEFBDBD",
"CA c #EFEFE7E7B5B5",
"DA c #EFEFDEDEB5B5",
"EA c #EFEFDEDEADAD",
"FA c #DEDED6D6ADAD",
"GA c #DEDECECEADAD",
"HA c #DEDECECE9C9C",
"IA c #D6D6BDBD9494",
"JA c #CECEC6C69C9C",
"KA c #CECEBDBD9C9C",
"LA c #C6C6B5B58C8C",
"MA c #BDBDB5B58C8C",
"NA c #BDBDADAD8C8C",
"OA c #B5B5A5A57B7B",
"PA c #ADADA5A58484",
"AB c #ADADA5A57B7B",
"BB c #ADAD9C9C8484",
"CB c #ADAD9C9C7B7B",
"DB c #9C9C94947B7B",
"EB c #9C9C94946B6B",
"FB c #9C9C8C8C7373",
"GB c #9C9C8C8C6B6B",
"HB c #8C8C84846B6B",
"IB c #8C8C7B7B6363",
"JB c #8C8C7B7B5A5A",
"KB c #7B7B73735252",
"LB c #7B7B6B6B5252",
"MB c #73736B6B4A4A",
"NB c #6B6B63634A4A",
"OB c #6B6B5A5A4242",
"PB c #63635A5A3939",
"AC c #5A5A52523939",
"BC c #5A5A4A4A3131",
"CC c #4A4A42423131",
/* pixels */
"GBABLAHBOBCCKBCBHBCBKAHBJBHBGBCBGBGBGBGBDBNAJABADACADACABADADABA",
"IBHBGBBCMBPBDBEAOAJAHANAJBGBGBGBDBGBGBIBCBBABADABADABADADABACADA",
"MAACACCBHBIBGAEAKALAHALAFBEBCBNADBCBCBHBCBJAKAIAGAGAJAGAHAGADAGA",
"KANAKAKAGBABGAHAHAKAKAMAEBDBCBCBCBCBEBEBCBGBCBNAJAEAGAEAFADADAEA",
"KALABANAKBLBABDAKALAEANALBHBEBDBGBGBGBGBDBGBHBGBLABADADACADADADA",
"KACBMACBLBMBNBKAJBPAJAGBLBEBGBGBDBGBCBGBGBGBGBEBGADADACADADADACA",
"OADBJBKBNBNBJBOBIBCBNAACKBGBGBGBGBFBCBHBLADAEADAEADADADACADACADA",
"CBDBJBOBACNBCCCCJBMAJBNBHBHBGBGBCBCBDBJBGABADADADADACADABACADADA",
"GBHBHBKBOBACACNBLBOBKBHBJBGBGBHBGBCBCBCBLAEADADADADACADADABADADA",
"EBNBNBOBLBKBOBACACNBIBGBCBDBCBGBCBEBGBEBDBNADACACADADABADADADABA",
"CBGBKBNBNBJBOBNBKBDBEBDBCBCBEBCBHBCBHBGBCBCBCBCADADADAGACADADADA",
"CBABCBCBCBDBEBCBCBEBCBCBGBPAOAGBCBGBHAJADBGBKABADADADADADABADACA",
"GBCBCBABABCBDBCBCBDBCBGBGBGBCBPACBLABAEACAEACADADADADADADADACABA",
"DBCBABCBCBDBCBCBGBGBEBDBEBGBGBCBCBKAGABACADADADACACACADACADADADA",
"CBGBCBCBCBNAGBCBEBGBGBGBGBDBGBGBGBEBKADADACADACAAADADAAADACAAADA",
"CBCBDBGBEBCBDBCBCBDBGBGBGBGBKAABHBCBKAFABADADADADABADACADAAADABA",
"EBCBCBGBCBCBGBGBCBGBHBGBABIABADALANALAKADACABADADADAAADAAADADADA",
"CBCBGBGBEBCBHBCBHBGBJBGBCBKACACACAEADAEAMADADADADAAADACADADACACA",
"DBGBCBNAPACBEBGBJACACBIBGBNADADADADACACADAGAEADADADACADACADAAADA",
"OAGBJABAEACBCBEBGABAHAHBCBBBDABACADADABADAEAKADACADAAADAAADADABA",
"KAMABADAJAABABFBEADAAAKANAEACADADAAADADABADADAPAGABADAAADABADADA",
"NADADADAEANACBCBDACADACABADAAACAAADADABADAAACADAJAGABADAAADACABA",
"BADACABAGAGAGAEADABADABADACADADACAAACADAAADABADABAKAGABADAAADAAA",
"CADABADANAGABADADADACADADABADAAADADADAAADADADABADABAMAKABADAAADA",
"BACADAKADBEADACADADADAAADADACADACADACADABADADADACADABAJAGABADAGA",
"DADAKAFBGBDBDBKABAPADBDAGABBDAKAFBBBDADANAFBDBGAGAFBBBFBPADAFAFA",
"BADACAKAFBFAKAPADABBCBDAKAPAGADBDAKABBGADBCAKACBGAFBGAFAFBKAGABA",
"DABADAJADBGAEADBGAPAKAKADBGAKAFBDBFBHBKADBFBFBFBGAFBBACAIBKABABA",
"BADAAAKADBEACABBPAGAJAPADBBAJADBDACADAKADBCACADAJADBCAGAHBGADADA",
"DAAABAFAGBDBDAKAFBEACAFBNADACAKAHBFBKACAKAFBFBKAFAHBGAEAHBGACABA",
"BADADABAGAGABADACAAADACADABABADACACADACADACACACADAGAFABACACADADA",
"DAAACADAGAHACADABADABACADAAADACADAAADABACADACAGAGADABADADACADABA"};
