/* XPM */
static char * help_xpm[] = {
"24 24 154 2",
"  	c None",
". 	c #F0F0F0",
"+ 	c #EFEFEF",
"@ 	c #ECECEC",
"# 	c #DFDFDF",
"$ 	c #D4D4D4",
"% 	c #D0D0D0",
"& 	c #D6D6D6",
"* 	c #E7E7E7",
"= 	c #EEEEEE",
"- 	c #E6E6E6",
"; 	c #CCCCCC",
"> 	c #C9C9C9",
", 	c #C8C8C8",
"' 	c #CFCFCF",
") 	c #CECECE",
"! 	c #CACACA",
"~ 	c #C1C1C1",
"{ 	c #B6B6B6",
"] 	c #B2B2B2",
"^ 	c #EDEDED",
"/ 	c #D1D1D1",
"( 	c #DBDBDB",
"_ 	c #DCDCDC",
": 	c #DADADA",
"< 	c #B0B0B0",
"[ 	c #A7A7A7",
"} 	c #CBCBCB",
"| 	c #9B9B9B",
"1 	c #757575",
"2 	c #6B6B6B",
"3 	c #636363",
"4 	c #696969",
"5 	c #747474",
"6 	c #999999",
"7 	c #C3C3C3",
"8 	c #C7C7C7",
"9 	c #BEBEBE",
"0 	c #949494",
"a 	c #D8D8D8",
"b 	c #A4A4A4",
"c 	c #6E6E6E",
"d 	c #686868",
"e 	c #6A6A6A",
"f 	c #656565",
"g 	c #606060",
"h 	c #5F5F5F",
"i 	c #595959",
"j 	c #A6A6A6",
"k 	c #C2C2C2",
"l 	c #BCBCBC",
"m 	c #8C8C8C",
"n 	c #D2D2D2",
"o 	c #D9D9D9",
"p 	c #959595",
"q 	c #6D6D6D",
"r 	c #7C7C7C",
"s 	c #909090",
"t 	c #8F8F8F",
"u 	c #565656",
"v 	c #575757",
"w 	c #525252",
"x 	c #979797",
"y 	c #B4B4B4",
"z 	c #878787",
"A 	c #E0E0E0",
"B 	c #A2A2A2",
"C 	c #E1E1E1",
"D 	c #C5C5C5",
"E 	c #5E5E5E",
"F 	c #4C4C4C",
"G 	c #989898",
"H 	c #A1A1A1",
"I 	c #D5D5D5",
"J 	c #5C5C5C",
"K 	c #B1B1B1",
"L 	c #DEDEDE",
"M 	c #DDDDDD",
"N 	c #B7B7B7",
"O 	c #515151",
"P 	c #5D5D5D",
"Q 	c #B9B9B9",
"R 	c #D7D7D7",
"S 	c #BFBFBF",
"T 	c #858585",
"U 	c #535353",
"V 	c #494949",
"W 	c #4F4F4F",
"X 	c #9A9A9A",
"Y 	c #ADADAD",
"Z 	c #838383",
"` 	c #A9A9A9",
" .	c #787878",
"..	c #6F6F6F",
"+.	c #4A4A4A",
"@.	c #7A7A7A",
"#.	c #EAEAEA",
"$.	c #C4C4C4",
"%.	c #6C6C6C",
"&.	c #BBBBBB",
"*.	c #848484",
"=.	c #555555",
"-.	c #AAAAAA",
";.	c #E2E2E2",
">.	c #CDCDCD",
",.	c #ACACAC",
"'.	c #868686",
").	c #A8A8A8",
"!.	c #939393",
"~.	c #BDBDBD",
"{.	c #646464",
"].	c #666666",
"^.	c #BABABA",
"/.	c #585858",
"(.	c #545454",
"_.	c #4E4E4E",
":.	c #8A8A8A",
"<.	c #777777",
"[.	c #616161",
"}.	c #626262",
"|.	c #ABABAB",
"1.	c #5A5A5A",
"2.	c #7F7F7F",
"3.	c #929292",
"4.	c #E8E8E8",
"5.	c #C0C0C0",
"6.	c #474747",
"7.	c #8B8B8B",
"8.	c #7D7D7D",
"9.	c #AEAEAE",
"0.	c #B8B8B8",
"a.	c #707070",
"b.	c #4B4B4B",
"c.	c #9C9C9C",
"d.	c #D3D3D3",
"e.	c #484848",
"f.	c #A3A3A3",
"g.	c #5B5B5B",
"h.	c #505050",
"i.	c #828282",
"j.	c #7B7B7B",
"k.	c #8D8D8D",
"l.	c #9E9E9E",
"m.	c #818181",
"n.	c #9F9F9F",
"o.	c #A0A0A0",
"p.	c #969696",
"q.	c #808080",
"r.	c #676767",
"s.	c #919191",
"t.	c #717171",
"u.	c #797979",
"v.	c #A5A5A5",
"w.	c #E3E3E3",
". . . . . . . + @ # $ % % & * = . . . . . . . . ",
". . . . . + - ; > , ' ) ! ~ { ] $ @ + . . . . . ",
". . . . ^ / , ( _ : ) > ; / ' ! < [ # + . . . . ",
". . . @ ! & _ } | 1 2 3 4 5 6 7 8 9 0 % + . . . ",
". . ^ > a : b c d e d f g h i h j k l m % + . . ",
". + / n o p d q f r s p t 1 u v w x l y z A + . ",
". - ! a B d c 3 ( # C C A A D E u F [ { G H @ . ",
"+ } I D q q c J A a < K L L M N O w P Q K 1 R + ",
"^ S $ 6 4 c c 3 T U g E e # M _ V w W X Y Z ` + ",
"L ~ /  .e c c q 2 ....c d # M ) +.w O @.[ t z #.",
"/ $.D ..2 q c c c q %.f &.# A *.=.w O 3 -.p q ;.",
">.7 k 4 e 2 q c c ..,.& # M '.+.=.U W J ).!.E # ",
">.~.~ %.{.e 2 2 %.].# # ^.F v /.(.w _.f H :.g # ",
"I y 7 <.[.{.].d d }.A # |.1.v (.w O +.2.3.r %.;.",
"4.-.5.G P g [.}.3 P J u /./.=.w w _.6.x 7.e 8.#.",
"= 9.^.0.f E h [.g a.0.{ { F w U W b.[.c.'.v b = ",
". d.H { b U v /.v a.: & n e.U O b.V H Z 2 g $ + ",
". ^ f.Y K G w U U u E i g.F h.b.e.c.i.j.O x @ . ",
". + # k.|.` B [.W O O w W F e.h l.i.j.(.a.L + . ",
". . + / m.n.o.[ p.8.].J f q.0 p.j.<.=.r.>.+ . . ",
". . . + / m.*.x !.s.x G 3.Z r j.].O t.) = . . . ",
". . . . + A o.c 5 r m.q.u...g w g x M + . . . . ",
". . . . . + @ R ` '.2 h g %.8.v.$ @ + . . . . . ",
". . . . . . . . + #.w.A A ;.#.= + . . . . . . . "};
