/* XPM */
static char * arrayToTexture2D_xpm[] = {
"33 33 309 2",
"  	c #000000",
". 	c #170202",
"+ 	c #AE0D0D",
"@ 	c #8B0A0A",
"# 	c #040000",
"$ 	c #A80D0D",
"% 	c #7C0909",
"& 	c #010000",
"* 	c #130101",
"= 	c #AD0D0D",
"- 	c #890A0A",
"; 	c #A00400",
"> 	c #970400",
", 	c #120101",
"' 	c #9C0C0C",
") 	c #800A0A",
"! 	c #080101",
"~ 	c #D89400",
"{ 	c #F3B800",
"] 	c #F0B300",
"^ 	c #BC4600",
"/ 	c #E3A800",
"( 	c #E29400",
"_ 	c #B93F00",
": 	c #EDB300",
"< 	c #CB6400",
"[ 	c #CC7500",
"} 	c #F0B600",
"| 	c #BE4B00",
"1 	c #DC9B00",
"2 	c #EDAD00",
"3 	c #9F0400",
"4 	c #070101",
"5 	c #B10D0D",
"6 	c #7F0909",
"7 	c #C19400",
"8 	c #FFD300",
"9 	c #BE5100",
"0 	c #D4AF00",
"a 	c #F0B200",
"b 	c #BA4700",
"c 	c #E8C000",
"d 	c #D47900",
"e 	c #C17B00",
"f 	c #F8CD00",
"g 	c #C35700",
"h 	c #CCA200",
"i 	c #FDCF00",
"j 	c #8A0300",
"k 	c #190202",
"l 	c #840A0A",
"m 	c #7C5900",
"n 	c #C2A100",
"o 	c #E0B900",
"p 	c #AF4300",
"q 	c #826C00",
"r 	c #D0AC00",
"s 	c #D79B00",
"t 	c #AB3A00",
"u 	c #A08400",
"v 	c #DAB400",
"w 	c #C26800",
"x 	c #975800",
"y 	c #BA9A00",
"z 	c #DEB800",
"A 	c #B34900",
"B 	c #846600",
"C 	c #CAA700",
"D 	c #DEB300",
"E 	c #8B0300",
"F 	c #B40D0D",
"G 	c #760909",
"H 	c #AB2C00",
"I 	c #B33700",
"J 	c #B53700",
"K 	c #A71700",
"L 	c #AE3100",
"M 	c #B43700",
"N 	c #B22E00",
"O 	c #A61500",
"P 	c #B13500",
"Q 	c #B53800",
"R 	c #AB2000",
"S 	c #AA2400",
"T 	c #B23600",
"U 	c #B63900",
"V 	c #A81900",
"W 	c #AE2F00",
"X 	c #B33500",
"Y 	c #180202",
"Z 	c #B4120D",
"` 	c #872B0A",
" .	c #004C00",
"..	c #007300",
"+.	c #DEA200",
"@.	c #FBCA00",
"#.	c #F8C400",
"$.	c #BF4D00",
"%.	c #EAB800",
"&.	c #E9A200",
"*.	c #BC4500",
"=.	c #F6C600",
"-.	c #D06E00",
";.	c #D08000",
">.	c #C25100",
",.	c #E4AC00",
"'.	c #F5BE00",
").	c #920401",
"!.	c #A11B0C",
"~.	c #785B09",
"{.	c #04A300",
"].	c #00A500",
"^.	c #00A200",
"/.	c #AD8100",
"(.	c #FFD200",
"_.	c #BB4D00",
":.	c #C09E00",
"<.	c #EEAE00",
"[.	c #B74300",
"}.	c #D27500",
"|.	c #B56F00",
"1.	c #EEC500",
"2.	c #C05300",
"3.	c #BC9300",
"4.	c #FCD100",
"5.	c #FBBF01",
"6.	c #D51B0E",
"7.	c #7C803F",
"8.	c #00E44C",
"9.	c #00E654",
"0.	c #00DC2B",
"a.	c #7C4A00",
"b.	c #AE8200",
"c.	c #CB9700",
"d.	c #AA3800",
"e.	c #7F5800",
"f.	c #BB8C00",
"g.	c #C67F00",
"h.	c #A63000",
"i.	c #906900",
"j.	c #C59500",
"k.	c #B75500",
"l.	c #914700",
"m.	c #A77C00",
"n.	c #CC9B00",
"o.	c #AC3D00",
"p.	c #7F5100",
"q.	c #BD7C02",
"r.	c #D63A0C",
"s.	c #805E09",
"t.	c #07DE48",
"u.	c #00DA2B",
"v.	c #00DC2F",
"w.	c #00D40E",
"x.	c #9A0400",
"y.	c #D3190E",
"z.	c #743108",
"A.	c #00AD00",
"B.	c #00E44A",
"C.	c #1C0202",
"D.	c #B9190E",
"E.	c #83410A",
"F.	c #024C00",
"G.	c #0D0101",
"H.	c #A91B0D",
"I.	c #6E4608",
"J.	c #006D00",
"K.	c #004A00",
"L.	c #00E64E",
"M.	c #00DC2D",
"N.	c #00DE35",
"O.	c #00D613",
"P.	c #510101",
"Q.	c #A20202",
"R.	c #BB0303",
"S.	c #6A0202",
"T.	c #BC1C0E",
"U.	c #7A4809",
"V.	c #007900",
"W.	c #006300",
"X.	c #00DE3C",
"Y.	c #00D81F",
"Z.	c #00D821",
"`.	c #00D002",
" +	c #F5D201",
".+	c #FCF100",
"++	c #DD6702",
"@+	c #4E0101",
"#+	c #1A0202",
"$+	c #A03312",
"%+	c #747F1D",
"&+	c #05D623",
"*+	c #00DA23",
"=+	c #00E248",
"-+	c #00A000",
";+	c #005400",
">+	c #007500",
",+	c #BF0303",
"'+	c #FDF600",
")+	c #FFFF00",
"!+	c #E17A02",
"~+	c #5D0101",
"{+	c #020000",
"]+	c #270101",
"^+	c #070000",
"/+	c #0A0101",
"(+	c #BF1E0E",
"_+	c #70831D",
":+	c #00DA2F",
"<+	c #00DA2D",
"[+	c #00E44E",
"}+	c #007100",
"|+	c #BD0303",
"1+	c #FCF300",
"2+	c #E17D02",
"3+	c #600101",
"4+	c #C70603",
"5+	c #D13402",
"6+	c #C80C03",
"7+	c #B51A0B",
"8+	c #784909",
"9+	c #04D723",
"0+	c #BA0303",
"a+	c #FCF000",
"b+	c #F4CE01",
"c+	c #C91103",
"d+	c #6C0202",
"e+	c #A30202",
"f+	c #F5D301",
"g+	c #ECA901",
"h+	c #CE2803",
"i+	c #5E4101",
"j+	c #930202",
"k+	c #F0BE01",
"l+	c #EDB101",
"m+	c #E58C01",
"n+	c #E69201",
"o+	c #FBED00",
"p+	c #F9E200",
"q+	c #DA5B02",
"r+	c #745C10",
"s+	c #20B726",
"t+	c #410101",
"u+	c #D13202",
"v+	c #E79301",
"w+	c #716323",
"x+	c #00F373",
"y+	c #009E00",
"z+	c #003C00",
"A+	c #660202",
"B+	c #D23702",
"C+	c #EEB301",
"D+	c #EDAF01",
"E+	c #FCF200",
"F+	c #F1C101",
"G+	c #CF2D03",
"H+	c #218600",
"I+	c #00A700",
"J+	c #00AF00",
"K+	c #310101",
"L+	c #8E0403",
"M+	c #BD1306",
"N+	c #AA2F18",
"O+	c #A6280F",
"P+	c #F6D500",
"Q+	c #FEFA00",
"R+	c #E07702",
"S+	c #443601",
"T+	c #003E00",
"U+	c #00F16D",
"V+	c #00E650",
"W+	c #C11D0E",
"X+	c #656B08",
"Y+	c #04E04B",
"Z+	c #C70803",
"`+	c #EAA001",
" @	c #D23602",
".@	c #716115",
"+@	c #0BCC1D",
"@@	c #220303",
"#@	c #C30F0F",
"$@	c #763209",
"%@	c #2AAC23",
"&@	c #7B5412",
"*@	c #150202",
"=@	c #A70C0C",
"-@	c #620707",
";@	c #CC0F0F",
">@	c #6B0808",
",@	c #00DA21",
"'@	c #00DE38",
")@	c #00D615",
"!@	c #210202",
"~@	c #A50C0C",
"{@	c #660808",
"]@	c #030000",
"^@	c #005000",
"/@	c #00D000",
"(@	c #00CA00",
"_@	c #0E0101",
":@	c #CE0F0F",
"<@	c #5E0707",
"[@	c #260303",
"}@	c #B60E0E",
"|@	c #6D0808",
"1@	c #5F0707",
"2@	c #D11010",
"3@	c #680808",
"4@	c #5D0707",
"                                                            . + @ ",
"                                                          # $ % & ",
"                                                        * = -     ",
"      ; ; ; ; ; ; ; ; ; ; ; ; ; ; ; ; ; ; ; >         , ' ) !     ",
"      ; ~ { ] ^ / { ( _ : { < [ } { | 1 { 2 3       4 5 6         ",
"      ; 7 8 8 9 0 8 a b c 8 d e f 8 g h 8 i j     k $ l 4         ",
"      ; m n o p q r s t u v w x y z A B C D E     F G             ",
"      ; H I J K L M N O P Q R S T U V W M X E Y Z `  . . ...      ",
"      ; +.@.#.$.%.@.&.*.=.@.-.;.@.@.>.,.@.'.).!.~.{.].].^...      ",
"      ; /.f (._.:.8 <.[.v 8 }.|.1.8 2.3.4.5.6.7.8.8.8.9.0...      ",
"      ; a.b.c.d.e.f.g.h.i.j.k.l.m.n.o.p.q.r.s.t.u.u.u.v.w...      ",
"      x.E E E E E E E E E E E E E E E E y.z.A.B.u.u.u.v.w...      ",
"                                    C.D.E.F.A.B.u.u.u.v.w...      ",
"                                  G.H.I.J.K.A.L.M.M.M.N.O...      ",
"          P.Q.R.S.              . T.U.V.V.W.A.X.Y.Y.Y.Z.`...      ",
"          Q. +.+++@+          #+$+%+&+*+*+=+-+;+>+>+>+>+>+..      ",
"          ,+'+)+!+~+  {+]+^+/+(+_+:+<+<+<+[+-+ .}+}+}+}+}+..      ",
"          |+1+)+2+3+{+4+5+6+7+8+9+<+u.u.u.8.-+ .............      ",
"          0+a+)+b+c+d+e+f+g+h+i+*+<+u.u.u.8.-+ .............      ",
"          j+k+)+)+l+m+n+o+)+p+q+r+s+u.u.u.8.-+ .............      ",
"          t+u+o+)+)+)+)+)+)+)+)+v+w+8.8.8.x+y+z+ . . . . ...      ",
"            A+B+g+C+D+l+E+)+)+F+G+H+-+-+-+y+I+J+A.A.A.J+I+..      ",
"              K+L+M+N+O+P+Q+R+c+S+ . . . .T+J+U+B.B.B.V+0...      ",
"              # W+X+Y+Z+`+ @.@+@>+}+...... .A.B.u.u.u.v.w...      ",
"            @@#@$@].8.%@&@%@M.Y.>+}+...... .A.B.u.u.u.v.w...      ",
"          *@=@-@ .].8.u.u.u.M.Y.>+}+...... .A.B.u.u.u.v.w...      ",
"        C.;@>@   .I+9.v.v.v.N.,@>+}+...... .J+V+v.v.v.'@)@..      ",
"      !@~@{@]@  ^@y+<+w.w.w.O./@>+}+......^@I+u.w.w.w.)@(@..      ",
"    _@:@<@      ............................................      ",
"  [@}@|@                                                          ",
", 5 1@                                                            ",
"2@3@                                                              ",
"4@&                                                               "};
