/* XPM */
static char * SOuP_arrayDataContainer_xpm[] = {
"33 33 8 1",
" 	c None",
".	c #000000",
"+	c #AA0000",
"@	c #FFFF55",
"#	c #AA5500",
"$	c #55FF55",
"%	c #00AA00",
"&	c #5BEC4F",
".................................",
"...............++................",
"..............+@@+...............",
"..............+@@+...............",
"..............+@@+...............",
".............++@@++..............",
"............+@@@@@@+.............",
".............+@@@@+..............",
".............+@@@@+..............",
"..............+@@+...............",
"..............+@@+...............",
"...............++................",
"......#####################......",
"......#@@$%#@@$%#@@$%#@@$%#......",
"......#@$$%#@$$%#@$$%#@$$%#......",
"......#$$%%#$$%%#$$%%#$$%%#......",
"......#####################......",
"......#@@$%#@@$%#@@$%#@@$%#......",
"......#@$$%#@$$%#@$$%#@$$%#......",
"......#$$%%#&$%%#$$%%#$$%%#......",
"......#####################......",
"...............++................",
"..............+@@+...............",
"..............+@@+...............",
"..............+@@+...............",
".............++@@++..............",
"............+@@@@@@+.............",
".............+@@@@+..............",
".............+@@@@+..............",
"..............+@@+...............",
"..............+@@+...............",
"...............++................",
"................................."};
