/* XPM */
static char * arrayBlend_xpm[] = {
"33 33 8 1",
" 	c None",
".	c #000000",
"+	c #AA0000",
"@	c #AA5500",
"#	c #FFFF55",
"$	c #55FF55",
"%	c #00AA00",
"&	c #FF5555",
".................................",
".................................",
".................................",
".................................",
"..+++++++++++.......@@@@@@@@@@@..",
"..+##$@+##$@+.......@##$%@##$%@..",
"..+#$$@+#$$@+.&...&.@#$$%@#$$%@..",
"..+$$@@+$$@@+&#&.&#&@$$%%@$$%%@..",
"..+++++++++++&#&.&#&@@@@@@@@@@@..",
"..+##$@+##$@+.&#&#&.@##$%@##$%@..",
"..+#$$@+#$$@+.&#&#&.@#$$%@#$$%@..",
"..+$$@@+$$@@+..&#&..@$$%%@$$%%@..",
"..+++++++++++.&#&#&.@@@@@@@@@@@..",
"..+##$@+##$@+.&#&#&.@##$%@##$%@..",
"..+#$$@+#$$@+&#&.&#&@#$$%@#$$%@..",
"..+$$@@+$$@@+&#&.&#&@$$%%@$$%%@..",
"..+++++++++++.&...&.@@@@@@@@@@@..",
"..+##$@+##$@+.......@##$%@##$%@..",
"..+#$$@+#$$@+.......@#$$%@#$$%@..",
"..+$$@@+$$@@+.&&&&&.@$$%%@$$%%@..",
"..+++++++++++&#####&@@@@@@@@@@@..",
"..+##$@+##$@+.&&&&&.@##$%@##$%@..",
"..+#$$@+#$$@+.......@#$$%@#$$%@..",
"..+$$@@+$$@@+.&&&&&.@$$%%@$$%%@..",
"..+++++++++++&#####&@@@@@@@@@@@..",
"..+##$@+##$@+.&&&&&.@##$%@##$%@..",
"..+#$$@+#$$@+.......@#$$%@#$$%@..",
"..+$$@@+$$@@+.......@$$%%@$$%%@..",
"..+++++++++++.......@@@@@@@@@@@..",
".................................",
".................................",
".................................",
"................................."};
