/* XPM */
static char * SOuP_boundingObject_xpm[] = {
"33 33 5 1",
" 	c None",
".	c #000000",
"+	c #AA0000",
"@	c #FFFF55",
"#	c #AA5500",
".................................",
".................................",
".................................",
".................................",
".................................",
".................................",
".................++++++..........",
"...............@#...++@#.........",
"..............+##+.+..##+........",
"..............+...++..+.+........",
".............+.+..+.+.+..+.......",
"............+...@#...@#..+.......",
"...........+....##...##..+.......",
"...........+...+..+.+..+.+.......",
"..........+....+...++...+........",
".........+....+....+.+@#+........",
"........@#...+....+...##.........",
".......+##+.+....+....+..........",
".......+...++...+....+...........",
"......+.+..+.+..+...+............",
"......+..@#...@#....+............",
"......+..##...##...+.............",
"......+..+.+.+..+.+..............",
".......+.+..++...+...............",
".......+@#..+.@#++...............",
"........##++..##.................",
".........+++++...................",
".................................",
".................................",
".................................",
".................................",
".................................",
"................................."};
