/* XPM */
static char * SOuP_cage_xpm[] = {
"33 33 6 1",
" 	c #000000",
".	c #FF5555",
"+	c #AA0000",
"@	c #55FF55",
"#	c #00AA00",
"$	c #AA5500",
"                                 ",
"             ...                 ",
"         ....+++....             ",
"     ....++++   ++++....         ",
"  ...++++    ++++   ++++....     ",
"  ..    ++++++ +++   ++ ++++...  ",
"  .+..+++ +++    ++++     ...+.  ",
"  .+++..     ++++    ++...++++.  ",
"  .+  ++...++   ++ ....+++   +.  ",
"  .+  +.+++..   ...++++ .+   +.  ",
"  .+  +. +.++...+++.+   .+   +.  ",
"  .+. +. +.@@+.+#$#.+   .+   +.  ",
"  .++.+.@+.#@+.+$#$.+   .+ ..+.  ",
"  .+@++.#+.$#+.+#$#.+@  .+.+++.  ",
"  .+@#++.+.#$+.+$#$.+...+++  +.  ",
"  .+ @+.++..#+.+#$..++++.+   +.  ",
"  .+  +.$+++.+.+..+++$#$.+   +.  ",
"  .+. +.#+.$++.+++$.+#$#.+  .+.  ",
"  .++.+.$+.@@+.+#@#.+$#$.+..++.  ",
"  .+ ++.@+.#$+.+$#@.+#$..+++ +.  ",
"  .+  ++.+.$#+.+#$#.+..+++#$@+.  ",
"  .+  +.++..$+.+$#..+++#.+$#@+.  ",
"  .+  +. +++.+.+..+++$#$.+@@ +.  ",
"  .++ +. +.@++.+++$.+@@@.+   +.  ",
"   ..++. +. @+.+@@@.+   .+   +.  ",
"     .++ +.  +.+   .+   .+ ++..  ",
"      ..++.  +.+   .+   +++..    ",
"        .++  +.+   .++++...      ",
"         ..+ +.+   ++...         ",
"           .++.++++..            ",
"            ...+...              ",
"              ..                 ",
"                                 "};
