/* XPM */
static char * colorAndAlphaToRgba_xpm[] = {
"33 33 8 1",
" 	c #000000",
".	c #FF5555",
"+	c #AA5500",
"@	c #AA0000",
"#	c #55FF55",
"$	c #FFFF55",
"%	c #007FFF",
"&	c #7F7F7F",
"                                 ",
"                                 ",
"                                 ",
"  ... ...                        ",
"  .+. .+.                        ",
"  ... ...                        ",
"             @@                  ",
"  ### ###   @$$@                 ",
"  #+# #+#    @$$@                ",
"  ### ###     @$$@  @   ... ...  ",
"               @$$@ @   .+. .+.  ",
"  %%% %%%       @$$@$   ... ...  ",
"  %+% %+%        @$$$            ",
"  %%% %%%      @@$$$$@  ### ###  ",
"                 @@$$@  #+# #+#  ",
"                    @@  ### ###  ",
"                                 ",
"                        %%% %%%  ",
"                    @@  %+% %+%  ",
"                 @@$$@  %%% %%%  ",
"               @@$$$$@           ",
"                 @$$$   &&& &&&  ",
"                @$$@$   &+& &+&  ",
"               @$$@ @   &&& &&&  ",
"              @$$@  @            ",
"             @$$@                ",
"  &&& &&&   @$$@                 ",
"  &+& &+&    @@                  ",
"  &&& &&&                        ",
"                                 ",
"                                 ",
"                                 ",
"                                 "};
