/* XPM */
static char * combineArrays_xpm[] = {
"33 33 7 1",
" 	c None",
".	c #000000",
"+	c #AA5500",
"@	c #55FF55",
"#	c #00AA00",
"$	c #FFFF55",
"%	c #AA0000",
".................................",
".................................",
".................................",
".................................",
"...+++++++..........+++++++++++..",
"...+@#+@#+..........+$$@#+$$@#+..",
"...+##+##+..........+$@@#+$@@#+..",
"...+++++++..........+@@##+@@##+..",
"....................+++++++++++..",
"....................+$$@#+$$@#+..",
"....................+$@@#+$@@#+..",
"...+++++++..........+@@##+@@##+..",
"...+@#+@#+..........+++++++++++..",
"...+##+##+.....%....+$$@#+$$@#+..",
"...+++++++.....%%...+$@@#+$@@#+..",
"............%%%%%%..+@@##+@@##+..",
"............%%%%%%%.+++++++++++..",
"............%%%%%%..+$$@#+$$@#+..",
"...+++++++.....%%...+$@@#+$@@#+..",
"...+@#+@#+.....%....+@@##+@@##+..",
"...+##+##+..........+++++++++++..",
"...+++++++..........+$$@#+$$@#+..",
"....................+$@@#+$@@#+..",
"....................+@@##+@@##+..",
"....................+++++++++++..",
"...+++++++..........+$$@#+$$@#+..",
"...+@#+@#+..........+$@@#+$@@#+..",
"...+##+##+..........+@@##+@@##+..",
"...+++++++..........+++++++++++..",
".................................",
".................................",
".................................",
"................................."};
