/* XPM */
static char * componentToComponent_xpm[] = {
"33 33 53 1",
" 	c #000000",
".	c #FFFF00",
"+	c #A0410D",
"@	c #626262",
"#	c #DD6B02",
"$	c #C60303",
"%	c #1A0000",
"&	c #360101",
"*	c #020000",
"=	c #6C0202",
"-	c #E58C01",
";	c #EDAF01",
">	c #870202",
",	c #040000",
"'	c #7F7F7F",
")	c #C70603",
"!	c #A30202",
"~	c #E69201",
"{	c #EDB101",
"]	c #A50303",
"^	c #C70803",
"/	c #2A0101",
"(	c #36FF00",
"_	c #52CE01",
":	c #D13402",
"<	c #F5D301",
"[	c #FBED00",
"}	c #FCF200",
"|	c #F6D500",
"1	c #EAA001",
"2	c #906202",
"3	c #070000",
"4	c #C80C03",
"5	c #ECA901",
"6	c #FEFA00",
"7	c #D23602",
"8	c #310101",
"9	c #CE2803",
"0	c #F9E200",
"a	c #E07702",
"b	c #710202",
"c	c #5E0101",
"d	c #DA5B02",
"e	c #F1C101",
"f	c #C91103",
"g	c #0B0000",
"h	c #740202",
"i	c #E79301",
"j	c #CF2D03",
"k	c #440101",
"l	c #4DD600",
"m	c #886F02",
"n	c #4ED500",
"                                 ",
"                                 ",
"    ...        ...        ...    ",
"    .+.@@@@@@@@.+.@@@@@@@@.+.    ",
"    ...        ...        ...    ",
"     @          @          @     ",
"     @          @          @     ",
"    ...        ...        ...    ",
"    .+.@@@@@@@@.+.@@@@@@@@.+.    ",
"    ...        ...        ...    ",
"     @          @          @     ",
"     @          @          @     ",
"    ...        #$#        ...    ",
"    .+.@@@@@@@@$.$@@@@@@@@.+.    ",
"    ...        $.$        ...    ",
"              %$.$&              ",
"             *=-.;>,             ",
"    '''     *)!~.{]^/     '''    ",
"    '(((((((_:<[.}|12((((((('    ",
"    '(      345...67/      ('    ",
"     (       890..ab       (     ",
"     (        cd.efg       (     ",
"    '(         hijk        ('    ",
"    '((((((((((lmn(((((((((('    ",
"    '(          (          ('    ",
"     (          (          (     ",
"     (          (          (     ",
"    '(          (          ('    ",
"    '((((((((((((((((((((((('    ",
"    '''        '''        '''    ",
"                                 ",
"                                 ",
"                                 "};
