/* XPM */
static char * copier_xpm[] = {
"33 33 9 1",
" 	c None",
".	c #000000",
"+	c #AA5500",
"@	c #FFFF55",
"#	c #55FF55",
"$	c #00AA00",
"%	c #AA0000",
"&	c #26B1D8",
"*	c #13586B",
".................................",
".................................",
"...++++++........................",
"...+@@#$+...%%%..................",
"...+@##$+..%@@@%%................",
"...+##$$+..%@@@@@%...............",
"...+$$$$+...%%@@@@%..............",
"...++++++.....%%@@%..............",
"...............%@@@%.............",
"...............%%@@%%............",
"..............%@@@@@@%...........",
"..........+++++%@@@@%+++..++++++.",
"..........+@@#$%@@@@%#$+..+@@#$+.",
"..........+@##$+%@@%##$+&&+@##$+.",
"..........+##$$+%@@%#$$+**+##$$+.",
"..........++++++*%%+++++**++++++.",
"............&*******&******&.....",
"............&*******&******&.....",
"...........&*******&******&......",
"......++++++**++++++**++++++.....",
"......+@@#$+**+@@#$+**+@@#$+.....",
"......+@##$+&&+@##$+&&+@##$+.....",
"......+##$$+**+##$$+**+##$$+.....",
"......++++++**++++++**++++++.....",
"........&******&*******&.........",
"........&******&*******&.........",
".......&******&*******&..........",
"..++++++**++++++**++++++.........",
"..+@@#$+**+@@#$+**+@@#$+.........",
"..+@##$+&&+@##$+&&+@##$+.........",
"..+##$$+..+##$$+..+##$$+.........",
"..++++++..++++++..++++++.........",
"................................."};
