/* XPM */
static char * SOuP_displayAttributes_xpm[] = {
"33 33 7 1",
" 	c None",
".	c #000000",
"+	c #AA0000",
"@	c #AA5500",
"#	c #00AA00",
"$	c #FFFF55",
"%	c #FF5555",
".................................",
".................................",
".................................",
"................+++..............",
"...............+@+@+.............",
"...+@@@@@@@@@@@@@@@@@@@@@@@@@@+..",
"...@#+#+#+#+#+#+#+#+#+#+#+#+#+@+.",
"...@+#+#$$$$$$%#$%+$$$$$$$%#+#@+.",
"...+@+#+%%%%%%%+%%#%%%%%%%%+#+@+.",
"....+@+#+#+#+#+#+#+#+#+#+#+#+@+..",
"....@+#+#+$$$$%+$%#$$$$$$$$%#@+..",
"....@#+#+#%%%%%#%%+%%%%%%%%%+#@+.",
"...+@+#+#+#+#+#+#+#+#+#+#+#+#@+..",
"..+@+#+#$$$$$$%#$%+$$$$$$%+#@+...",
"..@+#+#+%%%%%%%+%%#%%%%%%%#+@+...",
"..@#+#+#+#+#+#+#+#+#+#+#+#+#+@...",
"..@+#+#$$$$$$$%+$%#$$$$$$$%+#@+..",
"..+@+#+%%%%%%%%#%%+%%%%%%%%#+@+..",
"...+@@@@@@@@@@#+#+#+#+#+#+#+#@+..",
"....++++++++++@@@@@@@@@@@@@@@+...",
"...............++@+++++++++++....",
"...............+@+@+.............",
"...............++@++.............",
"...............+@+@+.............",
"...............++@++.............",
"...............+@+@+.............",
"...............++@++.............",
"...............+@+@+.............",
"................+@+..............",
".................+...............",
".................................",
".................................",
"................................."};
