/* XPM */
static char * SOuP_displayComponents_xpm[] = {
"33 33 8 1",
" 	c None",
".	c #000000",
"+	c #AA0000",
"@	c #FF5555",
"#	c #AA5500",
"$	c #00AA00",
"%	c #55FF55",
"&	c #FFFF55",
".................................",
".................................",
".........++.........++...........",
".........++.........++...........",
"...........+.......+.............",
"............+.....+..............",
".............+...+...............",
"..............+.+................",
"..............@##................",
".............@####...............",
"....++++++++++++++++++++++++.....",
"...++######################++....",
"...+###++++++++++++++#######+....",
"...+##++$$$$$$$$$$$$++######+....",
"...+##+$$%&%&%&%$%$%$+##@++#+....",
"...+#++$%&%&%$%$%$%$$++#####+....",
"...+#+$%&%$%$%$%$%$%$$+#####+....",
"...+#+$$%$%$%$%$%$%$%$+#####+....",
"...+#+$%&%$%$%$%$%$%$$+#@++#+....",
"...+#+$$%$%$%$%$%$%$%$+#####+....",
"...+#+$%$%$%$%$%$%$%$$+#####+....",
"...+#+$$%$%$%$%$%$%$%$+#+++#+....",
"...+#++$$%$%$%$%$%$%$++#+@+#+....",
"...+##+$%$%$%$%$%$%$$+##+++#+....",
"...+##++$$$$$$$$$$$$++######+....",
"...+###++++++++++++++#######+....",
"...++######################++....",
"....++++++++++++++++++++++++.....",
"........###..........###.........",
"........###..........###.........",
".................................",
".................................",
"................................."};
