/* XPM */
static char * frameCacheTracker_xpm[] = {
"33 33 6 1",
" 	c #000000",
".	c #AA0000",
"+	c #00AA00",
"@	c #AA5500",
"#	c #FFFF55",
"$	c #FF5555",
"                                 ",
"                                 ",
"             .......             ",
"           ...........           ",
"          ...+++ +++...          ",
"         ..+++++.+++++..         ",
"        .. +++++.+++++ ..        ",
"       ..++ ++++.++++ ++..       ",
"       ..+++++++.+++++++..       ",
"      ..++++++++.++++++++..      ",
"      ..++++++++.++++++++..      ",
"      ..+++++++@.@+++++++..      ",
"      ..  +++++. .+++++  ..      ",
"      ..+++++++@..@++++++..      ",
"    ##..+++++++++@.@+++++..##    ",
"    # ..++++++++++@.@++++.. #    ",
"    ###..++++++++++@.+++..###    ",
"    #$+..++ +++++++++ ++..+$#    ",
"    #+$+.. +++++++++++ ..+$+#    ",
"    #$+$+..+++++ +++++..+$+$#    ",
"    #+$+$+...+++ +++...+$+$+#    ",
"    #$+$+$+...........+$+$+$#    ",
"    #+$+$+$+#.......#+$+$+$+#    ",
"    #$+$+$+$#$+$+$+$#$+$+$+$#    ",
"    #+$+$+$+#+$+$+$+#+$+$+$+#    ",
"    #$+$+$+$#$+$+$+$#$+$+$+$#    ",
"    #########################    ",
"    #  #  #  #  #  #  #  #  #    ",
"    #########################    ",
"                                 ",
"                                 ",
"                                 ",
"                                 "};
