/* XPM */
static char * meshToMap_xpm[] = {
"33 33 158 2",
"  	c #000000",
". 	c #A64100",
"+ 	c #AD3401",
"@ 	c #BA1A02",
"# 	c #70001C",
"$ 	c #26B1D8",
"% 	c #2FA7CC",
"& 	c #814E5F",
"* 	c #D23602",
"= 	c #EAA001",
"- 	c #C70803",
"; 	c #040000",
"> 	c #145C70",
", 	c #135568",
"' 	c #513E4B",
") 	c #C91103",
"! 	c #E07702",
"~ 	c #FEFA00",
"{ 	c #F6D500",
"] 	c #C10D03",
"^ 	c #870202",
"/ 	c #8A0202",
"( 	c #820202",
"_ 	c #310101",
": 	c #010304",
"< 	c #26AFD6",
"[ 	c #135669",
"} 	c #13586B",
"| 	c #145B6F",
"1 	c #304A5A",
"2 	c #CF2D03",
"3 	c #F1C101",
"4 	c #FFFF00",
"5 	c #FCF200",
"6 	c #EDB101",
"7 	c #EDAF01",
"8 	c #EEB301",
"9 	c #ECA901",
"0 	c #D23702",
"a 	c #660202",
"b 	c #16687F",
"c 	c #1B7C97",
"d 	c #125163",
"e 	c #114E5F",
"f 	c #2195B6",
"g 	c #1D85A2",
"h 	c #79272F",
"i 	c #E79301",
"j 	c #FBED00",
"k 	c #D13202",
"l 	c #410101",
"m 	c #041318",
"n 	c #24A7CC",
"o 	c #125264",
"p 	c #166379",
"q 	c #26AFD5",
"r 	c #7C252D",
"s 	c #DA5B02",
"t 	c #F9E200",
"u 	c #E69201",
"v 	c #E58C01",
"w 	c #F0BE01",
"x 	c #930202",
"y 	c #19728B",
"z 	c #125466",
"A 	c #23A1C5",
"B 	c #1A7791",
"C 	c #6F5162",
"D 	c #CE2803",
"E 	c #F5D301",
"F 	c #A30202",
"G 	c #6C0202",
"H 	c #F4CE01",
"I 	c #FCF000",
"J 	c #BA0303",
"K 	c #114C5C",
"L 	c #C80C03",
"M 	c #D13402",
"N 	c #C70603",
"O 	c #020000",
"P 	c #600101",
"Q 	c #E17D02",
"R 	c #FCF300",
"S 	c #BD0303",
"T 	c #070000",
"U 	c #270101",
"V 	c #5D0101",
"W 	c #E17A02",
"X 	c #FDF600",
"Y 	c #BF0303",
"Z 	c #4E0101",
"` 	c #DD6702",
" .	c #FCF100",
"..	c #F5D201",
"+.	c #A20202",
"@.	c #23A2C6",
"#.	c #156075",
"$.	c #25AACF",
"%.	c #030F12",
"&.	c #6A0202",
"*.	c #BB0303",
"=.	c #510101",
"-.	c #1E8AA8",
";.	c #125061",
">.	c #1D86A3",
",.	c #2093B4",
"'.	c #1C7F9B",
").	c #156379",
"!.	c #A0410D",
"~.	c #00FF00",
"{.	c #0B7A0B",
"].	c #0C6E0C",
"^.	c #A34500",
"/.	c #00FC00",
"(.	c #0B710B",
"_.	c #0B740B",
":.	c #0B770B",
"<.	c #00F900",
"[.	c #009600",
"}.	c #06AD06",
"|.	c #0C690C",
"1.	c #0C650C",
"2.	c #03D403",
"3.	c #06B806",
"4.	c #05C605",
"5.	c #006900",
"6.	c #001C00",
"7.	c #01EF01",
"8.	c #0C6A0C",
"9.	c #0B720B",
"0.	c #0A850A",
"a.	c #00FA00",
"b.	c #0A840A",
"c.	c #00E300",
"d.	c #00B200",
"e.	c #089D08",
"f.	c #0C6D0C",
"g.	c #02E602",
"h.	c #07A407",
"i.	c #03D603",
"j.	c #004B00",
"k.	c #0C610C",
"l.	c #0B700B",
"m.	c #0C6F0C",
"n.	c #00EA00",
"o.	c #0A800A",
"p.	c #0B730B",
"q.	c #0C6B0C",
"r.	c #0A810A",
"s.	c #01F301",
"t.	c #001500",
"u.	c #007000",
"v.	c #05C205",
"w.	c #0C660C",
"x.	c #05BC05",
"y.	c #04D004",
"z.	c #06B106",
"A.	c #008F00",
"                                                                  ",
"                  . . .       . . .       + @ +                   ",
"                  . # . $ $ $ . # . $ % & * = - ;                 ",
"                  . . . > > , . . . ' ) ! ~ { ] ^ / ( _           ",
"                : < [ } } } | $ [ 1 2 3 4 4 5 6 7 8 9 0 a         ",
"                b c d } } e f g d h i 4 4 4 4 4 4 4 4 j k l       ",
"              m n o } } [ p q o } 1 r s t 4 j u v 6 4 4 w x       ",
"              c y z } } e A B z } } e C D 9 E F G ) H 4 I J       ",
"          . . . K , , . . . K , , . . . _ L M N O P Q 4 R S       ",
"          . # . $ $ $ . # . $ $ $ . # .   T U O   V W 4 X Y       ",
"          . . . | | , . . . | | , . . .           Z `  ...+.      ",
"          @.#.} } } o < #.} } } o $.%.              &.*.+.=.      ",
"        e -.;.} } d >.,.;.} } d '.).                              ",
"        $ } } } } } $ } } } } } $                                 ",
"      ).'.d } } ;.,.>.d } } ;.4 4 4       4 4 4       4 4 4       ",
"  . . . o } } [ . . . } } [ . 4 !.4 ~.~.~.4 !.4 ~.~.~.4 !.4       ",
"  . # . $ $ $ $ . # . $ $ $ . 4 4 4 {.{.].4 4 4 {.{.].4 4 4       ",
"  . . .         . . .       ^./.(._._._.:.~.(._._._.:.<.          ",
"                            [.}.|._._.1.2.3.|._._.1.4.5.          ",
"                          6.7.8._._.9.0.a.8._._.9.b.c.            ",
"                          d.e.f._._.1.g.h.f._._.1.i.j.            ",
"                      4 4 4 k.l.l.4 4 4 k.l.l.4 4 4               ",
"                      4 !.4 ~.~.~.4 !.4 ~.~.~.4 !.4               ",
"                      4 4 4 :.:.m.4 4 4 :.:.m.4 4 4               ",
"                      n.o.p._._.q./.r.p._._.q.s.t.                ",
"                    u.v.w._._.|.x.y.w._._.|.z.A.                  ",
"                    ~._._._._._.~._._._._._.~.                    ",
"                  A.z.|._._.w.y.x.|._._.w.v.u.                    ",
"              4 4 4 8.p.p.9.4 4 4 p.p.9.4 4 4                     ",
"              4 !.4 ~.~.~.~.4 !.4 ~.~.~.4 !.4                     ",
"              4 4 4         4 4 4       4 4 4                     ",
"                                                                  ",
"                                                                  "};
