/* XPM */
static char * SOuP_scatter_xpm[] = {
"33 33 6 1",
" 	c None",
".	c #000000",
"+	c #55FF55",
"@	c #00AA00",
"#	c #AA0000",
"$	c #FF5555",
".................................",
".................................",
".................................",
".................................",
".................................",
".................................",
".................................",
".................................",
".................................",
"................+++..............",
"...........+++++@@###............",
"......+++++@+@@@@@#$#............",
"...+++@###@@@###@@###+...........",
"....+@@#$#@@@#$#@@@@@@+..........",
".....+@###@@@###@@@@@+++.........",
"......+@@@@@@@@+@###+@@@+........",
"......+@@@@###+++#$#@@@###.......",
".......+@@+#$#@@@###@@@#$#+......",
"........++@###@@@@+@@@@###@+.....",
".........+@@@@@@@@@+@@@@@@@@+....",
"..........+@@###@@###@@###@@++...",
"...........+@#$#@@#$#@@#$#++.....",
"...........+@###@@###++###.......",
"............+@@@++++.............",
".............+++.................",
".................................",
".................................",
".................................",
".................................",
".................................",
".................................",
".................................",
"................................."};
