/* XPM */
static char * morph_xpm[] = {
"33 33 5 1",
" 	c #000000",
".	c #55FF55",
"+	c #AA5500",
"@	c #FFFF55",
"#	c #00AA00",
"                                 ",
"                                 ",
"                   ............  ",
"                 + .@.@.@......  ",
"                 + ..@.@.....#.  ",
"                 +#.@.@........  ",
"                +  ..@.......#.  ",
"                + #.@..........  ",
"               + # ..........#.  ",
"               +  #.........#..  ",
"              +  #.........#.#.  ",
"              + + ........#.#+.  ",
"             + + #.....#.#.#+#.  ",
"            + + #..............  ",
"          ++ + # ......# # #     ",
"         +  + # ....# # #  +++   ",
"       ++  + # . . # +   ++      ",
"     ++   # # . . # +  ++        ",
"   ++  # #.#.... # + ++          ",
"      ......... # + +            ",
"    ...........# + +             ",
"   ...@.@.....# + +              ",
"   ..@.@.......#  +              ",
"  ..@.@.......#  +               ",
"  ...@........  +                ",
"  ..@.......#.# +                ",
"  .........#.. +                 ",
"   .......#..  +                 ",
"   ......#.#. +                  ",
"    ..#.#...  +                  ",
"      ....                       ",
"                                 ",
"                                 "};
