/* XPM */
static char * SOuP_multiAttributeTransfer_xpm[] = {
"33 33 7 1",
" 	c None",
".	c #000000",
"+	c #00AA00",
"@	c #FF5555",
"#	c #AA0000",
"$	c #55FF55",
"%	c #FFFF55",
".................................",
".................................",
".................................",
"...+++.+++.+++.+++.+++.+++.+++...",
"...+.+.+.+.+.+.+.+.+.+.+.+.+.+...",
"...+++.+++.+++.+++.+++.+++.+++...",
".............@@@@@@@.............",
"...+++.+++.@@#######@@.+++.+++...",
"...+.+.+.+@##+.+.+.+###+.+.+.+...",
"...+++.++@#+++.+++.+++##++.+++...",
"........@#.............##........",
"...+++.@#+.$$$.$$$.$$$.+##.+++...",
"...+.+.@#+.$.$.$.$.$.$.+##.+.+...",
"...+++@#++.$$$.$$$.$$$.++##+++...",
"......@#.................##......",
"...+++##++.$$$.%%%.$$$.++##+++...",
"...+.+##.+.$.$.%.%.$.$.+.##+.+...",
"...+++##++.$$$.%%%.$$$.++##+++...",
"......##.................##......",
"...+++##++.$$$.$$$.$$$.++##+++...",
"...+.+.##+.$.$.$.$.$.$.+##.+.+...",
"...+++.##+.$$$.$$$.$$$.+##.+++...",
"........##.............##........",
"...+++.++##+++.+++.+++##++.+++...",
"...+.+.+.+###+.+.+.+###+.+.+.+...",
"...+++.+++.###########.+++.+++...",
".............#######.............",
"...+++.+++.+++.+++.+++.+++.+++...",
"...+.+.+.+.+.+.+.+.+.+.+.+.+.+...",
"...+++.+++.+++.+++.+++.+++.+++...",
".................................",
".................................",
"................................."};
