/* XPM */
static char * SOuP_objGrpToCompList_xpm[] = {
"33 33 9 1",
" 	c None",
".	c #000000",
"+	c #FF5555",
"@	c #C81212",
"#	c #AA0000",
"$	c #FFFF55",
"%	c #AA5500",
"&	c #55FF55",
"*	c #00AA00",
"...............................+@",
"..............................+#.",
"............$$$..............+#..",
"............$%$&..$$$.......+#...",
"............$$$%&&$%$....$$+#....",
"...........&%*%*%*$$$&&&&$+#.....",
"..........&%*%*%*%&*%*%*%+#......",
".......$$$%*%*%*%&*%*%*%+#.......",
".......$%$&%*%*%*&%*%*%+#........",
".......$$$%&&&$$$%*%*%+#.........",
"......&%*%*%*%$%$&%*%+#..........",
".....&%*%*%*%*$$$*&&+#.....%%%...",
"....&%*%*%*%*&*%*%*+#%%%%%%$+%...",
"..$$$*%*%*%*&*%*%*+#$+$+$+$+$%...",
"..$%$%*%*%*%&%*%*+#$+$+$+$+$%....",
"..$$$&&&%$$$%*%*+#........$+%....",
"........&$%$*%*+#$+$+$+$+$+%.....",
".........$$$&&+#.+$+$+$+$+%......",
"...##........+#$.$.......$%......",
"..#$$#......+#%+$+$+$+$+$+%......",
"..#$$#.....+#.%$.$+$+$+$+$%......",
"..#$$#..#.+#..%+.+.......+$%.....",
"..#$$###$##...%$+$+$+$+$+$+%.....",
"..#$$$$#$$$##..%$.$+$+$+$+$%.....",
"...#$$$$$$$$$#.%+.+.......+$%....",
"....##$$$$$$$#.%$+$+$+$+$+$+%....",
".....+##$$$##.%$+.+$+$+$+$+$%....",
"....+#.#$##...%+.$.......+$%.....",
"...+#...#....%+$+$+$+$+$+$%......",
"..+#.........%$+$+$+$+$+$+%......",
".+#.........%%%%%%%%%%%%%%.......",
"+#...............................",
"@................................"};
