/* XPM */
static char * createArray_xpm[] = {
"33 33 318 2",
"  	c #000000",
". 	c #966D12",
"+ 	c #99720F",
"@ 	c #A36E10",
"# 	c #906312",
"$ 	c #95720F",
"% 	c #AD7810",
"& 	c #804F0E",
"* 	c #61A70D",
"= 	c #B7FF00",
"- 	c #EDE105",
"; 	c #6F9311",
"> 	c #9EF801",
", 	c #EAF602",
"' 	c #A0720F",
") 	c #458B11",
"! 	c #36EE01",
"~ 	c #77EB03",
"{ 	c #617D14",
"] 	c #2CDF03",
"^ 	c #61FC00",
"/ 	c #8C730F",
"( 	c #797216",
"_ 	c #4A9010",
": 	c #6DA90E",
"< 	c #8D7116",
"[ 	c #4B8911",
"} 	c #5AAD0D",
"| 	c #8C6911",
"1 	c #73A30E",
"2 	c #C8EC03",
"3 	c #F5CD08",
"4 	c #7D9211",
"5 	c #B1E604",
"6 	c #F5DF06",
"7 	c #A26E10",
"8 	c #489410",
"9 	c #56FB00",
"0 	c #96EA04",
"a 	c #618313",
"b 	c #47EE02",
"c 	c #85FD00",
"d 	c #90730F",
"e 	c #6A7016",
"f 	c #2C980F",
"g 	c #56B50B",
"h 	c #836E17",
"i 	c #2E8E11",
"j 	c #3FBA0A",
"k 	c #886B10",
"l 	c #322000",
"m 	c #6B4401",
"n 	c #A16701",
"o 	c #C67E02",
"p 	c #DD8D02",
"q 	c #7F9C0F",
"r 	c #C5D706",
"s 	c #ECBE0B",
"t 	c #888D12",
"u 	c #B2D207",
"v 	c #ECCD08",
"w 	c #CD8711",
"x 	c #050300",
"y 	c #754A01",
"z 	c #AE6F01",
"A 	c #F09902",
"B 	c #4C9C0E",
"C 	c #77FF00",
"D 	c #B6E804",
"E 	c #628A12",
"F 	c #63F801",
"G 	c #A9FD00",
"H 	c #C39010",
"I 	c #080500",
"J 	c #CA8102",
"K 	c #E68E03",
"L 	c #CD7207",
"M 	c #BB5E09",
"N 	c #AE510B",
"O 	c #A7480C",
"P 	c #647216",
"Q 	c #1FA40D",
"R 	c #4DBD0B",
"S 	c #7F6F16",
"T 	c #22990F",
"U 	c #33C409",
"V 	c #A57913",
"W 	c #965F01",
"X 	c #DC8305",
"Y 	c #B65A0A",
"Z 	c #A3450D",
"` 	c #A0410D",
" .	c #913D0F",
"..	c #8D4216",
"+.	c #8D9311",
"@.	c #C2C10A",
"#.	c #E0AF0D",
"$.	c #948813",
"%.	c #B2BD0B",
"&.	c #E0BA0B",
"*.	c #C07C1D",
"=.	c #A2501E",
"-.	c #984210",
";.	c #CE8302",
">.	c #AB4D0B",
",.	c #74310D",
"'.	c #53260F",
").	c #5E2B14",
"!.	c #4EA10E",
"~.	c #88FF00",
"{.	c #C6E704",
"].	c #638E11",
"^.	c #72F900",
"/.	c #BCFC01",
"(.	c #B68216",
"_.	c #8B4119",
":.	c #6C3210",
"<.	c #6D300D",
"[.	c #73300D",
"}.	c #48220D",
"|.	c #46210D",
"1.	c #527315",
"2.	c #0BAF0B",
"3.	c #41CD08",
"4.	c #716F16",
"5.	c #0CA20D",
"6.	c #24D506",
"7.	c #9D7A12",
"8.	c #56260D",
"9.	c #642C0D",
"0.	c #87390D",
"a.	c #74330D",
"b.	c #817411",
"c.	c #9D910C",
"d.	c #B68C0E",
"e.	c #8F7112",
"f.	c #9E970C",
"g.	c #BF9B0C",
"h.	c #B06712",
"i.	c #89390D",
"j.	c #9E410D",
"k.	c #B87502",
"l.	c #9C470D",
"m.	c #A04D0C",
"n.	c #A44D0C",
"o.	c #9B480D",
"p.	c #9E530C",
"q.	c #A5530C",
"r.	c #A2450D",
"s.	c #81360D",
"t.	c #7D340D",
"u.	c #8B3A0D",
"v.	c #953C0D",
"w.	c #9B410D",
"x.	c #A0430F",
"y.	c #A64A19",
"z.	c #A54C1A",
"A.	c #A1430F",
"B.	c #A26701",
"C.	c #B38164",
"D.	c #BAA091",
"E.	c #BBA89E",
"F.	c #BBA89F",
"G.	c #BBA89D",
"H.	c #BAA093",
"I.	c #84370D",
"J.	c #6D2F0D",
"K.	c #57270D",
"L.	c #4A220D",
"M.	c #4C230D",
"N.	c #58280D",
"O.	c #682C0D",
"P.	c #7A320D",
"Q.	c #943D0E",
"R.	c #A14F21",
"S.	c #AF724F",
"T.	c #B06B46",
"U.	c #A74918",
"V.	c #AA4F13",
"W.	c #AB5B2F",
"X.	c #B07756",
"Y.	c #B58368",
"Z.	c #B68569",
"`.	c #B6856A",
" +	c #B68369",
".+	c #B27B5C",
"++	c #82360D",
"@+	c #6B2E0D",
"#+	c #54250D",
"$+	c #46220D",
"%+	c #421F0D",
"&+	c #45210D",
"*+	c #52240D",
"=+	c #622B0D",
"-+	c #903B0D",
";+	c #A04D1F",
">+	c #B17858",
",+	c #B27B5E",
"'+	c #A84F1D",
")+	c #B75A0A",
"!+	c #A24512",
"~+	c #A54817",
"{+	c #A54918",
"]+	c #A54A18",
"^+	c #A44814",
"/+	c #81350D",
"(+	c #682E0D",
"_+	c #52250D",
":+	c #44210D",
"<+	c #411F0D",
"[+	c #44200D",
"}+	c #4F230D",
"|+	c #5E290D",
"1+	c #72300D",
"2+	c #80370D",
"3+	c #8F3A0D",
"4+	c #A04E1F",
"5+	c #B2836A",
"6+	c #B68B74",
"7+	c #A95528",
"8+	c #A8490C",
"9+	c #E28A04",
"0+	c #682D0D",
"a+	c #3F1F0D",
"b+	c #4D230D",
"c+	c #71300D",
"d+	c #82370D",
"e+	c #A05123",
"f+	c #B48D75",
"g+	c #DE8504",
"h+	c #80350D",
"i+	c #83380D",
"j+	c #903C0D",
"k+	c #A24F22",
"l+	c #B68E78",
"m+	c #B99A89",
"n+	c #AD6338",
"o+	c #C37C02",
"p+	c #130C00",
"q+	c #80340D",
"r+	c #53240D",
"s+	c #401F0D",
"t+	c #43200D",
"u+	c #4D220D",
"v+	c #84380D",
"w+	c #923C0D",
"x+	c #A24D20",
"y+	c #B38265",
"z+	c #B68970",
"A+	c #A95729",
"B+	c #291A00",
"C+	c #53260D",
"D+	c #3F1E0D",
"E+	c #441F0D",
"F+	c #4E240D",
"G+	c #602A0D",
"H+	c #75310D",
"I+	c #85380D",
"J+	c #A24B1F",
"K+	c #B07655",
"L+	c #B27856",
"M+	c #A84F1C",
"N+	c #692F0D",
"O+	c #54260D",
"P+	c #47210D",
"Q+	c #51240D",
"R+	c #622A0D",
"S+	c #77320D",
"T+	c #933D0E",
"U+	c #A44D20",
"V+	c #B06F4C",
"W+	c #AE6942",
"X+	c #A64919",
"Y+	c #E59202",
"Z+	c #853A0C",
"`+	c #6C300D",
" @	c #4B230D",
".@	c #4A210D",
"+@	c #662C0D",
"@@	c #78330D",
"#@	c #8A3A0D",
"$@	c #953E0F",
"%@	c #A64D1F",
"&@	c #AF6941",
"*@	c #AB5A2D",
"=@	c #A74910",
"-@	c #AC6E01",
";@	c #BE6C07",
">@	c #78370C",
",@	c #5D290D",
"'@	c #50250D",
")@	c #6C2E0D",
"!@	c #7E350D",
"~@	c #8E3B0D",
"{@	c #973F0E",
"]@	c #AD5D31",
"^@	c #AD561C",
"/@	c #CC7208",
"(@	c #342100",
"_@	c #E59003",
":@	c #AE6507",
"<@	c #7E430A",
"[@	c #62300C",
"}@	c #5D2A0D",
"|@	c #652C0D",
"1@	c #76310D",
"2@	c #86380D",
"3@	c #953E0D",
"4@	c #A2480D",
"5@	c #B65E13",
"6@	c #CF7914",
"7@	c #E99204",
"8@	c #A76A01",
"9@	c #392500",
"0@	c #7D5001",
"a@	c #B77402",
"b@	c #DC8C02",
"c@	c #EC9702",
"                                                                  ",
"                                                                  ",
"                  . + @ # $ % &                                   ",
"                  * = - ; > , '                                   ",
"                  ) ! ~ { ] ^ /                                   ",
"                  ( _ : < [ } |                                   ",
"                  1 2 3 4 5 6 7                                   ",
"                  8 9 0 a b c d                                   ",
"                  e f g h i j k                                   ",
"        l m n o p q r s t u v w p o n m l                         ",
"  x y z A A A A A B C D E F G H A A A A A z y x                   ",
"I J A A K L M N O P Q R S T U V O N M L K A A J I                 ",
"W A X Y Z ` `  ...+.@.#.$.%.&.*.=.-.` ` Z Y X A W                 ",
";.A >.` ` ` ,.'.).!.~.{.].^./.(._.:.<.` ` ` >.A ;.                ",
";.A >.` ` ` [.}.|.1.2.3.4.5.6.7.[.8.9.` ` ` >.A ;.                ",
"W A X Y Z ` ` 0.a.b.c.d.e.f.g.h.i.i.j.` Z Y X A k.A A A A A A A k.",
"I J A A K j.` ` ` l.m.n.o.p.q.r.` ` ` ` K A A J A A A A A A A A A ",
"  x y A A i.s.t.s.u.v.w.` ` j.j.x.y.z.A.A A B.A A C.D.E.F.F.G.H.A ",
"      A A I.J.K.L.|.M.N.O.P.0.Q.R.S.T.U.A A A A V.W.X.Y.Z.`. +.+A ",
"      A A ++@+#+$+%+&+*+=+[.I.-+;+>+,+'+A A A )+M !+~+{+]+{+{+^+A ",
"      A A /+(+_+:+<+[+}+|+1+2+3+4+5+6+7+A A X 8+9+A A A A A A A A ",
"      A A s.0+_+:+a+[+b+|+c+d+-+e+f+` ` ` ` ` g+A A A A A A A A k.",
"      A A h+0+_+:+a+[+b+|+1+i+j+k+l+m+n+A A A A o+p+              ",
"      A A q+0+r+:+s+t+u+|+1+v+w+x+y+z+A+A A A k.B+                ",
"      A A h+0+C+&+D+E+F+G+H+I+w+J+K+L+M+A A                       ",
"      A A h+N+O+P+%+&+Q+R+S+I+T+U+V+W+X+A A                       ",
"      Y+A Z+`+N. @&+.@8.+@@@#@$@%@&@*@=@A Y+                      ",
"      -@A ;@>@,@Q+b+'@,@)@!@~@{@z.]@^@/@A -@                      ",
"      (@A A _@:@<@[@}@|@1@2@3@4@5@6@7@A A (@                      ",
"        (@8@A A A A A A A A A A A A A 8@(@                        ",
"            9@0@a@b@c@A A A c@b@a@0@9@                            ",
"                                                                  ",
"                                                                  "};
