/* XPM */
static char * zSpheres_xpm[] = {
"33 33 379 2",
"  	c #000000",
". 	c #091200",
"+ 	c #427F01",
"@ 	c #61BC01",
"# 	c #75E101",
"$ 	c #75E201",
"% 	c #65C301",
"& 	c #4A8F01",
"* 	c #1B3500",
"= 	c #0C1700",
"- 	c #56A601",
"; 	c #79EA01",
"> 	c #6FD701",
", 	c #57A801",
"' 	c #4D9501",
") 	c #498D01",
"! 	c #519D01",
"~ 	c #69CB01",
"{ 	c #77E501",
"] 	c #6ACC01",
"^ 	c #234400",
"/ 	c #142600",
"( 	c #6FD601",
"_ 	c #59AD01",
": 	c #76E401",
"< 	c #417D00",
"[ 	c #72DB01",
"} 	c #63BE01",
"| 	c #3B6989",
"1 	c #3C6E78",
"2 	c #4B9016",
"3 	c #82FC01",
"4 	c #346400",
"5 	c #458501",
"6 	c #0B1600",
"7 	c #5395C2",
"8 	c #6FC8E7",
"9 	c #7BE959",
"0 	c #81F914",
"a 	c #7DEF21",
"b 	c #5DB514",
"c 	c #4D9603",
"d 	c #7BEE01",
"e 	c #7EF301",
"f 	c #162A00",
"g 	c #7BED01",
"h 	c #407B00",
"i 	c #467FA5",
"j 	c #70CCD9",
"k 	c #80F527",
"l 	c #7EF224",
"m 	c #4C7E40",
"n 	c #0F1313",
"o 	c #162126",
"p 	c #213B52",
"q 	c #0E1E2B",
"r 	c #7AEC01",
"s 	c #5BB001",
"t 	c #132500",
"u 	c #81FA01",
"v 	c #010200",
"w 	c #020304",
"x 	c #6BC1FC",
"y 	c #80F523",
"z 	c #7DEA36",
"A 	c #172226",
"B 	c #121F27",
"C 	c #4D88BA",
"D 	c #73C8FF",
"E 	c #6DC4FF",
"F 	c #62B0F6",
"G 	c #122A3F",
"H 	c #010101",
"I 	c #3F7900",
"J 	c #73DD01",
"K 	c #010100",
"L 	c #2F5A00",
"M 	c #7CF001",
"N 	c #172935",
"O 	c #79E27A",
"P 	c #81F71D",
"Q 	c #20321F",
"R 	c #1B2F3F",
"S 	c #3D6A93",
"T 	c #476C8B",
"U 	c #589CD4",
"V 	c #70C9FF",
"W 	c #40768D",
"X 	c #5FB801",
"Y 	c #79E901",
"Z 	c #468701",
"` 	c #73DE01",
" .	c #152631",
"..	c #81F910",
"+.	c #5BAB3E",
"@.	c #0D161C",
"#.	c #4781B5",
"$.	c #DFC824",
"%.	c #FCDB07",
"&.	c #8C8B39",
"*.	c #63B6E0",
"=.	c #7FF50F",
"-.	c #6FD702",
";.	c #3E7700",
">.	c #7AEB01",
",.	c #76E301",
"'.	c #82FA01",
").	c #080E10",
"!.	c #396683",
"~.	c #569AD8",
"{.	c #C8B729",
"].	c #FADA07",
"^.	c #859932",
"/.	c #7FF327",
"(.	c #7CF024",
"_.	c #32622C",
":.	c #000101",
"<.	c #0E1B00",
"[.	c #020300",
"}.	c #264900",
"|.	c #7DF201",
"1.	c #010203",
"2.	c #6EC4FD",
"3.	c #6AC0FF",
"4.	c #4780B0",
"5.	c #4776A1",
"6.	c #7EF11F",
"7.	c #75E536",
"8.	c #0C1B26",
"9.	c #0E1A22",
"0.	c #090E02",
"a.	c #78E801",
"b.	c #264800",
"c.	c #030500",
"d.	c #010204",
"e.	c #65B5FC",
"f.	c #6DC6FF",
"g.	c #67C6FF",
"h.	c #75DF7A",
"i.	c #7FF61D",
"j.	c #152B1F",
"k.	c #182C3C",
"l.	c #6CC2FD",
"m.	c #3C6F9A",
"n.	c #16352E",
"o.	c #64C001",
"p.	c #7FF501",
"q.	c #315F00",
"r.	c #59AC01",
"s.	c #1A3A52",
"t.	c #56A5EA",
"u.	c #52B4FF",
"v.	c #80F811",
"w.	c #55A73D",
"x.	c #0B141B",
"y.	c #62B0E5",
"z.	c #6DC3FE",
"A.	c #7EF024",
"B.	c #74E00E",
"C.	c #1F3D02",
"D.	c #7FF601",
"E.	c #213F00",
"F.	c #020202",
"G.	c #294F00",
"H.	c #417E00",
"I.	c #03080C",
"J.	c #0D2132",
"K.	c #234F3F",
"L.	c #82FB02",
"M.	c #020504",
"N.	c #09131D",
"O.	c #5AA1D8",
"P.	c #7AE836",
"Q.	c #111E26",
"R.	c #091016",
"S.	c #000811",
"T.	c #67C601",
"U.	c #78E701",
"V.	c #74E001",
"W.	c #66C401",
"X.	c #224100",
"Y.	c #0A1102",
"Z.	c #4B9101",
"`.	c #010202",
" +	c #34630D",
".+	c #7DF103",
"++	c #396B94",
"@+	c #7AE47A",
"#+	c #192E1F",
"$+	c #1B303F",
"%+	c #72C9FF",
"&+	c #5CA7E5",
"*+	c #274B00",
"=+	c #488C01",
"-+	c #6BCF01",
";+	c #7CEF01",
">+	c #3E7701",
",+	c #82FB01",
"'+	c #081000",
")+	c #000A15",
"!+	c #80F60D",
"~+	c #5BAC3F",
"{+	c #0C161C",
"]+	c #64B3E9",
"^+	c #79E183",
"/+	c #81F911",
"(+	c #010102",
"_+	c #19344B",
":+	c #00070D",
"<+	c #80F801",
"[+	c #60B901",
"}+	c #5CB301",
"|+	c #64C101",
"1+	c #284C00",
"2+	c #070E00",
"3+	c #070D0F",
"4+	c #386583",
"5+	c #6FC9E9",
"6+	c #5FB43F",
"7+	c #060B0F",
"8+	c #4682B5",
"9+	c #041423",
"0+	c #080F00",
"a+	c #305D00",
"b+	c #58AA01",
"c+	c #6ACD01",
"d+	c #7EF401",
"e+	c #407C01",
"f+	c #7EEF40",
"g+	c #7FF320",
"h+	c #325B79",
"i+	c #5091CA",
"j+	c #0E2A3C",
"k+	c #142602",
"l+	c #132330",
"m+	c #020D16",
"n+	c #101F00",
"o+	c #5FB701",
"p+	c #6ED401",
"q+	c #559E89",
"r+	c #80F428",
"s+	c #7FF427",
"t+	c #2A4E36",
"u+	c #6AC0FA",
"v+	c #66B8EF",
"w+	c #6DCB6B",
"x+	c #80F50B",
"y+	c #325A7D",
"z+	c #153148",
"A+	c #040E15",
"B+	c #6DD301",
"C+	c #4C9201",
"D+	c #6CD101",
"E+	c #3A6F00",
"F+	c #70D802",
"G+	c #70D442",
"H+	c #192F22",
"I+	c #0F1C25",
"J+	c #589DCE",
"K+	c #69BDF6",
"L+	c #6FC7E7",
"M+	c #64B83F",
"N+	c #0A0E10",
"O+	c #7DCBFF",
"P+	c #5395D1",
"Q+	c #0C2234",
"R+	c #70D801",
"S+	c #448401",
"T+	c #65C201",
"U+	c #010508",
"V+	c #122332",
"W+	c #589ED2",
"X+	c #6ABFFA",
"Y+	c #80F140",
"Z+	c #80F420",
"`+	c #305979",
" @	c #6FC6FF",
".@	c #6FC8FF",
"+@	c #4E8EC6",
"@@	c #7CF002",
"#@	c #162B00",
"$@	c #5AAE01",
"%@	c #071826",
"&@	c #234968",
"*@	c #6ECBAF",
"=@	c #80F528",
"-@	c #81F527",
";@	c #25442C",
">@	c #06090C",
",@	c #223F53",
"'@	c #5CA6E5",
")@	c #69BCFD",
"!@	c #040701",
"~@	c #3C7400",
"{@	c #6FD804",
"]@	c #7EF20C",
"^@	c #74D841",
"/@	c #1B3224",
"(@	c #091116",
"_@	c #D8BE15",
":@	c #F9DB10",
"<@	c #3B6485",
"[@	c #6CC2FF",
"}@	c #76DC83",
"|@	c #7EF309",
"1@	c #274A00",
"2@	c #101E12",
"3@	c #080F13",
"4@	c #264458",
"5@	c #3A688E",
"6@	c #EAD121",
"7@	c #E8CF19",
"8@	c #3C6A93",
"9@	c #6ECDE9",
"0@	c #7CF31C",
"a@	c #55A328",
"b@	c #070C10",
"c@	c #162A1D",
"d@	c #030600",
"e@	c #0A1300",
"f@	c #0E1D2A",
"g@	c #63B2ED",
"h@	c #66B7FD",
"i@	c #346490",
"j@	c #4A83B2",
"k@	c #5CABF2",
"l@	c #77EB40",
"m@	c #79EC1B",
"n@	c #0C151C",
"o@	c #345D79",
"p@	c #2A4C16",
"q@	c #71D901",
"r@	c #447EAF",
"s@	c #73CFFF",
"t@	c #6AC2FF",
"u@	c #6DC8FF",
"v@	c #67CDBA",
"w@	c #7BF028",
"x@	c #7BF026",
"y@	c #2A4F36",
"z@	c #0F1A22",
"A@	c #6ABDF6",
"B@	c #55A302",
"C@	c #2D5700",
"D@	c #5EB730",
"E@	c #6FD94A",
"F@	c #78EE24",
"G@	c #80F814",
"H@	c #6FD53F",
"I@	c #101D26",
"J@	c #5BA3D4",
"K@	c #5599C7",
"L@	c #305C00",
"M@	c #519C01",
"N@	c #63C007",
"O@	c #478A10",
"P@	c #182D23",
"Q@	c #254357",
"R@	c #5CA6D7",
"S@	c #65B7E4",
"T@	c #6CD011",
"U@	c #050A00",
"V@	c #7DF101",
"W@	c #0A1116",
"X@	c #305670",
"Y@	c #5597C5",
"Z@	c #569CCB",
"`@	c #5EAAC7",
" #	c #75E01C",
".#	c #060C00",
"+#	c #376A00",
"@#	c #3A7000",
"##	c #4E9701",
"$#	c #7CEF02",
"%#	c #66C402",
"&#	c #2A5100",
"*#	c #57A901",
"=#	c #4A9001",
"-#	c #172C00",
"                                                                  ",
"          . + @ # $ % & *                                         ",
"      = - ; > , ' ) ! ~ { ] ^                                     ",
"    / > ( ^             / _ : <                                   ",
"    [ }       | 1 2 @ # $ % _ 3 4                                 ",
"  5 # 6   7 8 9 0 a b c ) ! ~ d e f                               ",
"  g h   i j k l m n o p q     / r s                               ",
"t u v w x y z A B C D E F G   H I J K                             ",
"L M   N O P Q R S T U E V W + @ X Y K                             ",
"Z `    ...+.@.#.$.%.&.*.9 =.-., ;.>.=   K                         ",
"h ,.  t '.).!.~.{.].^./.(._.:.    >.<.  [.                        ",
"}.|.  L M 1.2.3.4.5.6.7.8.9.    0.a.d b.K   c.  H                 ",
". u <.Z ` d.e.f.g.h.i.j.k.l.m.n.- J o.p.q.    K   H H             ",
"  ~ r.h ,.  s.t.u.v.w.x.y.z.j A.B.C.[.g D.E.        H F.          ",
"  G.{ H.|.  I.J.K.L.M.N.O.E y P.Q.R.S.M T.U.V.$ W.& X.Y.F.H       ",
"    Z.g u <.  `. +.+    ++@+P #+$+%+&+L.t *+=+-+o.~ ; ;+>+F.H     ",
"      _ ,+( '+  Z `     )+!+~+{+]+E ^+/+(+_+:+` Z   / ,.<+<       ",
"        Z e Y [+}+|+1+2+t L.3+4+E 5+P 6+7+8+9+M L     <.,+3 4     ",
"          0+a+b+c+> J d+e+M H l.E f+g+{+h+i+j+u k+l+m+  |.& V.n+  ",
"              K     n+o+d+p+  q+r+s+t+9.u+v+w+x+`.y+z+A+,.h B+C+  ",
"                  K     V.D+E+F+G+H+I+J+K+L+P M+N+O+P+Q+` Z I R+  ",
"                    c.  K S+T+<.U+V+W+X+z.Y+Z+{+`+ @.@+@@@L #@a.  ",
"                :.      [.2+# $@  %@&@*@=@-@;@>@,@'@E )@L.t !@; = ",
"                        K   Z.>.~@, {@]@^@/@(@_@:@<@[@}@|@H H >.<.",
"                            1@|.b+@ + 2@3@4@5@6@7@8@9@0@a@b@c@>.d@",
"                            e@u <.    f@g@E h@i@j@k@l@m@n@o@p@:   ",
"                              q@J /     r@s@t@u@v@w@x@y@z@A@B@W.  ",
"                              C@p.r ] ! ) D@E@F@G@H@/@I@J@K@r L@  ",
"                                Z.M M@% $ # N@O@P@3@Q@R@S@T@R+U@  ",
"                                  _ V@5 '+    W@X@Y@Z@`@ #d .#    ",
"                                    L@R+,.[+Z +#@###c+$#%#6       ",
"                                  H     &#*#] ( B+|+=#-#          ",
"                  H               F.H                             "};
