/* XPM */
static char * out_convexHull_xpm[] = {
"33 33 7 1",
" 	c None",
".	c #000000",
"+	c #FFFF55",
"@	c #55FF55",
"#	c #AA5500",
"$	c #00AA00",
"%	c #FF5555",
".................................",
".................................",
".................................",
".........................+++.....",
"........................@+#+.....",
"..................@@@@@@$+++.....",
".......+++..@@+++@#$#$#$#$@......",
".......+#+@@$#+#+#$#$#$#$#@......",
".......+++#$#$+++$#$%%%$#$@......",
".......@$#$#$#$#$#$#%#%#$#@......",
".......@#$#$#$#%%%#$%%%$#$@......",
".......@$%%%$#$%#%$#$#$#$@.......",
"......@$#%#%#$#%%%#$#$#$#@.......",
"......@#$%%%$#$#$#$#$#$#$@.......",
"......@$#$#$#$#$#$#%%%#$#@.......",
"....+++#$#$#$#$#$#$%#%$#$@.......",
"....+#+$#$#$#$#$#$#%%%#$+++......",
"....+++#$#$#$#$#$#$#$#$#+#+......",
"......@$#$#$#%%%#$#$#$#$+++......",
"......@#$#$#$%#%$#$#$#$#$#@......",
".......@#$#$#%%%#$#$#$#$#$@......",
".......@$#$#$#$#$#$#$#$#$#@......",
".......+++#$#$#$#$#$#$#$#$#@.....",
".......+#+$#$#$#$#%%%#$#$#$@.....",
".......+++#$#$#$#$%#%$#$#$#@.....",
"..........@#$#$#$#%%%#$#$#$+++...",
"...........@#$#$#$#$#$#$#$@+#+...",
"............@#$#$#$#$#@@@@.+++...",
".............+++#@@@@@...........",
".............+#+@................",
".............+++.................",
".................................",
"................................."};
