/* XPM */
static char * mapToMesh_xpm[] = {
"33 33 164 2",
"  	c #000000",
". 	c #A64100",
"+ 	c #70001C",
"@ 	c #26B1D8",
"# 	c #145C70",
"$ 	c #135568",
"% 	c #010304",
"& 	c #26AFD6",
"* 	c #135669",
"= 	c #13586B",
"- 	c #145B6F",
"; 	c #67687E",
"> 	c #A20202",
", 	c #BF0303",
"' 	c #BD0303",
") 	c #BA0303",
"! 	c #930202",
"~ 	c #410101",
"{ 	c #16687F",
"] 	c #1B7C97",
"^ 	c #125163",
"/ 	c #114E5F",
"( 	c #2195B6",
"_ 	c #1D85A2",
": 	c #1F8DAC",
"< 	c #A51013",
"[ 	c #F5D201",
"} 	c #FDF600",
"| 	c #FCF300",
"1 	c #FCF000",
"2 	c #F0BE01",
"3 	c #D13202",
"4 	c #660202",
"5 	c #041318",
"6 	c #24A7CC",
"7 	c #125264",
"8 	c #166379",
"9 	c #26AFD5",
"0 	c #229EC0",
"a 	c #BB0303",
"b 	c #FCF100",
"c 	c #FFFF00",
"d 	c #FBED00",
"e 	c #D23702",
"f 	c #310101",
"g 	c #19728B",
"h 	c #125466",
"i 	c #23A1C5",
"j 	c #1A7791",
"k 	c #2197B8",
"l 	c #0B3440",
"m 	c #6A0202",
"n 	c #DD6702",
"o 	c #E17A02",
"p 	c #E17D02",
"q 	c #F4CE01",
"r 	c #ECA901",
"s 	c #820202",
"t 	c #114C5C",
"u 	c #4E0101",
"v 	c #5D0101",
"w 	c #600101",
"x 	c #C91103",
"y 	c #EDB101",
"z 	c #EEB301",
"A 	c #8A0202",
"B 	c #020000",
"C 	c #6C0202",
"D 	c #E58C01",
"E 	c #EDAF01",
"F 	c #870202",
"G 	c #040000",
"H 	c #C70603",
"I 	c #A30202",
"J 	c #E69201",
"K 	c #A50303",
"L 	c #C70803",
"M 	c #2A0101",
"N 	c #23A2C6",
"O 	c #156075",
"P 	c #25AACF",
"Q 	c #030F12",
"R 	c #270101",
"S 	c #D13402",
"T 	c #F5D301",
"U 	c #FCF200",
"V 	c #F6D500",
"W 	c #EAA001",
"X 	c #7B0202",
"Y 	c #1E8AA8",
"Z 	c #125061",
"` 	c #1D86A3",
" .	c #2093B4",
"..	c #1C7F9B",
"+.	c #156379",
"@.	c #070000",
"#.	c #C80C03",
"$.	c #FEFA00",
"%.	c #D23602",
"&.	c #CE2803",
"*.	c #F9E200",
"=.	c #E07702",
"-.	c #710202",
";.	c #A0DD5F",
">.	c #5E0101",
",.	c #DA5B02",
"'.	c #F1C101",
").	c #0B0000",
"!.	c #00FF00",
"~.	c #A0410D",
"{.	c #746B02",
"].	c #E79301",
"^.	c #CF2D03",
"/.	c #440101",
"(.	c #0B7A0B",
"_.	c #0C6E0C",
":.	c #2A5D0B",
"<.	c #905903",
"[.	c #217000",
"}.	c #0B740B",
"|.	c #0B770B",
"1.	c #0B710B",
"2.	c #00F900",
"3.	c #009600",
"4.	c #06AD06",
"5.	c #0C690C",
"6.	c #0C650C",
"7.	c #03D403",
"8.	c #06B806",
"9.	c #05C605",
"0.	c #006900",
"a.	c #001C00",
"b.	c #01EF01",
"c.	c #0C6A0C",
"d.	c #0B720B",
"e.	c #0A850A",
"f.	c #00FA00",
"g.	c #0A840A",
"h.	c #00E300",
"i.	c #00B200",
"j.	c #089D08",
"k.	c #0C6D0C",
"l.	c #02E602",
"m.	c #07A407",
"n.	c #03D603",
"o.	c #004B00",
"p.	c #0C610C",
"q.	c #0B700B",
"r.	c #0C6F0C",
"s.	c #00EA00",
"t.	c #0A800A",
"u.	c #0B730B",
"v.	c #0C6B0C",
"w.	c #00FC00",
"x.	c #0A810A",
"y.	c #01F301",
"z.	c #001500",
"A.	c #007000",
"B.	c #05C205",
"C.	c #0C660C",
"D.	c #05BC05",
"E.	c #04D004",
"F.	c #06B106",
"G.	c #008F00",
"                                                                  ",
"                  . . .       . . .       . . .                   ",
"                  . + . @ @ @ . + . @ @ @ . + .                   ",
"                  . . . # # $ . . . # # $ . . .                   ",
"                % & * = = = - @ * = = = - ; > , ' ) ! ~           ",
"                { ] ^ = = / ( _ ^ = = / : < [ } | 1 2 3 4         ",
"              5 6 7 = = * 8 9 7 = = * 8 0 a b c c c c d e f       ",
"              ] g h = = / i j h = = / k l m n o p q c c r s       ",
"          . . . t $ $ . . . t $ $ . . .     u v w x y c z A       ",
"          . + . @ @ @ . + . @ @ @ . + .         B C D c E F G     ",
"          . . . - - $ . . . - - $ . . .       B H I J c y K L M   ",
"          N O = = = 7 & O = = = 7 P Q         R S T d c U V W X   ",
"        / Y Z = = ^ `  .Z = = ^ ..+.          @.#.r c c c $.%.M   ",
"        @ = = = = = @ = = = = = @               f &.*.c c =.-.    ",
"      +...^ = = Z  .` ^ = = Z Y ;.c       c c c   >.,.c '.x ).    ",
"  . . . 7 = = * . . . = = * . . . c !.!.!.c ~.c !.!.{.].^./.      ",
"  . + . @ @ @ @ . + . @ @ @ . + . c (.(._.c c c (.(.:.<.[.        ",
"  . . .         . . .       . . . }.}.}.|.!.1.}.}.}.|.2.          ",
"                            3.4.5.}.}.6.7.8.5.}.}.6.9.0.          ",
"                          a.b.c.}.}.d.e.f.c.}.}.d.g.h.            ",
"                          i.j.k.}.}.6.l.m.k.}.}.6.n.o.            ",
"                      c c c p.q.q.c c c p.q.q.c c c               ",
"                      c ~.c !.!.!.c ~.c !.!.!.c ~.c               ",
"                      c c c |.|.r.c c c |.|.r.c c c               ",
"                      s.t.u.}.}.v.w.x.u.}.}.v.y.z.                ",
"                    A.B.C.}.}.5.D.E.C.}.}.5.F.G.                  ",
"                    !.}.}.}.}.}.!.}.}.}.}.}.!.                    ",
"                  G.F.5.}.}.C.E.D.5.}.}.C.B.A.                    ",
"              c c c c.u.u.d.c c c u.u.d.c c c                     ",
"              c ~.c !.!.!.!.c ~.c !.!.!.c ~.c                     ",
"              c c c         c c c       c c c                     ",
"                                                                  ",
"                                                                  "};
