/* XPM */
static char * SOuP_vertexConstraint_xpm[] = {
"33 33 7 1",
" 	c None",
".	c #000000",
"+	c #55FF55",
"@	c #FF5555",
"#	c #AA0000",
"$	c #00AA00",
"%	c #AA5500",
".................................",
".................................",
".................................",
".................................",
".................................",
".................................",
".................+...............",
".................+...............",
".................+...............",
".................+...+...........",
".................+..+............",
".................+.+.............",
"................@++..............",
"...........+++++++++++++.........",
"...........@#@##+$@#.............",
"..@@@.#####@@@%+%$%%#............",
"..@#@#%%%%%%%#+%%$%%%#...........",
"..@@@%%%%%%%%+#%%$%%%%@@@........",
".....#%%%%%%%%#%%$%%%#@#@........",
"......#%%%%%%%@@@####%@@@........",
"......#%%%%%%%@#@$%%%%%%%#.......",
".......@@@####@@@#%%%%%%%%#......",
".......@#@%%%%%%%%#%%%%%%%%#.....",
".......@@@%%%%%%%%%#%%%%%%%%@@@..",
"..........#%%%%%%%%#%%%%%%%%@#@..",
"...........#%%%%%%%%@@@%####@@@..",
"...........#%%%%%%%%@#@#.........",
"............@@@%####@@@..........",
"............@#@#.................",
"............@@@..................",
".................................",
".................................",
"................................."};
