/* XPM */
static char * SOuP_peak_xpm[] = {
"33 33 6 1",
" 	c None",
".	c #000000",
"+	c #FF5555",
"@	c #AA5500",
"#	c #00AA00",
"$	c #55FF55",
".................................",
".................................",
".................................",
"................+++..............",
"................+@+..............",
"................+++..............",
".................#...............",
"................###..............",
"................###..............",
"...............#$#$#.............",
"...............#$#$#.............",
"..............#$$$##.............",
"..............#$$$#$#............",
"...........++#$$$$#$#............",
"...........+@#$$$$#$#............",
"...+++#####+#$$$$$#$##...........",
"...+@+$$$$$$#$$$$$#$$#...........",
"...+++$$$$$#$$$$$$$#$$#..........",
".....#$$$$$#$$$$$$$#$$#+++.......",
"......#$$$#$$$$$$$$#$$$#@+.......",
"......#+++#$$$$$$$$#$$$#++.......",
".......+@+$$$$$$$$$#$$$#$$#......",
".......+++#$$$$$$$$$#$#$$$$#.....",
".........#$###$$$$$$#$#$$$$+++...",
"..........#$$$###$$$##$$$$$+@+...",
"...........#$$$$$###+++$###+++...",
"...........#$$$$$$$$+@+#.........",
"............#+++####+++..........",
".............+@+.................",
".............+++.................",
".................................",
".................................",
"................................."};
