/* XPM */
static char * out_frameCacher_xpm[] = {
"33 33 7 1",
" 	c #000000",
".	c #FFFF55",
"+	c #FF5555",
"@	c #00AA00",
"#	c #AA0000",
"$	c #AA5500",
"%	c #0E0E0D",
"                                 ",
"                                 ",
"  .........................      ",
"  .  .  .  .  .  .  .  .  .      ",
"  .........................      ",
"  .+@+@+@+.+@+@+@+.+@+@+@+.      ",
"  .@+@+@+@.@+@+@+@.@+@+@+@.      ",
"  .+@+@+@+.+@+@+@+.+@+@+@+.      ",
"  .@+@+@+@.@+@+@+@.@+@+@+@.      ",
"  .+@+@+@+.+@+@+@+.+@+@+@+.      ",
"  .@+@+@+@.@+@+@+@.@+@+@+@.      ",
"  .+@+@+@+.+@+@+@+.+@+@+@+.      ",
"  .@+@+@+@.@+@+@+@.@+@+@+@.      ",
"  .+@+@+@+.+@+@+@+.+@+@+@+.      ",
"  .........................      ",
"  .  .  .  .  .  .  .  .  .      ",
"  .........................      ",
"      +++  ###+#+$$$$$$$#        ",
"   #  +#+##$$$+++$$$$$$$$+++     ",
"  #.# +++$$$$$$$$#$$$$$$#+#+     ",
"  #.#   #$$$$$$$$$+++###$+++#    ",
"  #.#    #$$$$$$$#+#+$$$$$$$$#   ",
"  #.#     +++$###$+++$$$$$$$$+++ ",
"  #.#     +#+#$$$$$$$#$$$$$$$+#+ ",
"  #.#  #  +++$$$$$$$$$#$$$$$#+++ ",
"  #.#  .#   #$$$$$$$$$+++###     ",
"  #.###..#  ##$$$$$$$$+#+        ",
"  #.......#   #$$$$$##+++        ",
"   ####..#    #+++##             ",
"       .#     %+#+               ",
"       #       +++               ",
"                                 ",
"                                 "};
