/* XPM */
static char * SOuP_trajectory_xpm[] = {
"33 33 7 1",
" 	c None",
".	c #000000",
"+	c #FFFF55",
"@	c #AA5500",
"#	c #AA0000",
"$	c #55FF55",
"%	c #00AA00",
".................................",
".................................",
".................................",
"...........................+++...",
"...........................+@+...",
"...........................+++...",
"...........................##....",
"..........................###....",
".............$$$..........#+.....",
"...........$$@%@$$$.......##.....",
".........$$%@%@%$$@$.....###.....",
".......$$@%@%@$$%@%$....+++......",
"......$$@%@%$$@%@%@%$.##+@+......",
".......$$$$$%@%@%@%#$###+++......",
".......$@%$%@%@+++###$#..........",
"........$@%$%##+@+##%$...........",
"........$%#$###+++@%@%$..........",
"........####$#%@%@%@%@$..........",
"......+++##%$%@%@%@%@%$..........",
"......+@+.$@%$%@%@%@$$...........",
"......+++..$@$@%@%$$.............",
".....##....$$%$@$$...............",
"....###......$$$.................",
"....+#...........................",
"...###...........................",
"...##............................",
"..+++............................",
"..+@+............................",
"..+++............................",
".................................",
".................................",
".................................",
"................................."};
