/* XPM */
static char * SOuP_shatter_xpm[] = {
"33 33 6 1",
" 	c None",
".	c #000000",
"+	c #AA0000",
"@	c #55FF55",
"#	c #FF5555",
"$	c #00AA00",
".................................",
".............+++.................",
".........@+++###++++.............",
".....+++@$$+#####+$$@+@@.........",
"..+++#+$$$$$++#++$$++#+$@+++.....",
"..+##+$$+++$$$+$$$+###+$$+##+++..",
"..+#+@$+###++$$$$$$+###+$$+++#+..",
"..+#+$++##++$$$$++$$+##++@+###+..",
"..++$+##++@$$$++##++@++#+$$+##+..",
"..++$+###+$@++##++++$+++$$$$+#+..",
"..+$$+###+$$++++###+$+$$$$+$$++..",
"..+$$+##+$$+##+####+$$$$++#+$$+..",
"..@$$+#++$$+##+#####+$++###+$$@..",
"..@$$++$$$$+##+#####+$+#####+$@..",
"..@$$$$++$$+##+#####+$+#####+$@..",
"..+$$++#+$+###+#####+$+#####+$@..",
"..++$+##+$+###+#####+$+#####+$@..",
"..@+$+##+$$+##+###++$$+####+$$+..",
"..@+$+##+$$$+++#++$$$$$++##+$$+..",
"..@+$+##+$+$$$++$$$++$$$$+++$++..",
"..+$+###+$+++$@$$++##++$$$$$$++..",
"..+$+###+$$$$$@$+###++$$+$$++#+..",
"..+$+##+$$+++$@$+#++$$$+#+$$+#+..",
"..+$+++$$+###+@$++$$$++##+$$+#+..",
"...@+$$$+####+@$$$$$+#####+$$++..",
".....@$+######+$$$$+######+$$++..",
"......++######++++$+#######+@....",
"........+#####+##+$$+###+++......",
".........++###+###+$++++.........",
"...........+##+###+@+............",
"............+++#+++..............",
"..............++.................",
"................................."};
