/* XPM */
static char * SOuP_xpm[] = {
"33 33 6 1",
" 	c #000000",
".	c #AA5500",
"+	c #FFFF55",
"@	c #060606",
"#	c #AA0000",
"$	c #FF5555",
"                                 ",
"                 .               ",
"                .    .    .      ",
"         ...    +     .    .     ",
"        .   + ..  .   +    +     ",
"       .+ .  .  +  . .    .      ",
"       .+  + .   . . +  .+       ",
"        .  . + .  + .  +         ",
"         .+  .  . . + .    ..    ",
"            .@ .+  +. +   +  .   ",
"           . ..+   . .   +    .  ",
"      .++. +   .. .  +   +    +  ",
"     .+  +.     + . ..+  .  + +  ",
"     +   + +.++.  + +.+   .+  +  ",
"     .  +  .+.   +  +. +      .  ",
"     .+   + .+. +  +.  .+    +   ",
"      ..+.   .++..+.    .+++.    ",
"  #############################  ",
"  #$$$$$$$$$$$$$$$$$$$$$$$$$$$#  ",
"  #############################  ",
"  #.#.#.#.#.#.#.#.#..#.#.#.#.##  ",
"   #.#.#................#.#.##   ",
"    #.#................#.#.##    ",
"    ##.#..............#.#.#.#    ",
"     ##.#.#..........#.#.#.#     ",
"      ##.#.#.#....#.#.#.#.#      ",
"       ##.#.#.#.#..#.#.###       ",
"         ###############         ",
"         #$$$$$$$$$$$$$#         ",
"          #############          ",
"                                 ",
"                                 ",
"                                 "};
