/* XPM */
static char * SOuP_pfxToArray_xpm[] = {
"33 33 7 1",
" 	c #000000",
".	c #00AA00",
"+	c #FF5555",
"@	c #AA0000",
"#	c #AA5500",
"$	c #FFFF55",
"%	c #55FF55",
"        ...   . .              +@",
"     .  ..   @....            +@ ",
"    ...  .# @..#.  .         +@  ",
"   ..##. .##.##.  ...       +@   ",
"  .....##  @#.   ##...     +@    ",
"   ... .#  @  #@#. .      +@     ",
"  .## . @@ # #@#.#.      +@      ",
"   ..##  # ##@   ..#    +@       ",
"      .# #@##  ..##..  +@        ",
"   . .#####@  ###.#.  +@   +++   ",
"  ..##@  @#@@### ..  +@    +#+   ",
" ..#..#.  #@##..#   +@     +++   ",
"  ... .   ##   ..  +@            ",
"   . .    #@      +@             ",
"          #@     +@     ...      ",
"         @#@    +@      .#.      ",
"    @@   @#@   +@       ... $$$  ",
"   @$$@  @#@  +@            $#$  ",
"   @$$@   #  +@      $$$    $$$  ",
"   @$$@  @  +@       $#$         ",
"   @$$@@@$@@@   @@@  $$$ @@@     ",
"   @$$$$@$$$@@  @#@      @#@     ",
"    @$$$$$$$$$@ @@@      @@@     ",
"     @@$$$$$$$@     +++          ",
"       @@$$$@@ $$$  +#+ %%%      ",
"      +@@$@@   $#$  +++ %#%      ",
"     +@  @     $$$      %%%      ",
"    +@    @@@      ...           ",
"   +@     @#@      .#.           ",
"  +@      @@@      ...           ",
" +@                              ",
"+@                               ",
"@                                "};
