/* XPM */
static char * out_voxelGrid_xpm[] = {
"33 33 4 1",
" 	c #000000",
".	c #FFFF55",
"+	c #AA0000",
"@	c #AA5500",
"                                 ",
"               ...               ",
"        ...   +.@.               ",
"        .@.+++ ...+++...         ",
"  ... ++... ++     ++.@.+        ",
"  .@.+        ...++  ... +++...  ",
"  ...++    +++.@.++         .@.  ",
"   +   ...+   ...  ++...++++...  ",
"   +   .@.+         +.@.     +   ",
"   +   ... ++...++++ ...     +   ",
"   +    +    .@.      +      +   ",
"   +    +    ...      +      +   ",
"   +    +     +       +      +   ",
"  ...   +     +       +      +   ",
"  .@.   +     +       +     ...  ",
"  ...+ ...    +       +     .@.  ",
"   +  +.@.    +      ... +++...  ",
"   +   ...    +      .@.+    +   ",
"   +    + ++ ...   ++...     +   ",
"   +    +   +.@.+++   +      +   ",
"   +    +    ...      +      +   ",
"  ...   +     +       +      +   ",
"  .@.   +     +       +      +   ",
"  ...   +     +       +     ...  ",
"    ++  +     +       +     .@.  ",
"      +...    +       +   ++...  ",
"       .@.    +      ...++       ",
"       ...+   +      .@.         ",
"           +  +   +++...         ",
"            +...++               ",
"             .@.                 ",
"             ...                 ",
"                                 "};
