/* XPM */
static char * out_shell_xpm[] = {
"33 33 164 2",
"  	c #000000",
". 	c #160E04",
"+ 	c #543410",
"@ 	c #7C4E18",
"# 	c #9A5E1A",
"$ 	c #BA721F",
"% 	c #A9681C",
"& 	c #87541A",
"* 	c #613E16",
"= 	c #291907",
"- 	c #030201",
"; 	c #3B240A",
"> 	c #845116",
", 	c #D5882F",
"' 	c #E19946",
") 	c #EEDD02",
"! 	c #E1C304",
"~ 	c #E19B49",
"{ 	c #E09641",
"] 	c #A4651B",
"^ 	c #56350E",
"/ 	c #110A03",
"( 	c #130C03",
"_ 	c #794A14",
": 	c #D48223",
"< 	c #E3A052",
"[ 	c #E6A963",
"} 	c #F4E709",
"| 	c #EEDB07",
"1 	c #EBBD87",
"2 	c #EAB87D",
"3 	c #EEDB06",
"4 	c #E5A75E",
"5 	c #DD8D31",
"6 	c #A2641A",
"7 	c #331F08",
"8 	c #3F270B",
"9 	c #C77A22",
"0 	c #E4A459",
"a 	c #E8B172",
"b 	c #E9B579",
"c 	c #EBBA82",
"d 	c #DD8C2E",
"e 	c #6B4212",
"f 	c #070401",
"g 	c #724613",
"h 	c #E0953F",
"i 	c #E3A155",
"j 	c #ECBE89",
"k 	c #EDC18E",
"l 	c #FFFF00",
"m 	c #EDC291",
"n 	c #E6AA65",
"o 	c #A7671C",
"p 	c #100A03",
"q 	c #53330E",
"r 	c #C47820",
"s 	c #A0410D",
"t 	c #F0CEA6",
"u 	c #F1D0A9",
"v 	c #EEC697",
"w 	c #EFC89A",
"x 	c #E7AF6D",
"y 	c #DC8A2A",
"z 	c #895416",
"A 	c #090501",
"B 	c #482C0C",
"C 	c #B56F1E",
"D 	c #BD741F",
"E 	c #E7AD6A",
"F 	c #F2D2AD",
"G 	c #F2D4B2",
"H 	c #E9B476",
"I 	c #D28123",
"J 	c #7B4C14",
"K 	c #030200",
"L 	c #271806",
"M 	c #F0CBA1",
"N 	c #CD7E22",
"O 	c #4C2F0D",
"P 	c #F0E303",
"Q 	c #EBD903",
"R 	c #E29E4E",
"S 	c #F1E303",
"T 	c #EBD803",
"U 	c #090602",
"V 	c #040301",
"W 	c #623C10",
"X 	c #C17620",
"Y 	c #DC8725",
"Z 	c #B8711E",
"` 	c #945B19",
" .	c #1D1205",
"..	c #140C03",
"+.	c #663F11",
"@.	c #AF6B1D",
"#.	c #8A5517",
"$.	c #301E08",
"%.	c #2A1A07",
"&.	c #58360F",
"*.	c #EFC99D",
"=.	c #784A14",
"-.	c #42290B",
";.	c #241606",
">.	c #ECE002",
",.	c #EDDA04",
"'.	c #EFE203",
").	c #E7D602",
"!.	c #1C1105",
"~.	c #A5651B",
"{.	c #DE9036",
"].	c #DF933A",
"^.	c #C97B21",
"/.	c #3E260B",
"(.	c #472C0C",
"_.	c #221506",
":.	c #52320E",
"<.	c #2C1B07",
"[.	c #190F04",
"}.	c #EEE103",
"|.	c #ECD903",
"1.	c #F0E203",
"2.	c #0E0802",
"3.	c #7D4D15",
"4.	c #A0621A",
"5.	c #915918",
"6.	c #7A4A14",
"7.	c #AE6B1D",
"8.	c #8B5517",
"9.	c #814F15",
"0.	c #9D601A",
"a.	c #E4DB01",
"b.	c #E8D603",
"c.	c #7C4C15",
"d.	c #E5DC01",
"e.	c #E5D402",
"f.	c #170F04",
"g.	c #261807",
"h.	c #754814",
"i.	c #995E19",
"j.	c #211506",
"k.	c #020200",
"l.	c #43290B",
"m.	c #673F11",
"n.	c #0C0702",
"o.	c #050301",
"p.	c #1A1005",
"q.	c #603B10",
"r.	c #D98524",
"s.	c #301D08",
"t.	c #0D0802",
"u.	c #0E0903",
"v.	c #251707",
"w.	c #040201",
"x.	c #41280B",
"y.	c #1F1406",
"z.	c #51320E",
"A.	c #231606",
"B.	c #110B03",
"C.	c #010000",
"D.	c #020100",
"E.	c #0F0A03",
"F.	c #1B1105",
"G.	c #140D04",
"                                                                  ",
"                                                                  ",
"                        . + @ # $ % & * = -                       ",
"                    ; > , ' ) ! ~ { ) ! { ] ^ /                   ",
"                ( _ : < [ [ } | 1 2 } 3 4 4 5 6 7                 ",
"              8 9 { ' 0 a b 2 2 c c 2 2 a [ ' ' d e f             ",
"            g ' ~ h i j k l l l 1 1 l l l m n h ' ~ o p           ",
"          q r ' h 4 m m m l s l t u l s l v w x { { y z A         ",
"        B C D h E m m m k l l l F G l l l m m w H ' I C J K       ",
"      L ) ! C n v m m m k w G F F F G M m m v v w c N C ) !       ",
"      O P Q d c c j m m k t G F F F F u v v v m j j R C S T U     ",
"    V W C X a b H b c k m F F F F F F G w m j c b 2 c Y Z `  .    ",
"    ..+.@.< 2 b b b b H k F u u u u u F w b b 2 2 b c E r #.$.    ",
"    %.&.y 2 b b b b b H v u t t t t t t *.b b 2 2 2 2 1 ~ =.-.    ",
"    %.) ! c b b b b b b *.u t t t t u t t c b 2 2 2 2 c 2 ) !     ",
"    ;.>.,.< x b b H H 2 t t t t t t t t u j b b 2 c b [ R '.).    ",
"    !.~.' {.].i a b b 1 u t t t t t t t u k b c 2 n ' {.h ^./.    ",
"     .I { ].].{.h 0 l l l u u u u u u u l l l n ' {.{.].h 5 (.    ",
"    _.{.h ].].].].{.l s l j j j j j j j l s l {.{.].].].].{ :.    ",
"    <.) ! ].].].].].l l l a a a a a a a l l l ].].].].].h ) !     ",
"    [.}.|.].{ ].].].h x H H H H H H a H H a { ].].].h { y 1.).    ",
"    2.3.> 4.: h h ].{ a H H H H H H H H H H ' {.].{ 5 Z 5.#.<.    ",
"    V 6.#.> > 7.d h l l l H H H H H H H l l l h {.r ` > 8.8. .    ",
"      ) ! #.#.9.8.D l s l H H H H a H H l s l N 0.#.8.8.5.) !     ",
"      a.b.8.8.#.> c.l l l y y y y y d 5 l l l > #.8.5.` c.d.e.    ",
"        f.g.h.5.#.> i.I N N N N N N N N N I ~.#.8.` 8.O j.-       ",
"        k.j.g.l.#.8.i.I I I I I I I I I I : ~.8.` m.g.g.n.        ",
"          o.p.g.g.q.l l l r.r.r.r.r.r.r.l l l =.s.g.j.t.          ",
"              u.j.g.l s l 4.4.4.4.4.4.4.l s l g.v.. w.            ",
"                - f.l l l x.x.x.x.x.x.x.l l l  .U                 ",
"                    n.y.B l.l.l.l.l.l.l.z.A.B.C.                  ",
"                      D.E.F.F. .j.j.j.j.G.V                       ",
"                                                                  "};
