/* XPM */
static char * out_multiRemapValue_xpm[] = {
"33 33 6 1",
" 	c #000000",
".	c #AA5500",
"+	c #AA0000",
"@	c #FFFF55",
"#	c #55FF55",
"$	c #00AA00",
"                                 ",
"                                 ",
"                        ......   ",
"                   +    .@@#$.   ",
"       .......     ++   .@##$.   ",
"   ++++.####$.     +++  .##$$.   ",
"   +   .$$$$$. ++++++++ ......   ",
"   +   .......     +++  .@@#$.   ",
"   +               ++   .@##$.   ",
"   +               +    .##$$.   ",
"   +                    ......   ",
"   +                             ",
"   +                    ......   ",
"   +               +    .@@#$.   ",
"   +               ++   .@##$.   ",
"   +   .......     +++  .##$$.   ",
"   ++++.####$. ++++++++ ......   ",
"   +   .$$$$$.     +++  .@@#$.   ",
"   +   .......     ++   .@##$.   ",
"   +               +    .##$$.   ",
"   +                    ......   ",
"   +                             ",
"   +                    ......   ",
"   +               +    .@@#$.   ",
"   +               ++   .@##$.   ",
"   +   .......     +++  .##$$.   ",
"   ++++.####$. ++++++++ ......   ",
"       .$$$$$.     +++  .@@#$.   ",
"       .......     ++   .@##$.   ",
"                   +    .##$$.   ",
"                        ......   ",
"                                 ",
"                                 "};
