/* XPM */
static char * out_tensionBlendShape_xpm[] = {
"33 33 356 2",
"  	c #000000",
". 	c #2A1D01",
"+ 	c #8C6102",
"@ 	c #130D00",
"# 	c #050300",
"$ 	c #9C6C02",
"% 	c #E8A004",
"& 	c #946602",
"* 	c #261A01",
"= 	c #BB8103",
"- 	c #D59303",
"; 	c #C78903",
"> 	c #0F0A00",
", 	c #171000",
"' 	c #6A4902",
") 	c #1D1400",
"! 	c #4D3501",
"~ 	c #E09A04",
"{ 	c #D39103",
"] 	c #FFFF00",
"^ 	c #FDAE04",
"/ 	c #BD8203",
"( 	c #060400",
"_ 	c #FEAF04",
": 	c #A0410D",
"< 	c #08CA03",
"[ 	c #09E804",
"} 	c #000900",
"| 	c #045C01",
"1 	c #0AFC04",
"2 	c #0AFE04",
"3 	c #046B02",
"4 	c #011800",
"5 	c #09E904",
"6 	c #0AFD04",
"7 	c #09E204",
"8 	c #010F00",
"9 	c #07BB03",
"0 	c #0AFB04",
"a 	c #0AED04",
"b 	c #067503",
"c 	c #000B00",
"d 	c #07AD03",
"e 	c #0AF504",
"f 	c #0AE904",
"g 	c #099204",
"h 	c #043202",
"i 	c #EBD703",
"j 	c #006DB8",
"k 	c #028B93",
"l 	c #08E127",
"m 	c #0AF109",
"n 	c #09E108",
"o 	c #0AF705",
"p 	c #0AFB05",
"q 	c #0AFA04",
"r 	c #0AE504",
"s 	c #0A9904",
"t 	c #075604",
"u 	c #00253F",
"v 	c #02849C",
"w 	c #04A572",
"x 	c #07D23B",
"y 	c #09F210",
"z 	c #0AEC0C",
"A 	c #09DD08",
"B 	c #09D207",
"C 	c #0AEA05",
"D 	c #0AE805",
"E 	c #0AEB04",
"F 	c #09DA04",
"G 	c #09B704",
"H 	c #097D04",
"I 	c #003357",
"J 	c #006FB6",
"K 	c #017BA7",
"L 	c #03A079",
"M 	c #05B85B",
"N 	c #07D537",
"O 	c #08E029",
"P 	c #08E620",
"Q 	c #09E615",
"R 	c #08D90F",
"S 	c #09BF0C",
"T 	c #08B709",
"U 	c #09DC05",
"V 	c #09CC05",
"W 	c #09CB05",
"X 	c #09DD04",
"Y 	c #09DF04",
"Z 	c #09CB04",
"` 	c #0AC304",
" .	c #077A04",
"..	c #045C2E",
"+.	c #00416E",
"@.	c #017AA8",
"#.	c #02908C",
"$.	c #04A078",
"%.	c #04AD69",
"&.	c #05BB57",
"*.	c #06C946",
"=.	c #07D337",
"-.	c #08DA29",
";.	c #09D21F",
">.	c #08AD17",
",.	c #078C11",
"'.	c #08BA0C",
").	c #0AE20A",
"!.	c #09DF06",
"~.	c #09C805",
"{.	c #09CA05",
"].	c #09DD05",
"^.	c #0AD905",
"/.	c #08A005",
"(.	c #0ADA05",
"_.	c #0AB905",
":.	c #057328",
"<.	c #004E84",
"[.	c #0178AA",
"}.	c #028995",
"|.	c #039389",
"1.	c #04AD68",
"2.	c #05B957",
"3.	c #06C146",
"4.	c #06C036",
"5.	c #07AC2A",
"6.	c #069622",
"7.	c #079E18",
"8.	c #08C011",
"9.	c #09E90E",
"0.	c #0AE70A",
"a.	c #09CE08",
"b.	c #09D307",
"c.	c #09C006",
"d.	c #09D605",
"e.	c #0ADC05",
"f.	c #079A07",
"g.	c #09C808",
"h.	c #0AE908",
"i.	c #08B725",
"j.	c #005B9A",
"k.	c #006FB5",
"l.	c #0180A1",
"m.	c #039189",
"n.	c #039C7A",
"o.	c #04A36A",
"p.	c #05A858",
"q.	c #06A047",
"r.	c #05943A",
"s.	c #069A2C",
"t.	c #07B223",
"u.	c #08CE1A",
"v.	c #09E515",
"w.	c #09E411",
"x.	c #09C20C",
"y.	c #08B70C",
"z.	c #0AD80A",
"A.	c #08B609",
"B.	c #09CC08",
"C.	c #0AE30A",
"D.	c #09AF0A",
"E.	c #08A60A",
"F.	c #0AE40A",
"G.	c #08D723",
"H.	c #0069B2",
"I.	c #0072B2",
"J.	c #017FA1",
"K.	c #028696",
"L.	c #02898A",
"M.	c #038D7B",
"N.	c #03896C",
"O.	c #04875A",
"P.	c #048D4B",
"Q.	c #06A43D",
"R.	c #07BF31",
"S.	c #08D627",
"T.	c #08E420",
"U.	c #09DE1B",
"V.	c #07B216",
"W.	c #069611",
"X.	c #08C50F",
"Y.	c #09DF0F",
"Z.	c #08AB0F",
"`.	c #07C010",
" +	c #09E90F",
".+	c #08D20F",
"++	c #07920F",
"@+	c #07BB11",
"#+	c #08CC27",
"$+	c #000A11",
"%+	c #017DA1",
"&+	c #027E98",
"*+	c #027B8C",
"=+	c #027B7D",
"-+	c #038570",
";+	c #049B60",
">+	c #06B251",
",+	c #06C344",
"'+	c #07D138",
")+	c #08DB2E",
"!+	c #08DD26",
"~+	c #07BC22",
"{+	c #068D1D",
"]+	c #07AB19",
"^+	c #09DF16",
"/+	c #09E114",
"(+	c #07A016",
"_+	c #07B416",
":+	c #09E816",
"<+	c #09E517",
"[+	c #08B917",
"}+	c #06971A",
"|+	c #06A92D",
"1+	c #001829",
"2+	c #0179A4",
"3+	c #01789B",
"4+	c #027F91",
"5+	c #038F84",
"6+	c #049F74",
"7+	c #05AC67",
"8+	c #05B959",
"9+	c #06C34D",
"0+	c #07CD41",
"a+	c #07D238",
"b+	c #08BB30",
"c+	c #06952A",
"d+	c #069727",
"e+	c #08CC24",
"f+	c #09E81F",
"g+	c #08DA20",
"h+	c #07A421",
"i+	c #07A91F",
"j+	c #08DD23",
"k+	c #08E522",
"l+	c #08DC22",
"m+	c #06A627",
"n+	c #058633",
"o+	c #0179A8",
"p+	c #01809F",
"q+	c #028993",
"r+	c #039388",
"s+	c #039E7B",
"t+	c #04A96E",
"u+	c #05B262",
"v+	c #06C24D",
"w+	c #06B544",
"x+	c #06933B",
"y+	c #058F38",
"z+	c #07B735",
"A+	c #08DA2D",
"B+	c #08DD2D",
"C+	c #08D22D",
"D+	c #06A82D",
"E+	c #059B2E",
"F+	c #08D12E",
"G+	c #08DB30",
"H+	c #07D734",
"I+	c #07CA35",
"J+	c #05933B",
"K+	c #028699",
"L+	c #028F8E",
"M+	c #039784",
"N+	c #04A86F",
"O+	c #05AD65",
"P+	c #05A65C",
"Q+	c #048D54",
"R+	c #04854E",
"S+	c #06A54A",
"T+	c #06C644",
"U+	c #07CE40",
"V+	c #07CF3E",
"W+	c #07C83F",
"X+	c #05AA3D",
"Y+	c #059141",
"Z+	c #07B942",
"`+	c #07CC42",
" @	c #06CA45",
".@	c #06C847",
"+@	c #05A848",
"@@	c #0177AB",
"#@	c #01839D",
"$@	c #028E8E",
"%@	c #039584",
"&@	c #039A7B",
"*@	c #049571",
"=@	c #03856A",
"-@	c #038063",
";@	c #049960",
">@	c #05B35B",
",@	c #05BA58",
"'@	c #06BE53",
")@	c #06C051",
"!@	c #06BD51",
"~@	c #05A753",
"{@	c #048C53",
"]@	c #059755",
"^@	c #05B65D",
"/@	c #04A058",
"(@	c #0176AC",
"_@	c #017F9E",
":@	c #028497",
"<@	c #028690",
"[@	c #028489",
"}@	c #027E80",
"|@	c #037F7C",
"1@	c #038E77",
"2@	c #04A172",
"3@	c #04AA6C",
"4@	c #04AC6A",
"5@	c #04A16A",
"6@	c #03896A",
"7@	c #03816B",
"8@	c #04A06F",
"9@	c #04A474",
"0@	c #039167",
"a@	c #005C9C",
"b@	c #0070B3",
"c@	c #0178A4",
"d@	c #027D99",
"e@	c #027A95",
"f@	c #027A92",
"g@	c #02868B",
"h@	c #039089",
"i@	c #039586",
"j@	c #039883",
"k@	c #039882",
"l@	c #039C7D",
"m@	c #039C7E",
"n@	c #039680",
"o@	c #028780",
"p@	c #027B81",
"q@	c #038285",
"r@	c #039387",
"s@	c #039587",
"t@	c #027C79",
"u@	c #006FB4",
"v@	c #0174AB",
"w@	c #017BA3",
"x@	c #02839B",
"y@	c #028897",
"z@	c #028A94",
"A@	c #028B92",
"B@	c #028493",
"C@	c #027C96",
"D@	c #027998",
"E@	c #028197",
"F@	c #01829D",
"G@	c #016B89",
"H@	c #0070B4",
"I@	c #0071B3",
"J@	c #0074B0",
"K@	c #0174AF",
"L@	c #006DB7",
"M@	c #005A98",
"N@	c #001523",
"O@	c #001625",
"                                            . + @                 ",
"                                          # $ % &                 ",
"                                          * = - ; >               ",
"                                        ,           ' )           ",
"                                    ! ~ {   ] ] ]   - ^ / ,       ",
"                                ( - _ _ -   ] : ]   - _ _ - (     ",
"                                  , / ^ -   ] ] ]   { ~ !         ",
"                                      ) '   < [ }   ,             ",
"                                          | 1 2 3                 ",
"                                        4 5 1 6 7 8               ",
"        ] ] ]                         } 9 0 1 1 a b               ",
"        ] : ]                       c d e 0 1 6 f g h ] ] ]       ",
"        ] i ] j j j j j j j j j j k l m n o p q r s t ] : ]       ",
"        u j j j j j j j j j v w x y z A B C D E F G H ] ] ]       ",
"        I j j j J K k L M N O P Q R S T U V W X Y Z `  ...        ",
"        +.j j @.#.$.%.&.*.=.-.;.>.,.'.).!.~.{.].^./.(._.:.        ",
"        <.j [.}.|.$.1.2.3.4.5.6.7.8.9.0.a.b.c.d.e.f.g.h.i.        ",
"        j.k.l.}.m.n.o.p.q.r.s.t.u.v.w.x.y.z.A.B.C.D.E.F.G.        ",
"        H.I.J.K.L.M.N.O.P.Q.R.S.T.U.V.W.X.Y.Z.`. +.+++@+#+        ",
"      $+j I.%+&+*+=+-+;+>+,+'+)+!+~+{+]+^+/+(+_+:+<+[+}+|+        ",
"      1+j k.2+3+4+5+6+7+8+9+0+a+b+c+d+e+f+g+h+i+j+k+l+m+n+        ",
"      u j j o+p+q+r+s+t+u+&.v+w+x+y+z+A+B+C+D+E+F+G+H+I+J+        ",
"      I j j I.J.K+L+M+L N+O+P+Q+R+S+T+U+V+W+X+Y+Z+`+ @.@+@        ",
"      +.j j j @@#@}.$@%@&@*@=@-@;@>@,@'@)@!@~@{@]@&.8+^@/@        ",
"      <.j j j j (@_@:@<@[@}@|@1@2@N+3@3@4@%.5@6@7@8@N+9@0@        ",
"      a@j j j j j b@c@d@e@f@g@h@i@j@k@l@m@l@n@o@p@q@r@s@t@        ",
"      H.j j j j j j j u@v@w@x@y@}.}.z@k z@k A@B@C@D@E@F@G@        ",
"    $+j j j j j j j j j j j j k.H@I@J@J@K@J@J@H@H@u@L@j M@        ",
"  ] ] ] j j j j j j j j j j j j j j j j j j j j j j j ] ] ]       ",
"  ] : ]                               N@O@O@O@O@O@O@O@] : ]       ",
"  ] ] ]                                               ] ] ]       ",
"                                                                  ",
"                                                                  "};
