/* XPM */
static char * out_blurPointAttribute_xpm[] = {
"33 33 311 2",
"  	c #000000",
". 	c #050100",
"+ 	c #FF5555",
"@ 	c #AA5500",
"# 	c #00AA00",
"$ 	c #55FF55",
"% 	c #AA0000",
"& 	c #F75851",
"* 	c #AA5601",
"= 	c #D8B22F",
"- 	c #C46F1A",
"; 	c #C6711C",
"> 	c #C5701C",
", 	c #0FA403",
"' 	c #AA640B",
") 	c #EBD141",
"! 	c #CE9D24",
"~ 	c #D9B32F",
"{ 	c #D0A126",
"] 	c #B26E1B",
"^ 	c #8B4110",
"/ 	c #0BA401",
"( 	c #D5CD3B",
"_ 	c #CF9E25",
": 	c #D9B22F",
"< 	c #C78D23",
"[ 	c #B16B1B",
"} 	c #954D13",
"| 	c #C89F24",
"1 	c #CF9D27",
"2 	c #C68C23",
"3 	c #B5741D",
"4 	c #985315",
"5 	c #AF1005",
"6 	c #D2A329",
"7 	c #CF9C27",
"8 	c #C78E23",
"9 	c #B7761D",
"0 	c #995515",
"a 	c #B32D09",
"b 	c #D19F27",
"c 	c #D19D27",
"d 	c #CE9826",
"e 	c #C68B23",
"f 	c #B6731D",
"g 	c #995315",
"h 	c #BD4213",
"i 	c #CE9224",
"j 	c #CE9124",
"k 	c #CE9225",
"l 	c #CB8D23",
"m 	c #C38020",
"n 	c #B36A1A",
"o 	c #974D13",
"p 	c #C8781E",
"q 	c #CA7D1F",
"r 	c #C97E20",
"s 	c #C6791E",
"t 	c #BF6E1C",
"u 	c #AF5B17",
"v 	c #F0DB46",
"w 	c #C5701B",
"x 	c #B6661A",
"y 	c #A75216",
"z 	c #AE5D17",
"A 	c #A25714",
"B 	c #A65015",
"C 	c #A85316",
"D 	c #F5EC4B",
"E 	c #C87B1E",
"F 	c #C15D17",
"G 	c #853C15",
"H 	c #873710",
"I 	c #913910",
"J 	c #943B0F",
"K 	c #8F380D",
"L 	c #8D320E",
"M 	c #82280F",
"N 	c #7E2113",
"O 	c #CF9424",
"P 	c #C26118",
"Q 	c #7A3C0F",
"R 	c #7E2F0C",
"S 	c #80290B",
"T 	c #83240A",
"U 	c #822409",
"V 	c #781A08",
"W 	c #751B0B",
"X 	c #70180C",
"Y 	c #F0DA46",
"Z 	c #D29F27",
"` 	c #CA7E1F",
" .	c #C36419",
"..	c #743B0C",
"+.	c #7A2D0A",
"@.	c #7D2609",
"#.	c #7E2007",
"$.	c #7B1B06",
"%.	c #751807",
"&.	c #6E1507",
"*.	c #691308",
"=.	c #D3A429",
"-.	c #D29E27",
";.	c #CF9324",
">.	c #CA7F20",
",.	c #C36519",
"'.	c #733B0B",
").	c #772D09",
"!.	c #7A2207",
"~.	c #7A1D07",
"{.	c #761806",
"].	c #701606",
"^.	c #6B1407",
"/.	c #681307",
"(.	c #D1A027",
"_.	c #D19A26",
":.	c #CE8F24",
"<.	c #C97D1F",
"[.	c #753D0E",
"}.	c #77300B",
"|.	c #782708",
"1.	c #762107",
"2.	c #731D07",
"3.	c #6F1B07",
"4.	c #6C1909",
"5.	c #6B180B",
"6.	c #CE9424",
"7.	c #CF9225",
"8.	c #CC8621",
"9.	c #C8771D",
"0.	c #C36218",
"a.	c #7A4012",
"b.	c #78360E",
"c.	c #75300A",
"d.	c #712A08",
"e.	c #6D2708",
"f.	c #6C240A",
"g.	c #6E220D",
"h.	c #732111",
"i.	c #C8761D",
"j.	c #C56C1B",
"k.	c #783E12",
"l.	c #71390D",
"m.	c #6B360A",
"n.	c #68330A",
"o.	c #6A300D",
"p.	c #702D12",
"q.	c #F0D946",
"r.	c #B86A1B",
"s.	c #A45716",
"t.	c #AF6318",
"u.	c #AC6318",
"v.	c #A15916",
"w.	c #9F5615",
"x.	c #AF5F18",
"y.	c #F95452",
"z.	c #794814",
"A.	c #734610",
"B.	c #6D440D",
"C.	c #6A410D",
"D.	c #6B3D10",
"E.	c #723915",
"F.	c #F5EB4B",
"G.	c #C87A1E",
"H.	c #903917",
"I.	c #8E3A11",
"J.	c #8E3E10",
"K.	c #944410",
"L.	c #92460F",
"M.	c #8E4310",
"N.	c #8E4611",
"O.	c #8A4611",
"P.	c #7F4616",
"Q.	c #7A4A15",
"R.	c #7A4913",
"S.	c #784810",
"T.	c #74450F",
"U.	c #70420F",
"V.	c #6F3D10",
"W.	c #703813",
"X.	c #753416",
"Y.	c #F5EA4B",
"Z.	c #D09625",
"`.	c #8D3211",
" +	c #882D0E",
".+	c #822B0B",
"++	c #832E0A",
"@+	c #802E09",
"#+	c #82320B",
"$+	c #7E330B",
"%+	c #79390D",
"&+	c #74420F",
"*+	c #754A11",
"=+	c #794A11",
"-+	c #7B4810",
";+	c #794510",
">+	c #764110",
",+	c #713C10",
"'+	c #6D3610",
")+	c #6C3211",
"!+	c #EED544",
"~+	c #CF9F25",
"{+	c #D2A028",
"]+	c #C97E1F",
"^+	c #8A2D0D",
"/+	c #87290B",
"(+	c #832409",
"_+	c #812208",
":+	c #7F2307",
"<+	c #7F2508",
"[+	c #7B2C09",
"}+	c #76340B",
"|+	c #6F3F0C",
"1+	c #704A0F",
"2+	c #764A10",
"3+	c #7B4510",
"4+	c #764010",
"5+	c #703B0F",
"6+	c #6B350E",
"7+	c #66300E",
"8+	c #D2A429",
"9+	c #872A0C",
"0+	c #84240A",
"a+	c #811F08",
"b+	c #7F1B07",
"c+	c #7D1B07",
"d+	c #7B1E07",
"e+	c #772508",
"f+	c #713009",
"g+	c #6A3C0A",
"h+	c #6B490D",
"i+	c #73480F",
"j+	c #784610",
"k+	c #794310",
"l+	c #743F10",
"m+	c #6E3A0F",
"n+	c #68340D",
"o+	c #62300D",
"p+	c #D0A028",
"q+	c #85280D",
"r+	c #80220A",
"s+	c #7C1C07",
"t+	c #791806",
"u+	c #771706",
"v+	c #761A06",
"w+	c #732207",
"x+	c #6D2C09",
"y+	c #68390A",
"z+	c #69460D",
"A+	c #70450F",
"B+	c #734310",
"C+	c #734010",
"D+	c #703C0F",
"E+	c #6A380E",
"F+	c #65330E",
"G+	c #612E0E",
"H+	c #C99224",
"I+	c #C78F24",
"J+	c #BE6F1B",
"K+	c #842710",
"L+	c #7D210C",
"M+	c #771B08",
"N+	c #731607",
"O+	c #701505",
"P+	c #701706",
"Q+	c #6F1F08",
"R+	c #6D290A",
"S+	c #6A350D",
"T+	c #6B4210",
"U+	c #6E4010",
"V+	c #703E10",
"W+	c #6D3B0F",
"X+	c #6B380F",
"Y+	c #67340F",
"Z+	c #653010",
"`+	c #642D11",
" @	c #C5711C",
".@	c #B6711B",
"+@	c #B06B1B",
"@@	c #B6761D",
"#@	c #862816",
"$@	c #7C210F",
"%@	c #73190A",
"&@	c #6D1407",
"*@	c #6A1305",
"=@	c #6A1506",
"-@	c #6C1C09",
";@	c #6E260D",
">@	c #703113",
",@	c #723D15",
"'@	c #703C13",
")@	c #6C3910",
"!@	c #68360F",
"~@	c #682E13",
"{@	c #6D2D16",
"]@	c #8A4010",
"^@	c #944D13",
"/@	c #985215",
"(@	c #964C13",
"_@	c #7C2113",
":@	c #70190C",
"<@	c #641106",
"[@	c #651307",
"}@	c #6B1A0B",
"|@	c #732412",
"1@	c #733616",
"2@	c #6B3312",
"3@	c #64300F",
"4@	c #622E0E",
"5@	c #652D11",
"6@	c #6D2E16",
"                                                                . ",
"  + + +             + + +               + + +             + + +   ",
"  + @ + # # # # # # + @ + # # # # # # # + @ + # # # # # # + @ +   ",
"  + + + $ @ $ @ $ @ + + + % % % % % % % + + & * = - ; ; > + + +   ",
"    # $ @ $ @ $ @ $ @ # % % % % % % % % % , ' ) ! ~ { = ] ^ #     ",
"    # @ $ @ $ @ $ @ $ # % % % % % % % % % / ( _ ~ { : < [ } #     ",
"    # $ @ $ @ $ @ $ @ # % % % % % % % % % # | ~ { ~ 1 2 3 4 #     ",
"    # @ $ @ $ @ $ @ $ # % % % % % % % % 5 # ~ { ~ 6 7 8 9 0 #     ",
"    # $ @ $ @ $ @ $ @ # % % % % % % % % a # { : b c d e f g #     ",
"    # @ $ @ $ @ $ @ $ # % % % % % % % % h # : i j k l m n o #     ",
"  + + + @ $ @ $ @ $ + + + % % % % % % % + + + p q r s t u + + +   ",
"  + @ + # # # # # # + @ + # # # # # # # + @ + # # # # # # + @ +   ",
"  + + + % % % % % % + + + $ @ v w ; ; ; + + + x y z A B C + + +   ",
"    # % % % % % % % % # $ @ D _ ~ { ~ E F # G H I J K L M N #     ",
"    # % % % % % % % % # @ D _ ~ { ~ O p P # Q R S T U V W X #     ",
"    # % % % % % % % % # Y _ ~ { ~ Z j `  .# ..+.@.#.$.%.&.*.#     ",
"    # % % % % % % % % # w ~ { ~ =.-.;.>.,.# '.).!.~.{.].^./.#     ",
"    # % % % % % % % % # ; { ~ (.-._.:.<. .# [.}.|.1.2.3.4.5.#     ",
"    # % % % % % % % % # ; ~ 6.j 7.:.8.9.0.# a.b.c.d.e.f.g.h.#     ",
"  + + + % % % % % % + + + E p ` >.<.i.j.+ + + k.l.m.n.o.p.+ + +   ",
"  + @ + # # # # # # + @ + # # # # # # # + @ + # # # # # # + @ +   ",
"  + + + $ @ q.w ; ; + + + r.s.t.u.v.w.x.y.+ + z.A.B.C.D.E.+ + +   ",
"    # $ @ F._ ~ { ~ G.# H.I.J.K.L.M.N.O.P.# Q.R.S.T.U.V.W.X.#     ",
"    # @ Y._ ~ { ~ Z.p # `. +.+++@+#+$+%+&+# *+=+-+;+>+,+'+)+#     ",
"    # !+~+~ { ~ {+j ]+# ^+/+(+_+:+<+[+}+|+# 1+2+-+3+4+5+6+7+#     ",
"    # w ~ { ~ 8+c i ]+# 9+0+a+b+c+d+e+f+g+# h+i+j+k+l+m+n+o+#     ",
"    # ; { ~ p+7 d l s # q+r+s+t+u+v+w+x+y+# z+A+B+C+D+E+F+G+#     ",
"    # ; : H+2 I+e m J+# K+L+M+N+O+P+Q+R+S+# T+U+V+W+X+Y+Z+`+#     ",
"    #  @.@+@3 @@f n u # #@$@%@&@*@=@-@;@>@# ,@'@)@!@F+Z+~@{@#     ",
"  + + + ]@^@4 0 /@(@+ + + _@:@/.<@[@}@|@+ + + 1@2@3@4@5@6@+ + +   ",
"  + @ + # # # # # # + @ + # # # # # # # + @ + # # # # # # + @ +   ",
"  + + +             + + +               + + +             + + +   ",
"                                                                  "};
