/* XPM */
static char * out_cocoon_xpm[] = {
"33 33 266 2",
"  	c #000000",
". 	c #FFFF00",
"+ 	c #A0410D",
"@ 	c #C3BB02",
"# 	c #A8A101",
"$ 	c #090300",
"% 	c #1A0900",
"& 	c #2B0F00",
"* 	c #3C1600",
"= 	c #4C1B00",
"- 	c #5A2000",
"; 	c #672500",
"> 	c #742900",
", 	c #802E00",
"' 	c #893100",
") 	c #953500",
"! 	c #9D3800",
"~ 	c #E9D803",
"{ 	c #F1CC02",
"] 	c #E55500",
"^ 	c #E15300",
"/ 	c #DC4F00",
"( 	c #D84D00",
"_ 	c #D54C00",
": 	c #D14B00",
"< 	c #CD4900",
"[ 	c #C84800",
"} 	c #C44600",
"| 	c #BD4400",
"1 	c #B84200",
"2 	c #B13F00",
"3 	c #AA3D00",
"4 	c #A13A00",
"5 	c #220C00",
"6 	c #DC5900",
"7 	c #E47B00",
"8 	c #D17700",
"9 	c #EE8B00",
"0 	c #D57C00",
"a 	c #895000",
"b 	c #221400",
"c 	c #0A0400",
"d 	c #D94E00",
"e 	c #5E2200",
"f 	c #A83E00",
"g 	c #DA7700",
"h 	c #824C00",
"i 	c #180E00",
"j 	c #CC7700",
"k 	c #E38400",
"l 	c #CE7800",
"m 	c #834C00",
"n 	c #241500",
"o 	c #321200",
"p 	c #D04B00",
"q 	c #B54100",
"r 	c #070300",
"s 	c #010000",
"t 	c #652400",
"u 	c #DB4E00",
"v 	c #8F3300",
"w 	c #703400",
"x 	c #F58F00",
"y 	c #160D00",
"z 	c #251500",
"A 	c #864E00",
"B 	c #DF8200",
"C 	c #C87400",
"D 	c #DCC802",
"E 	c #C7AD01",
"F 	c #CE4A00",
"G 	c #A83F00",
"H 	c #412400",
"I 	c #4D2D00",
"J 	c #5C3600",
"K 	c #6B3E00",
"L 	c #784600",
"M 	c #A05400",
"N 	c #7E2D00",
"O 	c #4E1C00",
"P 	c #AE6600",
"Q 	c #D17A00",
"R 	c #0C0700",
"S 	c #2B1900",
"T 	c #8B5100",
"U 	c #EDDA03",
"V 	c #E86E00",
"W 	c #E48500",
"X 	c #E08200",
"Y 	c #DC8000",
"Z 	c #D77D00",
"` 	c #D27B00",
" .	c #CB7700",
"..	c #C57300",
"+.	c #BF6F00",
"@.	c #6C2700",
"#.	c #612300",
"$.	c #E28400",
"%.	c #050300",
"&.	c #643A00",
"*.	c #A35F00",
"=.	c #8C5200",
"-.	c #844D00",
";.	c #523000",
">.	c #CF7900",
",.	c #7B4800",
"'.	c #582000",
").	c #732900",
"!.	c #3F2500",
"~.	c #AD6500",
"{.	c #211300",
"].	c #1F1200",
"^.	c #603800",
"/.	c #B26800",
"(.	c #201300",
"_.	c #441800",
":.	c #842F00",
"<.	c #A15E00",
"[.	c #D97E00",
"}.	c #A96200",
"|.	c #935600",
"1.	c #623900",
"2.	c #945600",
"3.	c #010100",
"4.	c #0A0600",
"5.	c #E88800",
"6.	c #231400",
"7.	c #301100",
"8.	c #933500",
"9.	c #150C00",
"0.	c #EFD302",
"a.	c #DEC101",
"b.	c #A45F00",
"c.	c #6F4100",
"d.	c #080500",
"e.	c #C47200",
"f.	c #2D1A00",
"g.	c #975800",
"h.	c #9B5A00",
"i.	c #060300",
"j.	c #E88700",
"k.	c #A23A00",
"l.	c #EBD803",
"m.	c #F1CD02",
"n.	c #B66300",
"o.	c #6C3F00",
"p.	c #472900",
"q.	c #020100",
"r.	c #9A5A00",
"s.	c #090500",
"t.	c #462900",
"u.	c #AC3E00",
"v.	c #030100",
"w.	c #774500",
"x.	c #E66400",
"y.	c #E05000",
"z.	c #994D00",
"A.	c #A56000",
"B.	c #C97500",
"C.	c #C27100",
"D.	c #A05D00",
"E.	c #7D4900",
"F.	c #EDD603",
"G.	c #CD7800",
"H.	c #653B00",
"I.	c #AB3D00",
"J.	c #0F0500",
"K.	c #BC6E00",
"L.	c #A66100",
"M.	c #8C3200",
"N.	c #391400",
"O.	c #B86B00",
"P.	c #F79000",
"Q.	c #E68600",
"R.	c #C07000",
"S.	c #9C3800",
"T.	c #270E00",
"U.	c #040200",
"V.	c #4B2B00",
"W.	c #853000",
"X.	c #DF5000",
"Y.	c #280E00",
"Z.	c #412600",
"`.	c #BE6F00",
" +	c #B16700",
".+	c #A86200",
"++	c #3A1500",
"@+	c #3B2200",
"#+	c #E78600",
"$+	c #903300",
"%+	c #CF4A00",
"&+	c #451900",
"*+	c #291800",
"=+	c #DA7F00",
"-+	c #7A2C00",
";+	c #985900",
">+	c #863200",
",+	c #673C00",
"'+	c #F18D00",
")+	c #130B00",
"!+	c #692600",
"~+	c #7E4900",
"{+	c #D37B00",
"]+	c #362000",
"^+	c #561F00",
"/+	c #1A0F00",
"(+	c #271700",
"_+	c #0F0900",
":+	c #B36800",
"<+	c #EA8900",
"[+	c #683C00",
"}+	c #ED8A00",
"|+	c #431800",
"1+	c #832F00",
"2+	c #693D00",
"3+	c #4F2E00",
"4+	c #AF6600",
"5+	c #993700",
"6+	c #DD8100",
"7+	c #4A2B00",
"8+	c #2E1000",
"9+	c #923400",
"0+	c #B46900",
"a+	c #563200",
"b+	c #894E00",
"c+	c #6E2700",
"d+	c #B64100",
"e+	c #C64700",
"f+	c #782B00",
"g+	c #180900",
"h+	c #A03900",
"i+	c #512F00",
"j+	c #734300",
"k+	c #F68F00",
"l+	c #974500",
"m+	c #632300",
"n+	c #060200",
"o+	c #BA4600",
"p+	c #DD7600",
"q+	c #D14D00",
"r+	c #7D2D00",
"s+	c #050200",
"t+	c #260E00",
"u+	c #481A00",
"v+	c #8A3200",
"w+	c #AC3D00",
"x+	c #E76100",
"y+	c #DB5100",
"z+	c #A33A00",
"A+	c #391500",
"B+	c #762A00",
"C+	c #943500",
"D+	c #B24000",
"E+	c #C54600",
"F+	c #722900",
"G+	c #511D00",
"H+	c #0D0500",
"I+	c #D24B00",
"J+	c #BF4400",
"K+	c #AF3F00",
"L+	c #7C2C00",
"M+	c #5F2200",
"N+	c #411700",
"O+	c #1F0B00",
"P+	c #040100",
"Q+	c #0E0500",
"                                                                  ",
"                                                                  ",
"                                      . . . . .                   ",
"                                      . + + + .                   ",
"      @ #     $ % & * = - ; > , ' ) ! . + + + .                   ",
"      ~ { ] ^ / ( _ : < [ } | 1 2 3 4 . + + + . 5                 ",
"        6 7 8 9 0 a b               c . . . . . d e               ",
"        f g h i h j k l m n       o p q r     s t u . . .         ",
"        v w x y     z A j B C D E F G H I J K L A M . + .         ",
"        N O P Q R         S T U { V W X Y Z `  ...+.. . .         ",
"        @.#.  $.T         %.&.*.=.-.              ;.>.Z ,.        ",
"        '.).  ;.Y !.    %.T ~.{.R W ].          ^./.(.Y ;.        ",
"        _.:.    <.[.  y }.|.      1.2.3.    4.-.}.b   5.6.        ",
"        7.8.    9.0.a.b.c.d.        e.f.    g.h.i.  y j.i.        ",
"        % k.      l.m.n.o.p.{.q.    ;.r.].P a s.    t.X           ",
"        r u.v.    w.x.y.z.A.B.$.C.D.E.F.G.H.3.      c.Q           ",
"          I.J.    K.L.M.[ N.  i.S ;.O.P.Q.S         |.R.          ",
"          S.T.  U.X V.  W.X.Y.  U.g.[.Z.`.R.         +.+          ",
"          M.++  @+#+    q.$+%+&+R.j.Z.  *+=+o.      B.a           ",
"          -+O   ;+C.        >+. . . . .   ,+'+)+    =+&.          ",
"          !+#.  j ~+      *+{+. + + + .   U.+.C     #+]+          ",
"          ^+)./+X (+    _+#+:+. + + + .       <+[+i.}+4.          ",
"          |+1+2+0     3+5.4+$ . + + + . 5+&   K 6+7+#+            ",
"          8+9+0+L.  a+B b+c+F . . . . . d+( e+f+. . .             ",
"          g+h+6+i+j+k+l+e+p m+            g+-+} . + .             ",
"          n+o+X 2.p+q+X.r+      s+t+u+!+v+w+< e+. . .             ",
"          . . . x+y+z+A+^+B+C+D+E+w+v F+G+7.H+                    ",
"          . + . I+J+K+5+L+M+N+O+P+                                ",
"          . . . 7.Q+q.                                            ",
"                                                                  ",
"                                                                  ",
"                                                                  ",
"                                                                  "};
