/* XPM */
static char * out_transformToArray_xpm[] = {
"33 33 154 2",
"  	c #000000",
". 	c #010000",
"+ 	c #020000",
"@ 	c #030000",
"# 	c #C27317",
"$ 	c #060000",
"% 	c #0A0000",
"& 	c #0C0000",
"* 	c #0B0000",
"= 	c #080000",
"- 	c #050000",
"; 	c #CBFB01",
"> 	c #E9FB01",
", 	c #94FA01",
"' 	c #21C008",
") 	c #070000",
"! 	c #EC5104",
"~ 	c #E44C03",
"{ 	c #DF4903",
"] 	c #E14A03",
"^ 	c #E24A03",
"/ 	c #E04903",
"( 	c #E84F03",
"_ 	c #F05404",
": 	c #040000",
"< 	c #D3FF00",
"[ 	c #EBFF00",
"} 	c #A9FF00",
"| 	c #26B50A",
"1 	c #DB5E03",
"2 	c #F0B403",
"3 	c #CB3B03",
"4 	c #CC3B03",
"5 	c #DB6E03",
"6 	c #E79603",
"7 	c #DA4503",
"8 	c #E84E03",
"9 	c #48FF00",
"0 	c #5CFF00",
"a 	c #29E703",
"b 	c #098F10",
"c 	c #100000",
"d 	c #D74303",
"e 	c #D25F02",
"f 	c #F9D203",
"g 	c #CC6402",
"h 	c #B52B02",
"i 	c #B52C02",
"j 	c #E7A503",
"k 	c #F0BC03",
"l 	c #CE3D03",
"m 	c #090000",
"n 	c #00E504",
"o 	c #00C108",
"p 	c #008F0F",
"q 	c #026D14",
"r 	c #130000",
"s 	c #D13E03",
"t 	c #D77B02",
"u 	c #D88B03",
"v 	c #E1A202",
"w 	c #A11E01",
"x 	c #AD3701",
"y 	c #DC9702",
"z 	c #F8D203",
"A 	c #C63702",
"B 	c #DD4703",
"C 	c #BA8C13",
"D 	c #C08A13",
"E 	c #B18813",
"F 	c #A07F15",
"G 	c #140000",
"H 	c #D88403",
"I 	c #B94F02",
"J 	c #EAB803",
"K 	c #9C2201",
"L 	c #D08602",
"M 	c #B14101",
"N 	c #E8AE03",
"O 	c #FDDD03",
"P 	c #CEF202",
"Q 	c #ECF202",
"R 	c #99F202",
"S 	c #2ABE08",
"T 	c #D23F03",
"U 	c #DB8503",
"V 	c #BD5102",
"W 	c #C87102",
"X 	c #BD6202",
"Y 	c #E4AC02",
"Z 	c #A31F01",
"` 	c #E9AF03",
" .	c #C83802",
"..	c #DF4803",
"+.	c #D6FF00",
"@.	c #EDFF00",
"#.	c #ACFF00",
"$.	c #27B60A",
"%.	c #110000",
"&.	c #D94403",
"*.	c #E39303",
"=.	c #C65802",
"-.	c #B63D02",
";.	c #ECB903",
">.	c #D78B02",
",.	c #B02802",
"'.	c #ECB103",
").	c #D34803",
"!.	c #E34B03",
"~.	c #4FFF00",
"{.	c #65FF00",
"].	c #2EEA03",
"^.	c #0A910F",
"/.	c #0E0000",
"(.	c #F1B503",
"_.	c #D36102",
":.	c #C13402",
"<.	c #C54702",
"[.	c #C43602",
"}.	c #E46B03",
"|.	c #00E603",
"1.	c #00C308",
"2.	c #00900F",
"3.	c #026D15",
"4.	c #DC4603",
"5.	c #D44103",
"6.	c #DB4503",
"7.	c #B88E12",
"8.	c #BE8B13",
"9.	c #AF8913",
"0.	c #9E7F15",
"a.	c #F45704",
"b.	c #EE5304",
"c.	c #E94F03",
"d.	c #EB5003",
"e.	c #ED5204",
"f.	c #F25504",
"g.	c #F65804",
"h.	c #CDEC03",
"i.	c #EBEC03",
"j.	c #9AEC03",
"k.	c #31BA09",
"l.	c #D8FF00",
"m.	c #EFFF00",
"n.	c #AEFF00",
"o.	c #28B70A",
"p.	c #55FF00",
"q.	c #6CFF00",
"r.	c #33EB02",
"s.	c #0B920F",
"t.	c #00EA03",
"u.	c #00CD07",
"v.	c #009D0D",
"w.	c #037414",
"                                                                  ",
"                                                                  ",
"                                                                  ",
"    . + @ @ @ @ @ @ @ + .             # # # # # # # # # # #       ",
"    @ $ % & % % % * * = - +           # ; > , ' # ; > , ' #       ",
"  . ) ! ~ { ] ^ ^ / / ( _ :           # < [ } | # < [ } | #       ",
"  @ & / 1 2 3 3 4 5 6 7 8 $           # 9 0 a b # 9 0 a b #       ",
"  : c d e f g h i j k l ] m           # n o p q # n o p q #       ",
"  $ r s t u v w x y z A B *           # C D E F # C D E F #       ",
"  ) G l H I J K L M N O O O O O O     # P Q R S # P Q R S #       ",
"  ) r T U V W X Y Z `  ...&     O     # +.@.#.$.# +.@.#.$.#       ",
"  ) %.&.*.=.-.;.>.,.'.).!.* .   O     # ~.{.].^.# ~.{.].^.#       ",
"  $ /.] (._.:.k <.[.2 }.( m .   O     # |.1.2.3.# |.1.2.3.#       ",
"  : = ! ] 4.7 5.d 6.B 8 _ $ .   O     # 7.8.9.0.# 7.8.9.0.#       ",
"  + - a.b.! ! c.d.! e.f.g.@     O     # h.i.j.k.# h.i.j.k.#       ",
"    . + : - - - - : - @ + .     O O O # l.m.n.o.# l.m.n.o.#       ",
"    . + @ @ @ @ @ @ @ + .       O     # p.q.r.s.# p.q.r.s.#       ",
"    @ $ % & % % % * * = - +     O     # t.u.v.w.# t.u.v.w.#       ",
"  . ) ! ~ { ] ^ ^ / / ( _ :     O     # # # # # # # # # # #       ",
"  @ & / 1 2 3 3 4 5 6 7 8 $     O     # ; > , ' # ; > , ' #       ",
"  : c d e f g h i j k l ] m     O     # < [ } | # < [ } | #       ",
"  $ r s t u v w x y z A B *     O     # 9 0 a b # 9 0 a b #       ",
"  ) G l H I J K L M N O O O O O O     # n o p q # n o p q #       ",
"  ) r T U V W X Y Z `  ...&           # C D E F # C D E F #       ",
"  ) %.&.*.=.-.;.>.,.'.).!.* .         # P Q R S # P Q R S #       ",
"  $ /.] (._.:.k <.[.2 }.( m .         # +.@.#.$.# +.@.#.$.#       ",
"  : = ! ] 4.7 5.d 6.B 8 _ $ .         # ~.{.].^.# ~.{.].^.#       ",
"  + - a.b.! ! c.d.! e.f.g.@           # |.1.2.3.# |.1.2.3.#       ",
"    . + : - - - - : - @ + .           # # # # # # # # # # #       ",
"                                                                  ",
"                                                                  ",
"                                                                  ",
"                                                                  "};
