/* XPM */
static char * SOuP_smooth_xpm[] = {
"33 33 5 1",
" 	c #000000",
".	c #FF5555",
"+	c #FFFF55",
"@	c #55FF55",
"#	c #00AA00",
"                                 ",
"               ...               ",
"               .+.               ",
"               ...               ",
"               @#@               ",
"              @# #@              ",
"              @   @              ",
"             @#   #@             ",
"             @# + #@             ",
"            @#  +  #@            ",
"            @#  +  #@            ",
"           @#   +   #@           ",
"           @#   +   #@           ",
"          @#    +    #@          ",
" ...    ...     +     ...    ... ",
" .+.@@@@.+.     +     .+.@@@@.+. ",
" ...####...     +     ...####... ",
"              + + +              ",
"               +++               ",
"      +        +++        +      ",
"      +         +         +      ",
"      +                   +      ",
"    + + +               + + +    ",
"     +++       ...       +++     ",
"     +++       .+.       +++     ",
"      +       @...@       +      ",
"            @@#####@@            ",
" ...    ...@##     ##@...    ... ",
" .+.@@@@.+.#         #.+.@@@@.+. ",
" ...####...           ...####... ",
"                                 ",
"                                 ",
"                                 "};
