/* XPM */
static char * pointCloudParticleEmitter_xpm[] = {
"33 33 147 2",
"  	c #000000",
". 	c #FF344B",
"+ 	c #A0FF00",
"@ 	c #FF1AC7",
"# 	c #A0770D",
"$ 	c #4E7D00",
"% 	c #FFFF00",
"& 	c #4E3A06",
"* 	c #A0410D",
"= 	c #FF6600",
"- 	c #A00D31",
"; 	c #940020",
"> 	c #650057",
", 	c #0B220E",
"' 	c #226C2C",
") 	c #34A743",
"! 	c #3AB54B",
"~ 	c #3FB14F",
"{ 	c #3F974A",
"] 	c #183E1E",
"^ 	c #060906",
"/ 	c #17471E",
"( 	c #2E903C",
"_ 	c #38B549",
": 	c #45B955",
"< 	c #5EC46C",
"[ 	c #64BF6F",
"} 	c #31703B",
"| 	c #121C13",
"1 	c #010201",
"2 	c #E1FF70",
"3 	c #2B9038",
"4 	c #32AE43",
"5 	c #38B249",
"6 	c #66C773",
"7 	c #A2DEA9",
"8 	c #A4DFAB",
"9 	c #7CD086",
"0 	c #314A35",
"a 	c #060806",
"b 	c #FFAB42",
"c 	c #60941E",
"d 	c #9BEF30",
"e 	c #0D7A1D",
"f 	c #0F801F",
"g 	c #35A744",
"h 	c #77D182",
"i 	c #A6E0AD",
"j 	c #A1DEA9",
"k 	c #89D593",
"l 	c #39523C",
"m 	c #090D0A",
"n 	c #A4FD33",
"o 	c #A5FF33",
"p 	c #077116",
"q 	c #026D11",
"r 	c #289B37",
"s 	c #60C96E",
"t 	c #85D390",
"u 	c #94D89C",
"v 	c #68C876",
"w 	c #314B35",
"x 	c #030403",
"y 	c #2B8838",
"z 	c #37B048",
"A 	c #3DB24E",
"B 	c #40984B",
"C 	c #122C16",
"D 	c #036B11",
"E 	c #00660E",
"F 	c #239733",
"G 	c #4AC45A",
"H 	c #54C364",
"I 	c #5AC269",
"J 	c #3EB44D",
"K 	c #283F2B",
"L 	c #39B54A",
"M 	c #8DD696",
"N 	c #9CDCA4",
"O 	c #63B26D",
"P 	c #040605",
"Q 	c #125C1C",
"R 	c #0B7219",
"S 	c #148224",
"T 	c #269D37",
"U 	c #2EA83F",
"V 	c #34AB45",
"W 	c #1F6E2A",
"X 	c #0D1B0F",
"Y 	c #198A28",
"Z 	c #57C165",
"` 	c #9EDDA6",
" .	c #86D291",
"..	c #040E06",
"+.	c #0D4C15",
"@.	c #025B0F",
"#.	c #066714",
"$.	c #157523",
"%.	c #1E6127",
"&.	c #091C0C",
"*.	c #087317",
"=.	c #44B953",
"-.	c #6FCA7C",
";.	c #89D492",
">.	c #5AC068",
",.	c #020302",
"'.	c #010501",
").	c #002506",
"!.	c #01410A",
"~.	c #06370D",
"{.	c #087017",
"].	c #077016",
"^.	c #35AF46",
"/.	c #3EB74F",
"(.	c #42B953",
"_.	c #2E8B3A",
":.	c #0B250E",
"<.	c #0A751A",
"[.	c #1A892A",
"}.	c #0B230E",
"|.	c #15421B",
"1.	c #2E913C",
"2.	c #40994C",
"3.	c #244B29",
"4.	c #030504",
"5.	c #000100",
"6.	c #010D02",
"7.	c #033B0B",
"8.	c #248A32",
"9.	c #46B855",
"0.	c #95D99D",
"a.	c #76B97E",
"b.	c #1A251B",
"c.	c #016B10",
"d.	c #3CAB4A",
"e.	c #8BD996",
"f.	c #77C883",
"g.	c #1F2C21",
"h.	c #0C6418",
"i.	c #1D8F2D",
"j.	c #3AB24B",
"k.	c #2D7D37",
"l.	c #09100A",
"m.	c #051307",
"n.	c #003E09",
"o.	c #0E4B16",
"p.	c #050F06",
"                                                                  ",
"              . . .                       + + +                   ",
"              . @ .                       + # +                   ",
"              . . .   $ $ $               + + +                   ",
"      % % %           $ & $                                       ",
"      % * %           $ $ $     = = =                             ",
"      % % %   = = =             = - =     % % %                   ",
"              = - =             = = =     % * %                   ",
"              = = =     ; ; ;             % % %                   ",
"                        ; > ;                                     ",
"      + + +             ; ; ;                                     ",
"      + # +   $ $ $                                               ",
"      + + +   $ & $                                               ",
"              $ $ $                             , ' ) ! ~ { ] ^   ",
"                                                / ( _ : < [ } | 1 ",
"    2 2 2                                       3 4 5 6 7 8 9 0 a ",
"    2 b 2         c d   d c                     e f g h i j k l m ",
"    2 2 2       c n o   o n c                   p q r s t u v w x ",
"                d o o   o o d     , y z A B C   D E F G H I J K   ",
"                                  y L : M N O P Q R S T U V W X   ",
"                d o o   o o d     e Y Z ` j  .m ..+.@.#.$.%.&.    ",
"                c n o   o n c     p *.=.-.;.>.,.  '.).!.~.        ",
"                  c d   d c       {.].^./.(._., ' ) ! ~ { ] ^     ",
"                                  :.R <.[.y }./ ( _ : < [ } | 1   ",
"          |.1.2.3.4.            5.  6.7.7.    3 4 5 6 7 8 9 0 a   ",
"          8.9.0.a.b.|.1.2.3.4., y z A B C     e f g h i j k l m   ",
"          c.d.e.f.g.8.9.0.a.b.y L : M N O P   p q r s t u v w x   ",
"          h.i.j.k.l.c.d.e.f.g.e Y Z ` j  .m   D E F G H I J K     ",
"          m.n.o.p.  h.i.j.k.l.p *.=.-.;.>.,.  Q R S T U V W X     ",
"                    m.n.o.p.  {.].^./.(._.    ..+.@.#.$.%.&.      ",
"                              :.R <.[.y }.      '.).!.~.          ",
"                                6.7.7.                            ",
"                                                                  "};
