/* XPM */
static char * SOuP_retarget_xpm[] = {
"33 33 7 1",
" 	c None",
".	c #000000",
"+	c #FF5555",
"@	c #AA5500",
"#	c #FFFF55",
"$	c #55FF55",
"%	c #00AA00",
".................................",
".................................",
".................................",
".................................",
"..................+..............",
".......+++.........+@..###.......",
".......+@+.+++++++++++.#@#.......",
"......$+++.........+@..###$......",
"....$$%@%$........+....$%@%$$....",
"...$@%@%@$.............$@%@%@$...",
".+++%@%@%$.............$%@%@%###.",
".+@+@%@%@$.............$@%@%@#@#.",
".+++%@%@%@$.....+.....$@%@%@%###.",
"...$@%@%@+++.....+@..###@%@%@$...",
"...$%@%@%+@+.+++++++.#@#%@%@%$...",
"...$@%@%$+++.....+@..###$%@%@$...",
"....$@$$%@$.....+.....$@%$$@$....",
"...+++@%@%@$.........$@%@%@###...",
"...+@+%@%@%$...+.....$%@%@%#@#...",
"...+++@%@%+++...+@..###%@%@###...",
".....$%@%@+@+.+++++.#@#@%@%$.....",
".....$@%@%+++...+@..###%@%@$.....",
".....$%@%$.....+.......$%@%$.....",
"......$%$...............$%$......",
".....+++.................###.....",
".....+@+.................#@#.....",
".....+++.................###.....",
".................................",
".................................",
".................................",
".................................",
".................................",
"................................."};
