/* XPM */
static char * SOuP_pointCloudFluidEmitter_xpm[] = {
"33 33 6 1",
" 	c None",
".	c #000000",
"+	c #AA5500",
"@	c #AA0000",
"#	c #FF5555",
"$	c #FFFF55",
".................................",
"..................+..............",
"..............+..+....+..........",
"..........+...+@++...+...........",
"..........+..@.@+@....+..........",
"..........++.@+@++@#.@++.........",
".........@@+#@++++@#..@+@........",
".........@++.#@++++#.+++@........",
"........@@+@@#@@+@+##@++@........",
".........++@@#@#@+++#++@.+.......",
".........@@+@@##++#+@+@.++.......",
"..........#++@##+@#+@@@.+@.......",
".........@#@+@##+@#++@@+@........",
".........@#@++#+#@+++@@@@.@......",
"........+@##++@+#@++#@@@++@......",
".......+++@++#++#@@+##@@+@@......",
".......+@+###++@##@++#@@+@++.....",
"......++@####++@##@#+##@@++......",
"......+@@##@#++@@@@#+#@@@+.......",
"......+@##@@##+@#@##@###@++......",
".....++@#@#@#@+@#@#@@##@@@+......",
".....+@@#@###@+####@@##@#@++.....",
".....+@#@####@##$$$#@####@++.....",
".....+@#@####@@#$+$#@$$$#@@+.....",
".....@@##$$$##@#$$$##$+$##@+.....",
".....@@##$+$#########$$$#@@+.....",
"......@##$$$#$$$#@#######@+......",
"......@@#####$+$#@$$$@#@@@.......",
".......@@##@#$$$@#$+$@+@++.......",
"........@#.@###..#$$$+.++........",
"............@#...@@..............",
".................................",
"................................."};
