/* XPM */
static char * SOuP_fluidAttributeToArray_xpm[] = {
"33 33 8 1",
" 	c None",
".	c #000000",
"+	c #FF5555",
"@	c #AA0000",
"#	c #00AA00",
"$	c #AA5500",
"%	c #FFFF55",
"&	c #55FF55",
"...............................+@",
"..............................+@.",
".............................+@..",
"..##############............+@...",
"..##.....$......#...@@@....+@....",
"..#.#.$.@+..+....#.@%%%@@.+@.....",
"..#..##############@%%%%%@@......",
"..#..#+..@+@.+@...#.@@%%%%@......",
"..#$.#@%.@++$@+.$.#...@@%%@......",
"..#+.#+@.+%@$++$..#...+@%%%@.....",
"..#.@#@%+$%+$+%+..#..+@@@%%@@....",
"..#.$#$+%+%$+%+@..#.+@@%%%%%%@...",
"..#.%#+%@+@%+%+@$.#+@..@%%%%@....",
"..#.$#+%%%+%%+@+..+@...@%%%%@....",
"..#.+#%%%%%%+%+@.+@.....@%%@.....",
"..#.@#+%%%%%%%@@+@......@%%@.....",
"..#..#@+%%%%%$.+@........@@......",
"...#.#.@+@+%$.+@.................",
"....##.......+@..................",
".....######.+@...................",
"..........$+@$$$$$$$$$$$$$$$$$...",
".........$+@&#$%%&#$%%&#$%%&#$...",
".........+@&&#$%&&#$%&&#$%&&#$...",
"........+@&&##$&&##$&&##$&&##$...",
".......+@$$$$$$$$$$$$$$$$$$$$$...",
"......+@.$%%&#$%%&#$%%&#$%%&#$...",
".....+@..$%&&#$%&&#$%&&#$%&&#$...",
"....+@...$&&##$&&##$&&##$&&##$...",
"...+@....$$$$$$$$$$$$$$$$$$$$$...",
"..+@.............................",
".+@..............................",
"+@...............................",
"@................................"};
