/* XPM */
static char * SOuP_tools_xpm[] = {
"33 33 4 1",
" 	c None",
".	c #000000",
"+	c #AA5500",
"@	c #AA0000",
".................................",
".................................",
".................................",
"......+++........................",
"......+.+++......................",
".......+.+.+.....................",
"...++...+.+.+....................",
"...+.+...+.++....................",
"...++.+..++.+....................",
"....++.+++.++....................",
"....+.+.+.+.++...................",
".....+.+.+.+.++..................",
"......+++++.@@++.................",
"..........++@@@++................",
"...........++@@@++...............",
"............++@@@++..............",
".............++@@@++.............",
"..............++@@@++............",
"...............++@@@++...........",
"................++@@.+++++.......",
".................++.+.+.+.+......",
"..................++.+.+.+.+.....",
"...................++.+++.++.....",
"...................+.++..+.++....",
"...................++.+...+.+....",
"...................+.+.+...++....",
"....................+.+.+........",
".....................+++.+.......",
".......................+++.......",
".................................",
".................................",
".................................",
"................................."};
