/* XPM */
static char * pointsOnMeshInfo_xpm[] = {
"33 33 53 1",
" 	c #000000",
".	c #FFFF00",
"+	c #A0410D",
"@	c #00FF00",
"#	c #0B7A0B",
"$	c #0C6E0C",
"%	c #000500",
"&	c #00FC00",
"*	c #0B710B",
"=	c #0B740B",
"-	c #0B770B",
";	c #00F900",
">	c #009600",
",	c #06AD06",
"'	c #0C690C",
")	c #0C650C",
"!	c #03D403",
"~	c #06B806",
"{	c #05C605",
"]	c #006900",
"^	c #001C00",
"/	c #01EF01",
"(	c #0C6A0C",
"_	c #0B720B",
":	c #0A850A",
"<	c #00FA00",
"[	c #0A840A",
"}	c #00E300",
"|	c #00B200",
"1	c #089D08",
"2	c #0C6D0C",
"3	c #02E602",
"4	c #07A407",
"5	c #03D603",
"6	c #004B00",
"7	c #0C610C",
"8	c #0B700B",
"9	c #0C6F0C",
"0	c #00EA00",
"a	c #0A800A",
"b	c #0B730B",
"c	c #0C6B0C",
"d	c #0A810A",
"e	c #052F05",
"f	c #007000",
"g	c #05C205",
"h	c #0C660C",
"i	c #05BC05",
"j	c #04D004",
"k	c #006EBD",
"l	c #00365D",
"m	c #008F00",
"n	c #06B106",
"                                 ",
"         ...   ...   ...         ",
"         .+.@@@.+.@@@.+.         ",
"         ...##$...##$...         ",
"        %&*===-@*===-;           ",
"        >,'==)!~'==){]           ",
"       ^/(==_:<(==_[}            ",
"       |12==)342==)56            ",
"     ...788...788...             ",
"     .+.@@@.+.@@@.+.             ",
"     ...--9...--9...             ",
"     0ab==c&de                   ",
"    fgh=='ijh kkkkkkkkkkkkkkkk   ",
"    @=====@== klllkkkkkkkkkkkk   ",
"   mn'==hji'= klllklllllllllkk   ",
" ...(bb_...bb klllkkkkkkkkkkkk   ",
" .+.@@@@.+.@@ kkkkkkkkkkkkkkkk   ",
" ...    ...   klllkkkkkkkkkkkk   ",
"              klllklllllllllkk   ",
"              klllkkkkkkkkkkkk   ",
"              kkkkkkkkkkkkkkkk   ",
"              klllkkkkkkkkkkkk   ",
"              klllklllllllllkk   ",
"              klllkkkkkkkkkkkk   ",
"              kkkkkkkkkkkkkkkk   ",
"              klllkkkkkkkkkkkk   ",
"              klllklllllllllkk   ",
"              klllkkkkkkkkkkkk   ",
"              kkkkkkkkkkkkkkkk   ",
"              kkkkkkkkkkkkkkkk   ",
"                                 ",
"                                 ",
"                                 "};
