/* XPM */
static char * pointCloudToMultiCurve_xpm[] = {
"33 33 418 2",
"  	c #000000",
". 	c #170202",
"+ 	c #AE0D0D",
"@ 	c #8B0A0A",
"# 	c #FFFF00",
"$ 	c #040000",
"% 	c #A80D0D",
"& 	c #7C0909",
"* 	c #010000",
"= 	c #A0410D",
"- 	c #130101",
"; 	c #AD0D0D",
"> 	c #890A0A",
", 	c #120101",
"' 	c #9C0C0C",
") 	c #800A0A",
"! 	c #080101",
"~ 	c #070101",
"{ 	c #B10D0D",
"] 	c #7F0909",
"^ 	c #190202",
"/ 	c #840A0A",
"( 	c #B40D0D",
"_ 	c #760909",
": 	c #180202",
"< 	c #870A0A",
"[ 	c #100101",
"} 	c #A10C0C",
"| 	c #780909",
"1 	c #B70E0E",
"2 	c #1A0202",
"3 	c #A20C0C",
"4 	c #7D0909",
"5 	c #B90E0E",
"6 	c #720808",
"7 	c #040401",
"8 	c #30300C",
"9 	c #6F6F1B",
"0 	c #969624",
"a 	c #595916",
"b 	c #1C0202",
"c 	c #830A0A",
"d 	c #020000",
"e 	c #0D0D03",
"f 	c #A8AA29",
"g 	c #94B624",
"h 	c #55A714",
"i 	c #35A80C",
"j 	c #1F780A",
"k 	c #001B03",
"l 	c #0D0101",
"m 	c #A90D0D",
"n 	c #6E0808",
"o 	c #272709",
"p 	c #A7B028",
"q 	c #78B61D",
"r 	c #2EAC0A",
"s 	c #1CA607",
"t 	c #148307",
"u 	c #145D07",
"v 	c #37570F",
"w 	c #6A6F1A",
"x 	c #606017",
"y 	c #BC0E0E",
"z 	c #7A0909",
"A 	c #434310",
"B 	c #BFDB2F",
"C 	c #37B40B",
"D 	c #1AA007",
"E 	c #095606",
"F 	c #132207",
"G 	c #80801F",
"H 	c #B1BA2B",
"I 	c #8FB722",
"J 	c #58A815",
"K 	c #3B8D0F",
"L 	c #001D04",
"M 	c #510101",
"N 	c #A20202",
"O 	c #BB0303",
"P 	c #E17902",
"Q 	c #A00C0C",
"R 	c #740909",
"S 	c #050000",
"T 	c #404010",
"U 	c #88B620",
"V 	c #2CC708",
"W 	c #0E7408",
"X 	c #001903",
"Y 	c #76761D",
"Z 	c #E0ED37",
"` 	c #51AD12",
" .	c #27B108",
"..	c #148507",
"+.	c #0B5606",
"@.	c #001503",
"#.	c #F5D201",
"$.	c #FCF100",
"%.	c #DD6702",
"&.	c #E89B01",
"*.	c #0A0101",
"=.	c #BF0E0E",
"-.	c #700808",
";.	c #010100",
">.	c #A2CF27",
",.	c #33AD0B",
"'.	c #095607",
").	c #172508",
"!.	c #B0B02B",
"~.	c #66B918",
"{.	c #29D207",
"].	c #148E09",
"^.	c #053905",
"/.	c #000901",
"(.	c #34340D",
"_.	c #81811F",
":.	c #BF0303",
"<.	c #FDF600",
"[.	c #E17A02",
"}.	c #5D0101",
"|.	c #270101",
"1.	c #070000",
"2.	c #1F0202",
"3.	c #AF0D0D",
"4.	c #73741C",
"5.	c #42D00E",
"6.	c #0D6708",
"7.	c #142707",
"8.	c #96A624",
"9.	c #42BF0E",
"0.	c #1B9B08",
"a.	c #023506",
"b.	c #000300",
"c.	c #444411",
"d.	c #B2B22B",
"e.	c #98BD24",
"f.	c #50AF12",
"g.	c #002605",
"h.	c #BD0303",
"i.	c #FCF300",
"j.	c #E17D02",
"k.	c #600101",
"l.	c #C70603",
"m.	c #D13402",
"n.	c #C80C03",
"o.	c #B80B0B",
"p.	c #6A0808",
"q.	c #020200",
"r.	c #7CCC1C",
"s.	c #2BA60A",
"t.	c #013206",
"u.	c #77861D",
"v.	c #4CBE11",
"w.	c #148206",
"x.	c #012805",
"y.	c #181906",
"z.	c #8F8F23",
"A.	c #85B51F",
"B.	c #33B40B",
"C.	c #20AE07",
"D.	c #138507",
"E.	c #002405",
"F.	c #BA0303",
"G.	c #FCF000",
"H.	c #F4CE01",
"I.	c #C91103",
"J.	c #6C0202",
"K.	c #A30202",
"L.	c #F5D301",
"M.	c #ECA901",
"N.	c #CE2803",
"O.	c #5E0101",
"P.	c #1D1F07",
"Q.	c #53D912",
"R.	c #085707",
"S.	c #2C370C",
"T.	c #71CA1A",
"U.	c #239109",
"V.	c #002805",
"W.	c #060601",
"X.	c #A0B027",
"Y.	c #50B612",
"Z.	c #20A308",
"`.	c #0C6307",
" +	c #0E2806",
".+	c #595A16",
"++	c #930202",
"@+	c #F0BE01",
"#+	c #EDB101",
"$+	c #E58C01",
"%+	c #E69201",
"&+	c #FBED00",
"*+	c #F9E200",
"=+	c #DA5B02",
"-+	c #740202",
";+	c #200000",
">+	c #5C7016",
",+	c #3CD00C",
"'+	c #003E08",
")+	c #7C9A1D",
"!+	c #3FC00D",
"~+	c #044807",
"{+	c #040C02",
"]+	c #B0B42B",
"^+	c #47BF0F",
"/+	c #158907",
"(+	c #033105",
"_+	c #282C0A",
":+	c #79B81D",
"<+	c #410101",
"[+	c #D13202",
"}+	c #E79301",
"|+	c #710202",
"1+	c #6FB41A",
"2+	c #38A70D",
"3+	c #002B06",
"4+	c #76D91B",
"5+	c #288C0A",
"6+	c #002205",
"7+	c #636618",
"8+	c #52D012",
"9+	c #178C08",
"0+	c #002705",
"a+	c #BFDB2E",
"b+	c #1BA007",
"c+	c #003106",
"d+	c #660202",
"e+	c #D23702",
"f+	c #EEB301",
"g+	c #EDAF01",
"h+	c #FCF200",
"i+	c #F1C101",
"j+	c #CF2D03",
"k+	c #210000",
"l+	c #171706",
"m+	c #64D117",
"n+	c #186B09",
"o+	c #26390C",
"p+	c #48DC0F",
"q+	c #085709",
"r+	c #0E1905",
"s+	c #81C71E",
"t+	c #28AD08",
"u+	c #013807",
"v+	c #404110",
"w+	c #310101",
"x+	c #840202",
"y+	c #C40606",
"z+	c #A70505",
"A+	c #A50303",
"B+	c #F6D500",
"C+	c #FEFA00",
"D+	c #E07702",
"E+	c #440101",
"F+	c #79891D",
"G+	c #40C80D",
"H+	c #024408",
"I+	c #668319",
"J+	c #3CD20C",
"K+	c #004008",
"L+	c #434D10",
"M+	c #4DCE10",
"N+	c #064E07",
"O+	c #010C02",
"P+	c #001002",
"Q+	c #220303",
"R+	c #C30F0F",
"S+	c #C70803",
"T+	c #EAA001",
"U+	c #D23602",
"V+	c #0B0000",
"W+	c #3F3F0F",
"X+	c #69C318",
"Y+	c #219009",
"Z+	c #022A06",
"`+	c #77C61C",
" @	c #35A60C",
".@	c #002C06",
"+@	c #699A19",
"@@	c #40B70E",
"#@	c #001403",
"$@	c #150202",
"%@	c #A70C0C",
"&@	c #620707",
"*@	c #2A0101",
"=@	c #7B0202",
"-@	c #5B5B16",
";@	c #B6E32B",
">@	c #2EA90A",
",@	c #034207",
"'@	c #3A410F",
")@	c #5BD914",
"!@	c #0B6207",
"~@	c #021603",
"{@	c #6AC418",
"]@	c #28830B",
"^@	c #022104",
"/@	c #2BA50A",
"(@	c #000100",
"_@	c #CC0F0F",
":@	c #6B0808",
"<@	c #31310C",
"[@	c #A4A428",
"}@	c #7CBC1D",
"|@	c #28CA07",
"1@	c #086308",
"2@	c #142207",
"3@	c #89B221",
"4@	c #2FC409",
"5@	c #272909",
"6@	c #56CF13",
"7@	c #074D07",
"8@	c #1E2908",
"9@	c #53DA12",
"0@	c #000E02",
"a@	c #210202",
"b@	c #A50C0C",
"c@	c #660808",
"d@	c #030000",
"e@	c #070702",
"f@	c #1E1E07",
"g@	c #73731C",
"h@	c #ACAC2A",
"i@	c #93B523",
"j@	c #3CB30D",
"k@	c #20A707",
"l@	c #044207",
"m@	c #151C06",
"n@	c #B6C52C",
"o@	c #45BB0F",
"p@	c #0B6007",
"q@	c #6C871A",
"r@	c #43C10E",
"s@	c #003507",
"t@	c #3BD00C",
"u@	c #0E0101",
"v@	c #CE0F0F",
"w@	c #5E0707",
"x@	c #656519",
"y@	c #BABF2D",
"z@	c #A2B827",
"A@	c #7CAD1E",
"B@	c #52A913",
"C@	c #2CAE0A",
"D@	c #1EA607",
"E@	c #0F7107",
"F@	c #0E2F06",
"G@	c #5F6117",
"H@	c #A7B528",
"I@	c #3AC30B",
"J@	c #158808",
"K@	c #002305",
"L@	c #242409",
"M@	c #71C41A",
"N@	c #298D0B",
"O@	c #3AA80E",
"P@	c #260303",
"Q@	c #B60E0E",
"R@	c #6D0808",
"S@	c #115803",
"T@	c #1FAC06",
"U@	c #1DAB07",
"V@	c #199A07",
"W@	c #137D06",
"X@	c #114E07",
"Y@	c #3F4C10",
"Z@	c #7C7D1E",
"`@	c #73B61B",
" #	c #2CAF09",
".#	c #127D07",
"+#	c #002304",
"@#	c #191A06",
"##	c #A5BE28",
"$#	c #3DB80C",
"%#	c #172107",
"&#	c #186C09",
"*#	c #001703",
"=#	c #5F0707",
"-#	c #28280A",
";#	c #C1C12F",
">#	c #CBD231",
",#	c #8AB721",
"'#	c #4FAC13",
")#	c #29AD09",
"!#	c #1A9C07",
"~#	c #084E06",
"{#	c #000D02",
"]#	c #98AA25",
"^#	c #3EC00D",
"/#	c #147A08",
"(#	c #000501",
"_#	c #680808",
":#	c #0E2B03",
"<#	c #2CAB09",
"[#	c #26B908",
"}#	c #22C007",
"|#	c #1CA808",
"1#	c #137F07",
"2#	c #063F05",
"3#	c #000C02",
"4#	c #949424",
"5#	c #C2DE2F",
"6#	c #3AB00D",
"7#	c #127E06",
"8#	c #012705",
"9#	c #3F410F",
"0#	c #020900",
"a#	c #072901",
"b#	c #042202",
"c#	c #000801",
"d#	c #072301",
"e#	c #198505",
"f#	c #25C607",
"g#	c #0F7808",
"h#	c #001A03",
"i#	c #0A3702",
"j#	c #1B9805",
"k#	c #000701",
"                                                          . + @   ",
"    # # #                       # # #                   $ % & *   ",
"    # = #             # # #     # = #                 - ; >       ",
"    # # #   # # #     # = #     # # #               , ' ) !       ",
"            # = #     # # #                       ~ { ]           ",
"            # # #                               ^ % / ~           ",
"                                                ( _               ",
"      # # #       # # #       # # #         : ( <                 ",
"      # = #       # = #       # = #       [ } | $                 ",
"      # # #       # # #       # # #     [ 1 &                     ",
"                                      2 3 4 ~                     ",
"    # # #             # # #           5 6         7 8 9 0 a       ",
"    # = #             # = #       b 5 c d     e a f g h i j k     ",
"    # # #             # # #     l m n       o p q r s t u v w x   ",
"            # # #             . y z       A B C D E F G H I J K L ",
"      M N O P = #           2 Q R S     T U V W X Y Z `  .s ..+.@.",
"      N #.$.%.&.#         *.=.-.      ;.>.,.'.).!.~.{.].^./.(._.  ",
"      :.<.# [.}.  d |.1.2.3.| $       4.5.6.7.8.9.0.a.b.c.d.e.f.g.",
"      h.i.# j.k.d l.m.n.o.p.        q.r.s.t.u.v.w.x.y.z.A.B.C.D.E.",
"      F.G.# H.I.J.K.L.M.N.O.        P.Q.R.S.T.U.V.W.X.Y.Z.`. +.+  ",
"      ++@+# # #+$+%+&+# *+=+-+;+    >+,+'+)+!+~+{+]+^+/+(+_+p :+k ",
"      <+[+&+# # # # # # # # }+|+    1+2+3+4+5+6+7+8+9+0+A a+C b+c+",
"        d+e+M.f+g+#+h+# # i+j+k+  l+m+n+o+p+q+r+s+t+u+v+U V W X   ",
"          w+x+y+z+A+B+C+D+I.E+    F+G+H+I+J+K+L+M+N+O+>.,.'.P+    ",
"          Q+R+_ $ S+T+U+|+V+    W+X+Y+Z+`+ @.@+@@@c+4.5.6.#@      ",
"        $@%@&@    *@=@*@      -@;@>@,@'@)@!@~@{@]@^@r./@t.(@      ",
"      b _@:@              <@[@}@|@1@2@3@4@'+5@6@7@8@9@R.0@        ",
"    a@b@c@d@    e@f@c.g@h@i@j@k@l@m@n@o@p@@.q@r@s@>+t@'+          ",
"  u@v@w@      x@y@z@A@B@C@D@E@F@G@H@I@J@K@L@M@N@E.1+O@3+          ",
"P@Q@R@        S@T@U@V@W@X@Y@Z@p `@ #.#+#@###$#7@%#m+&#*#          ",
"{ =#              -#d.;#>#,#'#)#!#~#{#o ]#^#/#L F+G+H+(#          ",
"_#                :#<#[#}#|#1#2#3#-#4#5#6#7#8#9#X+Y+V.            ",
"*                 0#a#b#c#        d#e#f#g#h#  i#j#,@k#            "};
