/* XPM */
static char * pointCloudToMesh_xpm[] = {
"33 33 126 2",
"  	c #000000",
". 	c #FFFF00",
"+ 	c #011C22",
"@ 	c #023744",
"# 	c #045366",
"$ 	c #A0410D",
"% 	c #03404F",
"& 	c #045B71",
"* 	c #057793",
"= 	c #0690B2",
"- 	c #08B4DF",
"; 	c #08A8D0",
"> 	c #078FB1",
", 	c #078DAF",
"' 	c #010D10",
") 	c #08ADD6",
"! 	c #0793B7",
"~ 	c #05708A",
"{ 	c #08A9D1",
"] 	c #078EAF",
"^ 	c #08A4CA",
"/ 	c #02262F",
"( 	c #0791B3",
"_ 	c #0791B4",
": 	c #08B2DD",
"< 	c #08B2DB",
"[ 	c #0683A2",
"} 	c #02242D",
"| 	c #079DC3",
"1 	c #0788A9",
"2 	c #08ACD4",
"3 	c #08A0C7",
"4 	c #044859",
"5 	c #034B5D",
"6 	c #07A7CF",
"7 	c #078BAC",
"8 	c #0792B5",
"9 	c #078CAE",
"0 	c #000708",
"a 	c #056B85",
"b 	c #08ACD6",
"c 	c #056780",
"d 	c #0686A6",
"e 	c #08B2DC",
"f 	c #078DAE",
"g 	c #078EB0",
"h 	c #011D23",
"i 	c #079CC1",
"j 	c #0793B5",
"k 	c #0684A3",
"l 	c #078EB1",
"m 	c #067D9B",
"n 	c #07A9D1",
"o 	c #079FC4",
"p 	c #08A4CB",
"q 	c #0687A7",
"r 	c #033B4A",
"s 	c #0794B7",
"t 	c #08A7D0",
"u 	c #0685A4",
"v 	c #078AAB",
"w 	c #000304",
"x 	c #00080A",
"y 	c #08AED7",
"z 	c #0689AA",
"A 	c #079AC0",
"B 	c #02333F",
"C 	c #08B1DC",
"D 	c #08ADD7",
"E 	c #08ABD4",
"F 	c #04586C",
"G 	c #08B3DD",
"H 	c #08A5CD",
"I 	c #0796BA",
"J 	c #057692",
"K 	c #0790B3",
"L 	c #09677F",
"M 	c #0A6A82",
"N 	c #02181D",
"O 	c #068EB0",
"P 	c #0687A6",
"Q 	c #0790B2",
"R 	c #096E88",
"S 	c #05323D",
"T 	c #079FC5",
"U 	c #099CC2",
"V 	c #096177",
"W 	c #06728C",
"X 	c #078FB2",
"Y 	c #097B98",
"Z 	c #085163",
"` 	c #0A6C84",
" .	c #076178",
"..	c #0887A6",
"+.	c #0A6980",
"@.	c #010709",
"#.	c #08B3DE",
"$.	c #0A7B97",
"%.	c #096075",
"&.	c #088BAD",
"*.	c #0A6981",
"=.	c #03232B",
"-.	c #011419",
";.	c #0992B5",
">.	c #0A667E",
",.	c #0882A0",
"'.	c #063E4C",
").	c #033D4C",
"!.	c #08A8D1",
"~.	c #095E73",
"{.	c #04637B",
"].	c #0A708A",
"^.	c #095C71",
"/.	c #096379",
"(.	c #021317",
"_.	c #085466",
":.	c #06404E",
"<.	c #05313C",
"[.	c #02151A",
"}.	c #031D23",
"|.	c #053845",
"1.	c #053743",
"2.	c #042932",
"3.	c #000506",
"4.	c #010E11",
"5.	c #074D5F",
"                                                                  ",
"                                                                  ",
"                                                                  ",
"                                  . . .                           ",
"                            + @ # . $ .                           ",
"            . . . % & * = - - - - . . .                           ",
"            . $ . - - - - - - - - ; > , '                         ",
"            . . . ) - - - - - - - ! > > ~                         ",
"              { > ] ^ - - - - - - ] > > > /                       ",
"              - ( > > _ : - - - < > > > > [                       ",
"            } - | > > > 1 2 - - 3 > > > > > 4                     ",
"            5 - 6 > > > > 7 8 . . . > > > > 9 0                   ",
"            a - b > > > > > > . $ . > > > > > c                   ",
"            d - e > > > > > > . . . f > > > > g h                 ",
"            i - - j > > > > k e - - - l , > > > m                 ",
"            n - - o > > > 9 p - - - - - < q g > > r               ",
"            e - - n > > > s - - - - - - - - t u > v w             ",
"          x - - - y > > z - - - - - - - - - - - A . . .           ",
"          B - - - e > 1 C - - - - - - - - - - D E . $ .           ",
"          F - - - . . . - - G ) { H o i I 8 > > > . . .           ",
"          J - - - . $ . I K > > > > > > > > > > 8 L M N           ",
"          O - - - . . . P > > > > > > > > > > Q R M M S           ",
"          T - - - U M M V W X > > > > > > > > Y M M M Z           ",
"          ) - - D ` M M M M  .Q > > > > > > ..M M M M +.@.        ",
"          #.- - $.M M M M M M %.7 > > > > &.*.M M M M M =.        ",
"        -.- - ;.M M M M M M M M >.,.> > f M M M M M M M '.        ",
"        ).- !.M M M M M M M M M M M . . . M M M M M M M ~.        ",
"        {.e ].M M M M M M M M M M ^.. $ . /.M M M M M M M (.      ",
"      . . . M M M M V _.:.<.=.[.    . . .   }.|.^.M M M . . .     ",
"      . $ . 1.2.[.3.                              4.S 5.. $ .     ",
"      . . .                                             . . .     ",
"                                                                  ",
"                                                                  "};
