/* XPM */
static char * SOuP_pointCloudField_xpm[] = {
"33 33 6 1",
" 	c None",
".	c #000000",
"+	c #FF5555",
"@	c #AA0000",
"#	c #FFFF55",
"$	c #AA5500",
".................................",
"...............+.................",
"...............+.................",
"..............@+@................",
"....+@........+++.........@+.....",
"....@++@.....@+++@......@++@.....",
".....++++....+.+.+.....++++......",
".....@++.......+........++@......",
"......+.+......+.......+.+.......",
".........+.###.+......+..........",
"..........+#$#.+.....+...........",
"...........###......+............",
".................................",
".....@+........###.......+@......",
"...@++.........#$#..###...++@....",
".+++++++###....###..#$#++++++++..",
"...@++..#$#.........###...++@....",
".....@+.###.###..........+@......",
"............#$#..###.............",
"............###..#$#.............",
"...........+.....###+............",
"..........+....+.....+...........",
".........+.....+......+..........",
"......+.+......+.......+.+.......",
".....@++.......+........++@......",
".....++++....+.+.+.....++++......",
"....@++@.....@+++@......@++@.....",
"....+@........+++.........@+.....",
"..............@+@................",
"...............+.................",
"...............+.................",
".................................",
"................................."};
