/* XPM */
static char * SOuP_rayProject_xpm[] = {
"33 33 7 1",
" 	c #000000",
".	c #FF5555",
"+	c #AA0000",
"@	c #FFFF55",
"#	c #55FF55",
"$	c #00AA00",
"%	c #AA5500",
"                                 ",
"             ...                 ",
"         ....+++....             ",
"     ....++++   ++++....         ",
"  ...++++      @@@  ++++....     ",
"  ..           @@@      ++++...  ",
"  .+..        @@@@@       ...+.  ",
"  .+++..@       @      ...++++.  ",
"  .+  ++...     @  ....+++@  +.  ",
"  .+    +++.. ##...++++ @@   +.  ",
"  .+    @ @++...+++### @ @   +.  ",
"  .+       ##+.+@######      +.  ",
"  .+       ##+.+#####$#      +.  ",
"  .+      ##@+.+######$#     +.  ",
"  .+   @  ###+.+#####$##  @  +.  ",
"  .+ @@@  ##@+.+######$#  @@@+.  ",
"  .+@@@@@@###+.+#####$%#@@@@@+.  ",
"  .+ @@@  ###+.+####$#$#  @@@+.  ",
"  .+   @  ###+.+###$#$%#  @  +.  ",
"  .+       ##+.+##$#$%#      +.  ",
"  .+       ##+.+#$#$%$#      +.  ",
"  .+        #+.+$%$%##       +.  ",
"  .+     @ @ +.+####  @ @    +.  ",
"  .++    @@  +.+@      @@    +.  ",
"   ..+  @@@@ +.+@     @@@@   +.  ",
"     .++@@   +.+@@@     @@ ++..  ",
"      ..+    +.+@@      +++..    ",
"        .++  +.+@@   +++...      ",
"         ..+ +.+@  ++...         ",
"           .++.++++..            ",
"            ...+...              ",
"              ..                 ",
"                                 "};
