/* XPM */
static char * SOuP_remapArray_xpm[] = {
"33 33 11 1",
" 	c None",
".	c #000000",
"+	c #AA5500",
"@	c #FFFF55",
"#	c #55FF55",
"$	c #00AA00",
"%	c #AA0000",
"&	c #FFFF5A",
"*	c #FDFC53",
"=	c #F2FF56",
"-	c #FFFC53",
".................................",
".................................",
".................................",
"..++++++++++++++++...............",
"..+@@#$+@@#$+@@#$+...............",
"..+@##$+@##$+@##$+...............",
"..+##$$+##$$+##$$+...............",
"..++++++++++++++++...............",
"..+@@#$+@@#$+@@#$+...............",
"..+@##$+@##$+@##$+..%%...........",
"..+##$$+##$$+##$$+.%@@%..........",
"..++++++++++++++++..%@@%.........",
".....................%@@%..%.....",
"...%%%................%@@%.%.....",
"...%@%.................%@@%@.....",
"...%@%..................%@@@.....",
"..%@@@%...............%%@@@@%....",
"...%@%..................%%@@%....",
"....%......................%%....",
".................................",
"..++++++++++++++++++++++++++++...",
"..+&*&=##$$+&*&=##$$+&*&=##$$+...",
"..+&-####$$+&-####$$+&-####$$+...",
"..+####$$$$+####$$$$+####$$$$+...",
"..++++++++++++++++++++++++++++...",
"..+&*&=##$$+&*&=##$$+&*&=##$$+...",
"..+&-####$$+&-####$$+&-####$$+...",
"..+####$$$$+####$$$$+####$$$$+...",
"..++++++++++++++++++++++++++++...",
".................................",
".................................",
".................................",
"................................."};
