/* XPM */
static char * resizeArray_xpm[] = {
"33 33 359 2",
"  	c #000000",
". 	c #9A2500",
"+ 	c #A02600",
"@ 	c #8B2100",
"# 	c #7C6400",
"$ 	c #ADA600",
"% 	c #DED100",
"& 	c #AB5100",
"* 	c #7C7300",
"= 	c #C1BD00",
"- 	c #D8C200",
"; 	c #AEA700",
"> 	c #ECF800",
", 	c #F5FB00",
"' 	c #B35D00",
") 	c #B8C200",
"! 	c #F3FF00",
"~ 	c #F3EB00",
"{ 	c #CBC200",
"] 	c #F4FF00",
"^ 	c #F5F800",
"/ 	c #B55D00",
"( 	c #D5E000",
"_ 	c #F0E600",
": 	c #A95C00",
"< 	c #BB7500",
"[ 	c #BF7600",
"} 	c #A73B00",
"| 	c #AF6900",
"1 	c #BE7A00",
"2 	c #BC6E00",
"3 	c #7F7300",
"4 	c #B8C000",
"5 	c #E8EA00",
"6 	c #AE5600",
"7 	c #7B8200",
"8 	c #CBD400",
"9 	c #E3D800",
"0 	c #2E1605",
"a 	c #381B06",
"b 	c #592A09",
"c 	c #71360B",
"d 	c #8A410E",
"e 	c #9E2A02",
"f 	c #BBB400",
"g 	c #B45E00",
"h 	c #C6D000",
"i 	c #934611",
"j 	c #89400E",
"k 	c #73360B",
"l 	c #582A09",
"m 	c #080401",
"n 	c #8F4814",
"o 	c #C76823",
"p 	c #C6651E",
"q 	c #C66620",
"r 	c #C76620",
"s 	c #C7631A",
"t 	c #C97133",
"u 	c #813E0D",
"v 	c #9A4A0F",
"w 	c #BD5912",
"x 	c #C25D13",
"y 	c #B45412",
"z 	c #9B2B04",
"A 	c #C6A800",
"B 	c #EEE000",
"C 	c #E9D300",
"D 	c #B25400",
"E 	c #D7C900",
"F 	c #F0E500",
"G 	c #E1C301",
"H 	c #A02801",
"I 	c #894113",
"J 	c #AB5011",
"K 	c #C15C13",
"L 	c #B85812",
"M 	c #331905",
"N 	c #B85C18",
"O 	c #C56219",
"P 	c #C56218",
"Q 	c #C56319",
"R 	c #C66016",
"S 	c #C76824",
"T 	c #4A2307",
"U 	c #592B09",
"V 	c #77390C",
"W 	c #98490F",
"X 	c #BD5A13",
"Y 	c #A44810",
"Z 	c #9F4D0C",
"` 	c #AC5E09",
" .	c #B66507",
"..	c #A73D05",
"+.	c #AD5E04",
"@.	c #BB6C05",
"#.	c #BA6408",
"$.	c #A53908",
"%.	c #A34B0F",
"&.	c #B8540D",
"*.	c #9C4A0E",
"=.	c #75380B",
"-.	c #040200",
";.	c #92450E",
">.	c #85400E",
",.	c #944811",
"'.	c #954912",
").	c #944911",
"!.	c #954811",
"~.	c #954913",
"{.	c #010000",
"].	c #020100",
"^.	c #100802",
"/.	c #482208",
"(.	c #B65713",
"_.	c #AE5213",
":.	c #A54E12",
"<.	c #A24B0F",
"[.	c #A74F0D",
"}.	c #AC4E09",
"|.	c #B25909",
"1.	c #BE6509",
"2.	c #BF600D",
"3.	c #BE5D18",
"4.	c #C56621",
"5.	c #C56620",
"6.	c #522809",
"7.	c #331805",
"8.	c #291304",
"9.	c #B65712",
"0.	c #321805",
"a.	c #3D1E07",
"b.	c #3F1E08",
"c.	c #3E1E07",
"d.	c #2B1405",
"e.	c #A34B13",
"f.	c #873F13",
"g.	c #763813",
"h.	c #753813",
"i.	c #7D3C13",
"j.	c #8E4213",
"k.	c #A04913",
"l.	c #AD5213",
"m.	c #B85713",
"n.	c #C56F2D",
"o.	c #CA7B41",
"p.	c #CA7C43",
"q.	c #3B1E09",
"r.	c #78390C",
"s.	c #090401",
"t.	c #271204",
"u.	c #9E4913",
"v.	c #7B3913",
"w.	c #633013",
"x.	c #5D2E13",
"y.	c #773713",
"z.	c #A54D13",
"A.	c #B35311",
"B.	c #C56821",
"C.	c #C9783E",
"D.	c #C97E47",
"E.	c #793C0F",
"F.	c #8B410B",
"G.	c #4D2508",
"H.	c #281304",
"I.	c #2A1405",
"J.	c #9D4813",
"K.	c #793913",
"L.	c #5E2E13",
"M.	c #552B13",
"N.	c #592B13",
"O.	c #6D3313",
"P.	c #893F13",
"Q.	c #A34C13",
"R.	c #B25210",
"S.	c #C4631C",
"T.	c #C77033",
"U.	c #C77538",
"V.	c #794117",
"W.	c #603210",
"X.	c #211003",
"Y.	c #2A1305",
"Z.	c #9E4813",
"`.	c #7B3A13",
" +	c #5A2C13",
".+	c #602D13",
"++	c #723613",
"@+	c #8F4113",
"#+	c #A64E13",
"$+	c #B55412",
"%+	c #C56723",
"&+	c #C76C2B",
"*+	c #C76B29",
"=+	c #39220F",
"-+	c #2B1305",
";+	c #9F4B13",
">+	c #7E3C13",
",+	c #653113",
"'+	c #5C2E13",
")+	c #632E13",
"!+	c #773813",
"~+	c #924313",
"{+	c #A84E13",
"]+	c #B75713",
"^+	c #C6641D",
"/+	c #C76721",
"(+	c #C76D2C",
"_+	c #3B1F0A",
":+	c #180B03",
"<+	c #70340D",
"[+	c #6C330F",
"}+	c #673011",
"|+	c #632F12",
"1+	c #2E8970",
"2+	c #03C6B1",
"3+	c #3F9070",
"4+	c #A64E12",
"5+	c #B15513",
"6+	c #B65F1F",
"7+	c #A55B24",
"8+	c #8B4A1B",
"9+	c #221003",
"0+	c #050201",
"a+	c #441F09",
"b+	c #52260D",
"c+	c #56280E",
"d+	c #0000FF",
"e+	c #87400E",
"f+	c #8C4310",
"g+	c #884A1C",
"h+	c #673D1E",
"i+	c #381D09",
"j+	c #9A2F00",
"k+	c #A03100",
"l+	c #9E3302",
"m+	c #7F5025",
"n+	c #029DC1",
"o+	c #0130EC",
"p+	c #03C4B2",
"q+	c #9F3201",
"r+	c #8B2B00",
"s+	c #7C6C00",
"t+	c #A8AD00",
"u+	c #DBDE00",
"v+	c #AB5C00",
"w+	c #7B7D02",
"x+	c #1FAC92",
"y+	c #0295C4",
"z+	c #012BEE",
"A+	c #03C3B2",
"B+	c #1FB594",
"C+	c #499B4B",
"D+	c #B6C100",
"E+	c #D8D000",
"F+	c #7C7C00",
"G+	c #A8AE00",
"H+	c #DCF800",
"I+	c #E4FB00",
"J+	c #B36900",
"K+	c #93C319",
"L+	c #03AABC",
"M+	c #029FC0",
"N+	c #0123F1",
"O+	c #000EF9",
"P+	c #0005FD",
"Q+	c #0021F2",
"R+	c #1FC594",
"S+	c #E2FF00",
"T+	c #E9F300",
"U+	c #ABC200",
"V+	c #C5CB00",
"W+	c #E3FF00",
"X+	c #E5F800",
"Y+	c #B56900",
"Z+	c #C5E001",
"`+	c #03C1B3",
" @	c #0144E4",
".@	c #0139E8",
"+@	c #3CCE7E",
"@@	c #E8F000",
"#@	c #C7E000",
"$@	c #A96800",
"%@	c #BB8100",
"&@	c #BF8300",
"*@	c #A74600",
"=@	c #AF7400",
"-@	c #BD8701",
";@	c #8E8E2C",
">@	c #03ABBC",
",@	c #0017F6",
"'@	c #03ACBB",
")@	c #7C8C35",
"!@	c #BE8600",
"~@	c #BC7B00",
"{@	c #7F7C00",
"]@	c #ABC000",
"^@	c #D9EA00",
"/@	c #AE6200",
"(@	c #738200",
"_@	c #BDD400",
":@	c #DDE300",
"<@	c #567854",
"[@	c #0281CC",
"}@	c #015CDB",
"|@	c #728302",
"1@	c #B4BB00",
"2@	c #B46900",
"3@	c #B8D000",
"4@	c #4CC168",
"5@	c #0155DE",
"6@	c #03BAB6",
"7@	c #9E7516",
"8@	c #C7B700",
"9@	c #EAEE00",
"0@	c #E9E300",
"a@	c #B26000",
"b@	c #D5D700",
"c@	c #E9F000",
"d@	c #E2D300",
"e@	c #5BBF61",
"f@	c #0159DC",
"g@	c #AD6305",
"h@	c #9D3000",
"i@	c #AD6D00",
"j@	c #C08800",
"k@	c #C28700",
"l@	c #A84800",
"m@	c #B37B00",
"n@	c #C38E00",
"o@	c #BE8000",
"p@	c #967918",
"q@	c #58AA61",
"r@	c #A89018",
"s@	c #807400",
"t@	c #B0BC00",
"u@	c #DBE400",
"v@	c #AE6000",
"w@	c #7C8400",
"x@	c #BBCC00",
"y@	c #DCD900",
"z@	c #AEB500",
"A@	c #DFFC00",
"B@	c #B3CA00",
"C@	c #C8CA00",
"D@	c #E3FB00",
"E@	c #E6F500",
"F@	c #B46700",
"G@	c #C9DE00",
"H@	c #E2FD00",
"I@	c #E9ED00",
"J@	c #9B2F00",
"K@	c #9F3500",
"L@	c #A23F00",
"M@	c #A64300",
"N@	c #A13500",
"O@	c #9F3C00",
"P@	c #A54200",
"Q@	c #A03200",
"R@	c #A13400",
"                                                                  ",
"                . + + + + + + + +                                 ",
"                @ # $ % & * = - +                                 ",
"                @ ; > , ' ) ! ~ +                                 ",
"                @ { ] ^ / ( ! _ +                                 ",
"                @ : < [ } | 1 2 +                                 ",
"                @ 3 4 5 6 7 8 9 +                                 ",
"      0 a b c d e f ! , g h ! ~ + i j k l   m n o p q r s t       ",
"      u v w x y z A B C D E F G H I J K L   M N O P O Q R S       ",
"      T U V W X Y Z `  ...+.@.#.$.%.&.*.=.-.;.>.,.'.'.).!.~.      ",
"      {.].^./.(._.:.<.[.}.|.1.2.3.4.5.6.7.8.9.0.a.b.b.c.c.c.      ",
"          {.d.e.f.g.h.i.j.k.l.m.n.o.p.q.b U r.s.].].].].].].      ",
"            t.u.v.w.x.w.y.j.z.A.B.C.D.E.F.G.H.                    ",
"            I.J.K.L.M.N.O.P.Q.R.S.T.U.V.W.X.                      ",
"            Y.Z.`.w. +.+++@+#+$+%+&+*+=+                          ",
"            -+;+>+,+'+)+!+~+{+]+^+/+(+_+                          ",
"            :+<+[+}+|+1+2+3+4+5+6+7+8+9+                          ",
"            0+d.a+b+c+2+d+2+e+f+g+h+i+m                           ",
"                      2+d+2+                                      ",
"    j+k+k+k+k+k+l+l+m+n+o+p+q+k+k+k+k+k+k+k+k+k+k+k+k+k+k+k+k+    ",
"    r+s+t+u+v+w+p+p+x+y+z+A+B+C+D+E+k+F+D+E+k+s+t+u+v+F+D+E+k+    ",
"    r+G+H+I+J+K+L+M+N+O+P+N+Q+R+S+T+k+U+S+T+k+G+H+I+J+U+S+T+k+    ",
"    r+V+W+X+Y+Z+p+`+ @d+d+d+.@+@S+@@k+#@S+@@k+V+W+X+Y+#@S+@@k+    ",
"    r+$@%@&@*@=@-@;@>@,@d+d+'@)@!@~@k+=@!@~@k+$@%@&@*@=@!@~@k+    ",
"    r+{@]@^@/@(@_@:@<@[@d+}@p+|@_@:@k+(@_@:@k+{@]@^@/@(@_@:@k+    ",
"    r+1@S+I+2@3@S+T+k+4@5@6@7@3@S+T+k+3@S+T+k+1@S+I+2@3@S+T+k+    ",
"    r+8@9@0@a@b@c@d@k+e@f@`+g@b@c@d@k+b@c@d@k+8@9@0@a@b@c@d@k+    ",
"    h@i@j@k@l@m@n@o@k+p@q@r@l@m@n@o@k+m@n@o@k+i@j@k@l@m@n@o@k+    ",
"    h@s@t@u@v@w@x@y@k+s@t@u@v@w@x@y@k+w@x@y@k+s@t@u@v@w@x@y@k+    ",
"    h@z@A@I+2@B@S+T+k+z@A@I+2@B@S+T+k+B@S+T+k+z@A@I+2@B@S+T+k+    ",
"    h@C@D@E@F@G@H@I@k+C@D@E@F@G@H@I@k+G@H@I@k+C@D@E@F@G@H@I@k+    ",
"    J@K@L@M@N@O@P@k+k+K@L@M@Q@Q@R@k+k+O@P@k+k+K@L@M@N@O@P@k+k+    ",
"                                                                  "};
