/* XPM */
static char * splitRgba_xpm[] = {
"33 33 213 2",
"  	c #000000",
". 	c #150D00",
"+ 	c #623E00",
"@ 	c #C77E01",
"# 	c #F49B01",
"$ 	c #FA9F01",
"% 	c #F59C01",
"& 	c #BD7801",
"* 	c #694300",
"= 	c #FBA614",
"- 	c #F3BB5A",
"; 	c #F0C9A7",
"> 	c #F2BBB6",
", 	c #D6D4AE",
"' 	c #C6E98A",
") 	c #BFBA68",
"! 	c #D29938",
"~ 	c #F19D0B",
"{ 	c #5B3A00",
"] 	c #825301",
"^ 	c #F7B33E",
"/ 	c #F5D7BB",
"( 	c #FCDFDF",
"_ 	c #FDE2E2",
": 	c #FDDDDD",
"< 	c #E5E7C5",
"[ 	c #C9F689",
"} 	c #B0F353",
"| 	c #9CEA2E",
"1 	c #969A3A",
"2 	c #D28F19",
"3 	c #794D00",
"4 	c #6C4400",
"5 	c #F3AF3A",
"6 	c #F5CFC4",
"7 	c #FDE4E4",
"8 	c #FFFBFB",
"9 	c #FEEDED",
"0 	c #F78A8A",
"a 	c #AEB948",
"b 	c #A4F139",
"c 	c #ABF248",
"d 	c #9AEF22",
"e 	c #7ED307",
"f 	c #6B8122",
"g 	c #CA8711",
"h 	c #F7A311",
"i 	c #E9B096",
"j 	c #FBC7C7",
"k 	c #FEF2F2",
"l 	c #F79090",
"m 	c #EE1B1B",
"n 	c #ED0707",
"o 	c #99B01A",
"p 	c #8DED07",
"q 	c #90ED0E",
"r 	c #9BEF25",
"s 	c #7FD606",
"t 	c #508704",
"u 	c #5C5116",
"v 	c #EA9604",
"w 	c #DEA645",
"x 	c #F58B8B",
"y 	c #FBC9C9",
"z 	c #F78B8B",
"A 	c #EE1010",
"B 	c #97BC16",
"C 	c #8FED0B",
"D 	c #95EE19",
"E 	c #4D8104",
"F 	c #223606",
"G 	c #A56D0C",
"H 	c #B67301",
"I 	c #C88F62",
"J 	c #F57C7C",
"K 	c #FBC5C5",
"L 	c #EE1A1A",
"M 	c #95C214",
"N 	c #60A205",
"O 	c #233B02",
"P 	c #6A4A13",
"Q 	c #A56901",
"R 	c #E89301",
"S 	c #BD6155",
"T 	c #F46464",
"U 	c #F68888",
"V 	c #95C613",
"W 	c #79CC06",
"X 	c #3C2F19",
"Y 	c #D98A01",
"Z 	c #A44240",
"` 	c #EF1F1F",
" .	c #F02B2B",
"..	c #D4191D",
"+.	c #4E698F",
"@.	c #8DEB09",
"#.	c #6BB405",
"$.	c #201F1D",
"%.	c #F89D01",
"&.	c #E29001",
"*.	c #885040",
"=.	c #C50606",
"-.	c #DB0606",
";.	c #CE1F23",
">.	c #132EDF",
",.	c #0726ED",
"'.	c #2B45C0",
").	c #8CE70C",
"!.	c #385E03",
"~.	c #233B03",
"{.	c #8C6C35",
"].	c #9F0606",
"^.	c #B70505",
"/.	c #E70707",
"(.	c #C2252F",
"_.	c #213ACE",
":.	c #8BE30F",
"<.	c #7CD106",
"[.	c #B47C1A",
"}.	c #6F0E0E",
"|.	c #750303",
"1.	c #922128",
"2.	c #112CDD",
"3.	c #1932C4",
"4.	c #233806",
"5.	c #202A11",
"6.	c #EB9705",
"7.	c #603814",
"8.	c #2C0C10",
"9.	c #040B3B",
"0.	c #051BA9",
"a.	c #0725E6",
"b.	c #0622D1",
"c.	c #020A3B",
"d.	c #080E34",
"e.	c #21300B",
"f.	c #624614",
"g.	c #EA9503",
"h.	c #C17E08",
"i.	c #3B2E1F",
"j.	c #030B3A",
"k.	c #041583",
"l.	c #041791",
"m.	c #020B45",
"n.	c #060D37",
"o.	c #1A1B20",
"p.	c #4C3917",
"q.	c #462D00",
"r.	c #6B4400",
"s.	c #121529",
"t.	c #060D36",
"u.	c #070D35",
"v.	c #0C112F",
"w.	c #181922",
"x.	c #1D1D1D",
"y.	c #AD5418",
"z.	c #010000",
"A.	c #391111",
"B.	c #B64E22",
"C.	c #4A2E02",
"D.	c #CD3E3E",
"E.	c #280C0C",
"F.	c #932D2D",
"G.	c #4C1717",
"H.	c #C7730B",
"I.	c #E98F06",
"J.	c #E46628",
"K.	c #1E1003",
"L.	c #4B1717",
"M.	c #070202",
"N.	c #A43232",
"O.	c #0D0404",
"P.	c #7A2525",
"Q.	c #531919",
"R.	c #AC3434",
"S.	c #351010",
"T.	c #982E2E",
"U.	c #521919",
"V.	c #862929",
"W.	c #631E1E",
"X.	c #922D2D",
"Y.	c #371111",
"Z.	c #822828",
"`.	c #5D1C1C",
" +	c #2B0D0D",
".+	c #A23131",
"++	c #130606",
"@+	c #100505",
"#+	c #D84242",
"$+	c #0A0303",
"%+	c #A73333",
"&+	c #170707",
"*+	c #5B1C1C",
"=+	c #722323",
"-+	c #7C2626",
";+	c #762424",
">+	c #090303",
",+	c #B23636",
"'+	c #300F0F",
")+	c #A53232",
"!+	c #BD3A3A",
"~+	c #2F0E0E",
"{+	c #0F0404",
"]+	c #B93838",
"^+	c #270C0C",
"/+	c #9E3030",
"(+	c #0B0303",
"_+	c #C43C3C",
":+	c #040101",
"<+	c #4A1717",
"[+	c #956902",
"}+	c #FDB303",
"|+	c #7A7A7A",
"                                                                  ",
"                                                                  ",
"                        . + @ # $ % & + .                         ",
"                      * = - ; > , ' ) ! ~ {                       ",
"                    ] ^ / ( _ : < [ } | 1 2 3                     ",
"                  4 5 6 7 8 9 0 a b c d e f g {                   ",
"                . h i j k l m n o p q r s t u v .                 ",
"                + w x y z A n n B p p C D E F G +                 ",
"                H I J K L n n n M p p p q N O P Q                 ",
"                R S T U n n n n V p p p p W O X Y                 ",
"                $ Z `  .n n n ..+.@.p p p #.O $.%.                ",
"                &.*.=.-.n n ;.>.,.'.).p p !.~.X Y                 ",
"                Q {.].^./.(.>.,.,.,._.:.<.O F P Q                 ",
"                + [.}.|.1.2.,.,.,.,.,.3.4.O 5.G +                 ",
"                . 6.7.8.9.0.a.,.,.,.b.c.d.e.f.g..                 ",
"                  { h.i.j.c.c.k.l.m.c.n.o.p.h.q.                  ",
"                    r.h.f.s.d.t.u.v.w.x.f.h.y.z.                  ",
"                    A.B.g.G P X $.X P G g.C.D.E.                  ",
"                    F.G.. + H.I.%.Y Q J.K.  L.F.M.                ",
"                  E.N.O.    P.Q.      R.S.    T.U.                ",
"                  V.W.      X.Y.      Z.`.     +.+++              ",
"                @+#+$+      %+&+      *+Z.      =+-+              ",
"                ;+P.      >+,+        '+)+      @+!+~+            ",
"              {+]+&+      ^+/+        (+_+:+      <+.+$+          ",
"      [+}+}+}+}+}+[+[+}+}+}+}+}+[+[+}+}+}+}+}+[+[+}+}+}+}+}+[+    ",
"      }+n n n n n }+}+p p p p p }+}+,.,.,.,.,.}+}+|+|+|+|+|+}+    ",
"      }+n n n n n }+}+p p p p p }+}+,.,.,.,.,.}+}+|+|+|+|+|+}+    ",
"      }+n n n n n }+}+p p p p p }+}+,.,.,.,.,.}+}+|+|+|+|+|+}+    ",
"      }+n n n n n }+}+p p p p p }+}+,.,.,.,.,.}+}+|+|+|+|+|+}+    ",
"      }+n n n n n }+}+p p p p p }+}+,.,.,.,.,.}+}+|+|+|+|+|+}+    ",
"      [+}+}+}+}+}+[+[+}+}+}+}+}+[+[+}+}+}+}+}+[+[+}+}+}+}+}+[+    ",
"                                                                  ",
"                                                                  "};
