/* XPM */
static char * SOuP_tensionMap_xpm[] = {
"33 33 9 1",
" 	c None",
".	c #000000",
"+	c #00AA00",
"@	c #000100",
"#	c #55FF55",
"$	c #FFFF55",
"%	c #AA5500",
"&	c #AA0000",
"*	c #FF5555",
".................................",
".................................",
".................................",
".................................",
".................................",
".................+@..............",
"..............+++#+..............",
"...........+++$+#+#+.............",
".........++$#$#$#$+#+............",
"......+++$$+$%$%$#$##+...........",
"...+++$#%$%$+$%$%$%#$#+..........",
"..++#+##$%$%&+%%&%%$#$++.........",
"..+#+##$%%%**+&&%&$%++$#+........",
"...+#+$#$%&*&*+*&*++%$###+.......",
"....+##$%%&&***+++*&%%$$##+......",
"....+#+#$%&*&*+++*&&&$%#$+#+.....",
".....+###$%&++***+&&%%$$##+#+....",
"......+#$%++%&%&*&+%&$%#$+#+#+...",
".......+++$$$%&&%&%+$%$#+#+#++...",
"........+$#$%$%%&%%+%$#$#+#++....",
"........+#$#$%$%$%$%+#+##++......",
".........+#$#$#$%$%$#+#++........",
"..........+###$#$#$#$++..........",
"...........+##+##$#++............",
"...........+#+#+#++..............",
"............+#+++................",
".............++..................",
".................................",
".................................",
".................................",
".................................",
".................................",
"................................."};
