/* XPM */
static char * tensionMapSimple_xpm[] = {
"33 33 462 2",
"  	c #000000",
". 	c #FFFF00",
"+ 	c #A0410D",
"@ 	c #01649D",
"# 	c #0178BD",
"$ 	c #014369",
"% 	c #00090F",
"& 	c #000101",
"* 	c #001826",
"= 	c #015A8E",
"- 	c #027FC7",
"; 	c #015688",
"> 	c #063DBF",
", 	c #0729B5",
"' 	c #075ED1",
") 	c #0498F6",
"! 	c #012F49",
"~ 	c #000407",
"{ 	c #000102",
"] 	c #00060A",
"^ 	c #00090E",
"/ 	c #000508",
"( 	c #000203",
"_ 	c #00080D",
": 	c #02A0FC",
"< 	c #0D89E6",
"[ 	c #1F47B4",
"} 	c #1822A6",
"| 	c #074BC5",
"1 	c #015D92",
"2 	c #0544C5",
"3 	c #08019A",
"4 	c #0D0093",
"5 	c #220283",
"6 	c #2B309A",
"7 	c #1381DE",
"8 	c #059DF8",
"9 	c #03A0FB",
"0 	c #089BF5",
"a 	c #0C98F0",
"b 	c #0D98F0",
"c 	c #0C98F1",
"d 	c #079CF6",
"e 	c #049FFA",
"f 	c #0A99F2",
"g 	c #3367B6",
"h 	c #5F1563",
"i 	c #530160",
"j 	c #370074",
"k 	c #1C0690",
"l 	c #0564D8",
"m 	c #013D5F",
"n 	c #0168A3",
"o 	c #0639B8",
"p 	c #080090",
"q 	c #1C0083",
"r 	c #370071",
"s 	c #5A005B",
"t 	c #79084E",
"u 	c #5B4487",
"v 	c #505796",
"w 	c #7F3862",
"x 	c #A4233F",
"y 	c #AC2138",
"z 	c #A6253E",
"A 	c #813E66",
"B 	c #5F558A",
"C 	c #8E2D55",
"D 	c #AD0022",
"E 	c #910033",
"F 	c #700047",
"G 	c #51005C",
"H 	c #310477",
"I 	c #0B58C8",
"J 	c #014972",
"K 	c #0166A0",
"L 	c #053BB6",
"M 	c #120087",
"N 	c #2E0077",
"O 	c #530062",
"P 	c #7A0049",
"Q 	c #9E002F",
"R 	c #BE001A",
"S 	c #D60009",
"T 	c #E20201",
"U 	c #E30700",
"V 	c #E40E00",
"W 	c #E31100",
"X 	c #E50D00",
"Y 	c #E40500",
"Z 	c #DC0103",
"` 	c #CE000C",
" .	c #B3001E",
"..	c #900033",
"+.	c #6B0049",
"@.	c #430465",
"#.	c #1258C0",
"$.	c #014973",
"%.	c #0168A4",
"&.	c #0639B2",
"*.	c #1D0080",
"=.	c #42006F",
"-.	c #6A0052",
";.	c #960037",
">.	c #BA001D",
",.	c #CE0009",
"'.	c #D80300",
").	c #DA1300",
"!.	c #DB2500",
"~.	c #DC3200",
"{.	c #DB3600",
"].	c #DA3000",
"^.	c #D82100",
"/.	c #D90E00",
"(.	c #DC0101",
"_.	c #CC000C",
":.	c #88003B",
"<.	c #580456",
"[.	c #1958BA",
"}.	c #016DAB",
"|.	c #0A34AE",
"1.	c #2B007E",
"2.	c #520062",
"3.	c #7D0045",
"4.	c #AA0028",
"5.	c #C5000E",
"6.	c #CF0201",
"7.	c #D41300",
"8.	c #D93000",
"9.	c #DF4C00",
"0.	c #E05F00",
"a.	c #DE6400",
"b.	c #D95A00",
"c.	c #D34300",
"d.	c #CF2800",
"e.	c #CD0E00",
"f.	c #D40003",
"g.	c #BF0014",
"h.	c #9C002D",
"i.	c #6F034D",
"j.	c #2155B4",
"k.	c #014C77",
"l.	c #0172B3",
"m.	c #0F2FAE",
"n.	c #330075",
"o.	c #570052",
"p.	c #8C003C",
"q.	c #AC001C",
"r.	c #BE0005",
"s.	c #CB0A00",
"t.	c #D82800",
"u.	c #E55200",
"v.	c #E57500",
"w.	c #E69000",
"x.	c #E79900",
"y.	c #E38A00",
"z.	c #D66700",
"A.	c #CB4000",
"B.	c #BE1D00",
"C.	c #C20500",
"D.	c #C8000B",
"E.	c #9E0021",
"F.	c #7F0243",
"G.	c #2C4EAB",
"H.	c #015382",
"I.	c #000304",
"J.	c #029EFB",
"K.	c #1324A8",
"L.	c #310060",
"M.	c #620050",
"N.	c #940035",
"O.	c #A30014",
"P.	c #B60003",
"Q.	c #CD1200",
"R.	c #E23A00",
"S.	c #D56200",
"T.	c #DE9000",
"U.	c #F0BF00",
"V.	c #E3C000",
"W.	c #DBA900",
"X.	c #E08800",
"Y.	c #CA5300",
"Z.	c #B62800",
"`.	c #AF0A00",
" +	c #C80006",
".+	c #A7001B",
"++	c #790034",
"@+	c #3C3C99",
"#+	c #01659F",
"$+	c #001420",
"%+	c #038DF1",
"&+	c #151597",
"*+	c #32005B",
"=+	c #680052",
"-+	c #970031",
";+	c #960010",
">+	c #AB0101",
",+	c #D51700",
"'+	c #D23C00",
")+	c #B55A00",
"!+	c #DB9B00",
"~+	c #EDD100",
"{+	c #D9D300",
"]+	c #B89C00",
"^+	c #D78E00",
"/+	c #D05E00",
"(+	c #A92A00",
"_+	c #9F0C00",
":+	c #C70006",
"<+	c #B10019",
"[+	c #72002E",
"}+	c #4B247D",
"|+	c #039EFA",
"1+	c #000305",
"2+	c #012C45",
"3+	c #0375E3",
"4+	c #150D8C",
"5+	c #330061",
"6+	c #660053",
"7+	c #A00038",
"8+	c #9F0012",
"9+	c #940002",
"0+	c #CF1300",
"a+	c #D23800",
"b+	c #C75D00",
"c+	c #D88F00",
"d+	c #DEB700",
"e+	c #D6BE00",
"f+	c #C79E00",
"g+	c #D68600",
"h+	c #CB5600",
"i+	c #8F2100",
"j+	c #A20A00",
"k+	c #D20006",
"l+	c #AE001B",
"m+	c #740031",
"n+	c #4F1268",
"o+	c #0B85E7",
"p+	c #001C2C",
"q+	c #0458D1",
"r+	c #140489",
"s+	c #2F0066",
"t+	c #5C0056",
"u+	c #98003E",
"v+	c #BE001D",
"w+	c #9F0004",
"x+	c #AE0A00",
"y+	c #DD2D00",
"z+	c #DD5400",
"A+	c #DD7800",
"B+	c #E09400",
"C+	c #DD9C00",
"D+	c #DD7200",
"E+	c #A43800",
"F+	c #901800",
"G+	c #D10700",
"H+	c #D5000A",
"I+	c #A2001F",
"J+	c #710037",
"K+	c #4F0863",
"L+	c #1364CE",
"M+	c #0634BA",
"N+	c #11008E",
"O+	c #280070",
"P+	c #4F0059",
"Q+	c #820043",
"R+	c #BA0029",
"S+	c #D8000D",
"T+	c #C30200",
"U+	c #C91700",
"V+	c #E03800",
"W+	c #E35600",
"X+	c #E36B00",
"Y+	c #E37100",
"Z+	c #DF6600",
"`+	c #BF4301",
" @	c #AD2700",
".@	c #D91400",
"+@	c #E60202",
"@@	c #BF0011",
"#@	c #940027",
"$@	c #6A0040",
"%@	c #4B0065",
"&@	c #183BAF",
"*@	c #014770",
"=@	c #0371CD",
"-@	c #070E97",
";@	c #0A0099",
">@	c #20007E",
",@	c #400164",
"'@	c #6A004C",
")@	c #970034",
"!@	c #C9001C",
"~@	c #E90007",
"{@	c #E50500",
"]@	c #DD1800",
"^@	c #DD2C00",
"/@	c #DC3B00",
"(@	c #DA3E00",
"_@	c #D63700",
":@	c #DA2900",
"<@	c #EA1500",
"[@	c #E70300",
"}@	c #CC000A",
"|@	c #AA001D",
"1@	c #830033",
"2@	c #5F0050",
"3@	c #3F0074",
"4@	c #160E89",
"5@	c #036BC7",
"6@	c #014F7C",
"7@	c #013654",
"8@	c #0376D5",
"9@	c #041769",
"0@	c #060074",
"a@	c #07009C",
"b@	c #16008F",
"c@	c #320073",
"d@	c #54005B",
"e@	c #7A0042",
"f@	c #A1002A",
"g@	c #C60016",
"h@	c #E20006",
"i@	c #EA0300",
"j@	c #E70C00",
"k@	c #E51500",
"l@	c #E61800",
"m@	c #E81400",
"n@	c #E70B00",
"o@	c #E10201",
"p@	c #B40019",
"q@	c #93002E",
"r@	c #6F0046",
"s@	c #500065",
"t@	c #2D0081",
"u@	c #0C006E",
"v@	c #031061",
"w@	c #0364C3",
"x@	c #014D79",
"y@	c #0629A0",
"z@	c #040057",
"A@	c #050052",
"B@	c #080087",
"C@	c #0B009F",
"D@	c #210088",
"E@	c #3D006E",
"F@	c #600055",
"G@	c #81003E",
"H@	c #BA0019",
"I@	c #DA0005",
"J@	c #DE0103",
"K@	c #DD0203",
"L@	c #DB0003",
"M@	c #D40007",
"N@	c #C6000F",
"O@	c #B1001B",
"P@	c #96002D",
"Q@	c #790043",
"R@	c #5A005D",
"S@	c #3C007C",
"T@	c #17007B",
"U@	c #040054",
"V@	c #06128A",
"W@	c #028FE1",
"X@	c #06007F",
"Y@	c #050051",
"Z@	c #07008E",
"`@	c #11009C",
" #	c #280086",
".#	c #43006C",
"+#	c #610058",
"@#	c #7E0044",
"##	c #950032",
"$#	c #A80025",
"%#	c #B6001C",
"&#	c #BE0017",
"*#	c #C00015",
"=#	c #B3001D",
"-#	c #A50026",
";#	c #900036",
">#	c #770047",
",#	c #5E005F",
"'#	c #420079",
")#	c #1F007D",
"!#	c #070056",
"~#	c #03004E",
"{#	c #070079",
"]#	c #054CCA",
"^#	c #054BB4",
"/#	c #042576",
"(#	c #050357",
"_#	c #070086",
":#	c #130199",
"<#	c #29008A",
"[#	c #410074",
"}#	c #590060",
"|#	c #6F0050",
"1#	c #800043",
"2#	c #8F0039",
"3#	c #950034",
"4#	c #990032",
"5#	c #950036",
"6#	c #8C003B",
"7#	c #7F0046",
"8#	c #6D0054",
"9#	c #570068",
"0#	c #3E007B",
"a#	c #1E0077",
"b#	c #080153",
"c#	c #042371",
"d#	c #044CB1",
"e#	c #0558CE",
"f#	c #029EFA",
"g#	c #0298F4",
"h#	c #027BD1",
"i#	c #034594",
"j#	c #06147D",
"k#	c #0F028D",
"l#	c #22008D",
"m#	c #370080",
"n#	c #490072",
"o#	c #590065",
"p#	c #65005C",
"q#	c #6B0058",
"r#	c #6E0055",
"s#	c #6A0059",
"t#	c #63005E",
"u#	c #570069",
"v#	c #450074",
"w#	c #2D027A",
"x#	c #131072",
"y#	c #04408E",
"z#	c #0277CC",
"A#	c #0298F3",
"B#	c #00263C",
"C#	c #029EF9",
"D#	c #028DE6",
"E#	c #0363BD",
"F#	c #063CA7",
"G#	c #1023A1",
"H#	c #1C1C9E",
"I#	c #281C99",
"J#	c #301C94",
"K#	c #351C91",
"L#	c #361C8F",
"M#	c #341C90",
"N#	c #2D1C93",
"O#	c #202397",
"P#	c #103BA1",
"Q#	c #0661BA",
"R#	c #028AE2",
"S#	c #029DF8",
"T#	c #012A41",
"U#	c #00141F",
"V#	c #013E61",
"W#	c #027EC5",
"X#	c #0285D1",
"Y#	c #0285D0",
"Z#	c #0166A1",
"`#	c #014065",
" $	c #001724",
".$	c #000406",
"                                                                  ",
"                                                                  ",
"                                                                  ",
"                                                                  ",
"                                                                  ",
"        . . .                                       . . .         ",
"        . + . @ # $ %                     & * = - ; . + .         ",
"        . . . > , ' ) ! ~ { ] % % ^ / ( _ : < [ } | . . .         ",
"          1 2 3 4 5 6 7 8 9 0 a b c d e f g h i j k l m           ",
"          n o p q r s t u v w x y z A B C D E F G H I J           ",
"          K L M N O P Q R S T U V W X Y Z `  ...+.@.#.$.          ",
"          %.&.*.=.-.;.>.,.'.).!.~.{.].^./.(._.D :.<.[.$.          ",
"          }.|.1.2.3.4.5.6.7.8.9.0.a.b.c.d.e.f.g.h.i.j.k.          ",
"          l.m.n.o.p.q.r.s.t.u.v.w.x.y.z.A.B.C.D.E.F.G.H.          ",
"        I.J.K.L.M.N.O.P.Q.R.S.T.U.V.W.X.Y.Z.`. +.+++@+#+          ",
"        $+%+&+*+=+-+;+>+,+'+)+!+~+{+]+^+/+(+_+:+<+[+}+|+1+        ",
"        2+3+4+5+6+7+8+9+0+a+b+c+d+e+f+g+h+i+j+k+l+m+n+o+p+        ",
"        $.q+r+s+t+u+v+w+x+y+z+A+B+C+T.D+E+F+G+H+I+J+K+L+m         ",
"        }.M+N+O+P+Q+R+S+T+U+V+W+X+Y+Z+`+ @.@+@@@#@$@%@&@K         ",
"      *@=@-@;@>@,@'@)@!@~@{@]@^@/@(@_@:@<@[@}@|@1@2@3@4@5@6@      ",
"    7@8@9@0@a@b@c@d@e@f@g@h@i@j@k@l@m@n@o@,.p@q@r@s@t@u@v@w@x@    ",
"    # y@z@A@B@C@D@E@F@G@f@H@` I@J@K@L@M@N@O@P@Q@R@S@T@U@U@V@W@    ",
"  . . . X@Y@z@Z@`@ #.#+#@###$#%#&#*#&#=#-#;#>#,#'#)#!#~#{#. . .   ",
"  . + . ]#^#/#(#_#:#<#[#}#|#1#2#3#4#5#6#7#8#9#0#a#b#c#d#e#. + .   ",
"  . . . J.f#g#h#i#j#k#l#m#n#o#p#q#r#s#t#u#v#w#x#y#z#A#f#: . . .   ",
"      _ 1+1+^ B#C#D#E#F#G#H#I#J#K#L#M#N#O#P#Q#R#S#T#% 1+{ ~       ",
"                1+U#V##+W#X#X#X#X#X#X#Y#W#Z#`# $.$                ",
"                                                                  ",
"                                                                  ",
"                                                                  ",
"                                                                  ",
"                                                                  ",
"                                                                  "};
