/* XPM */
static char * SOuP_upresFluid_xpm[] = {
"33 33 7 1",
" 	c None",
".	c #000000",
"+	c #AA0000",
"@	c #FFFF55",
"#	c #00AA00",
"$	c #AA5500",
"%	c #FF5555",
".................................",
".................................",
"..++++++.................++++++..",
"..+@@@@+.................+@@@@+..",
"..+@@@+...................+@@@+..",
"..+@@@@+.................+@@@@+..",
"..+@+@@@+...............+@@@+@+..",
"..++.+@@@+.............+@@@+.++..",
"......+@+#############..+@+......",
".......+##.....$......#..+.......",
"........#.#.$.+%..%....#.........",
"........#..##############........",
"........#..#%..+%+.%+...#........",
"........#$.#+@.+%%$+%.$.#........",
"........#%.#%+.%@+$%%$..#........",
"........#.+#+@%$@%$%@%..#........",
"........#.$#$%@%@$%@%+..#........",
"........#.@#%@+%+@%@%+$.#........",
"........#.$#%@@@%@@%+%..#........",
"........#.%#@@@@@@%@%+..#........",
"........#.+#%@@@@@@@++..#........",
"........#..#+%@@@@@$%#..#........",
".........#.#.+%+%@$%..#.#........",
".......+..##...........##+.......",
"......+@+..#############+@+......",
"..++.+@@@+.............+@@@+.++..",
"..+@@@@@+...............+@@@+@+..",
"..+@@@@+.................+@@@@+..",
"..+@@@+...................+@@@+..",
"..+@@@@+.................+@@@@+..",
"..++++++.................++++++..",
".................................",
"................................."};
