/* XPM */
static char * voronoiTexture3D_xpm[] = {
"33 33 264 2",
"  	c #000000",
". 	c #8C7E01",
"+ 	c #F5DB01",
"@ 	c #FEE301",
"# 	c #E3CB01",
"$ 	c #7B6D00",
"% 	c #0C6D2B",
"& 	c #03692D",
"* 	c #036138",
"= 	c #034856",
"- 	c #034968",
"; 	c #036758",
"> 	c #035656",
", 	c #03376C",
"' 	c #033C69",
") 	c #033B69",
"! 	c #013C6E",
"~ 	c #25523E",
"{ 	c #476900",
"] 	c #3B6902",
"^ 	c #3C6903",
"/ 	c #3A7613",
"( 	c #665B00",
"_ 	c #1E7628",
": 	c #03692F",
"< 	c #036937",
"[ 	c #03693A",
"} 	c #036A37",
"| 	c #036246",
"1 	c #03466A",
"2 	c #033A69",
"3 	c #023B6D",
"4 	c #174C48",
"5 	c #426D00",
"6 	c #527F0D",
"7 	c #E7CC06",
"8 	c #504700",
"9 	c #CEB801",
"0 	c #328025",
"a 	c #036931",
"b 	c #036939",
"c 	c #03673A",
"d 	c #034648",
"e 	c #031067",
"f 	c #033669",
"g 	c #033D69",
"h 	c #023D69",
"i 	c #092F6A",
"j 	c #2F0760",
"k 	c #374A23",
"l 	c #3D6D00",
"m 	c #33690A",
"n 	c #E5CB0A",
"o 	c #BDA519",
"p 	c #8D7E01",
"q 	c #3A3400",
"r 	c #B8A501",
"s 	c #488A21",
"t 	c #03692E",
"u 	c #036936",
"v 	c #055D3F",
"w 	c #2C006B",
"x 	c #2A0369",
"y 	c #1D0469",
"z 	c #021D69",
"A 	c #053769",
"B 	c #2C0169",
"C 	c #2B0765",
"D 	c #334529",
"E 	c #3B6B02",
"F 	c #477205",
"G 	c #D4C10C",
"H 	c #D0B90E",
"I 	c #120747",
"J 	c #F6DC01",
"K 	c #221E00",
"L 	c #A29101",
"M 	c #5E951D",
"N 	c #026D38",
"O 	c #19085D",
"P 	c #290369",
"Q 	c #124146",
"R 	c #096A2B",
"S 	c #C8B90F",
"T 	c #E0C70A",
"U 	c #211443",
"V 	c #0B004A",
"W 	c #635800",
"X 	c #CBB601",
"Y 	c #75A019",
"Z 	c #036932",
"` 	c #036938",
" .	c #036F3A",
"..	c #003537",
"+.	c #240861",
"@.	c #2B026A",
"#.	c #133E46",
"$.	c #AEA814",
"%.	c #E3CA09",
"&.	c #160B47",
"*.	c #0C004F",
"=.	c #35812C",
"-.	c #037137",
";.	c #022149",
">.	c #200064",
",.	c #2C036A",
"'.	c #2C0568",
").	c #ABA318",
"!.	c #E9CF07",
"~.	c #433539",
"{.	c #0C0049",
"].	c #062A32",
"^.	c #958601",
"/.	c #FCE101",
"(.	c #F4D904",
"_.	c #36283D",
":.	c #08004F",
"<.	c #005808",
"[.	c #CAED07",
"}.	c #89E954",
"|.	c #07E0ED",
"1.	c #E29812",
"2.	c #ED6C07",
"3.	c #ED0907",
"4.	c #443539",
"5.	c #0D2939",
"6.	c #064A03",
"7.	c #ABEB2C",
"8.	c #10E1E2",
"9.	c #0BDFE9",
"0.	c #ED6407",
"a.	c #ED0807",
"b.	c #ED0707",
"c.	c #180D41",
"d.	c #181640",
"e.	c #1A5521",
"f.	c #064B05",
"g.	c #BEEC15",
"h.	c #22E2CD",
"i.	c #6D8787",
"j.	c #5D4F12",
"k.	c #362A2D",
"l.	c #160B43",
"m.	c #4D591A",
"n.	c #00494D",
"o.	c #004A04",
"p.	c #D6CE07",
"q.	c #D3D507",
"r.	c #C6ED0C",
"s.	c #46E4A3",
"t.	c #6A828A",
"u.	c #EC0808",
"v.	c #736403",
"w.	c #6F6006",
"x.	c #67580C",
"y.	c #004B4A",
"z.	c #004A2B",
"A.	c #ED9407",
"B.	c #EB9807",
"C.	c #CBEB07",
"D.	c #BFEC14",
"E.	c #19E1D8",
"F.	c #505C19",
"G.	c #00494B",
"H.	c #004A02",
"I.	c #DBC107",
"J.	c #CED718",
"K.	c #DF7471",
"L.	c #E022CA",
"M.	c #DC17E1",
"N.	c #E410E1",
"O.	c #ED07DA",
"P.	c #ED07D7",
"Q.	c #00494A",
"R.	c #004943",
"S.	c #004A03",
"T.	c #CDE507",
"U.	c #CAEC07",
"V.	c #D2BA38",
"W.	c #E730B9",
"X.	c #ED07E0",
"Y.	c #ED0795",
"Z.	c #555D16",
"`.	c #004A12",
" +	c #E8A007",
".+	c #EB7807",
"++	c #ED2F61",
"@+	c #ED0720",
"#+	c #084B45",
"$+	c #004949",
"%+	c #004A01",
"&+	c #ED14CA",
"*+	c #ED09C1",
"=+	c #ED0B07",
"-+	c #595E14",
";+	c #004A34",
">+	c #004A0A",
",+	c #004A09",
"'+	c #014A04",
")+	c #ED072E",
"!+	c #ED07DF",
"~+	c #ED1462",
"{+	c #D70721",
"]+	c #820785",
"^+	c #BA0743",
"/+	c #ED3807",
"(+	c #104D40",
"_+	c #004A37",
":+	c #004A33",
"<+	c #004A2D",
"[+	c #435903",
"}+	c #ED5C07",
"|+	c #ED07D0",
"1+	c #C20ADF",
"2+	c #6816A4",
"3+	c #3908DB",
"4+	c #2A07ED",
"5+	c #2B07EC",
"6+	c #924C72",
"7+	c #0B4C47",
"8+	c #BFA902",
"9+	c #ED5707",
"0+	c #ED079B",
"a+	c #5707EA",
"b+	c #637620",
"c+	c #C4AF01",
"d+	c #0B0A00",
"e+	c #ED0749",
"f+	c #A707E5",
"g+	c #18533E",
"h+	c #F4DA01",
"i+	c #5C5200",
"j+	c #ED0744",
"k+	c #ED16C8",
"l+	c #340EE1",
"m+	c #034B48",
"n+	c #FDE201",
"o+	c #8B7D01",
"p+	c #ED0769",
"q+	c #ED526C",
"r+	c #7F4489",
"s+	c #2B08EC",
"t+	c #6D389E",
"u+	c #5E2DB0",
"v+	c #948501",
"w+	c #ED1007",
"x+	c #ED09DD",
"y+	c #ED910C",
"z+	c #E8910C",
"A+	c #D78421",
"B+	c #E48D12",
"C+	c #2E0AE8",
"D+	c #E3D208",
"E+	c #ED1607",
"F+	c #ED1FBB",
"G+	c #ED2BA9",
"H+	c #8B4D7A",
"I+	c #B1B013",
"J+	c #ED1E07",
"K+	c #ED10D2",
"L+	c #ED7832",
"M+	c #3B13D9",
"N+	c #2C08EB",
"O+	c #594F00",
"                                                                  ",
"                                                                  ",
"                    . + @ @ @ @ @ @ @ @ @ @ @ @ @ @ @ @ # $       ",
"                  $ + % & * = - ; > , ' ' ) ! ~ { ] ^ ^ / #       ",
"                ( # _ & : < [ } | 1 2 ' ' 3 4 5 ^ ^ ^ 6 7 $       ",
"              8 9 0 & a [ [ b c d e f g h i j k l ^ m n o p       ",
"            q r s & t u [ [ [ v w x y z A B C D E F G H I J       ",
"          K L M & & u [ [ [ N O P x x x x x x Q R S T U V @       ",
"        W X Y Z ` [ [ [ [  ...+.@.x x x x x x #.$.%.&.V *.@       ",
"        X =.[ [ [ [ [ [ -.;.>.,.x x x x x x '.).!.~.V {.].@       ",
"      ^.@ @ @ @ @ @ @ @ @ @ @ @ @ @ @ @ @ @ /.(._.V V :.<.@       ",
"      @ [.[.[.[.[.}.|.|.|.|.|.|.|.|.1.2.3.3.@ 4.V V V 5.6.@       ",
"      @ [.[.[.[.[.[.7.8.|.|.|.|.|.9.0.a.b.b.@ c.V V d.e.f.@       ",
"      @ [.[.[.[.[.[.[.g.h.|.|.|.|.i.a.b.b.b.@ j.k.l.m.n.o.@       ",
"      @ p.q.[.[.[.[.[.[.r.s.|.|.t.u.b.b.b.b.@ v.w.x.y.z.o.@       ",
"      @ A.B.C.[.[.[.[.[.[.D.E.|.u.b.b.b.b.b.@ v.v.F.G.H.o.@       ",
"      @ A.A.I.[.[.[.[.J.K.L.M.N.O.P.b.b.b.b.@ v.v.Q.R.S.o.@       ",
"      @ A.A.A.T.U.V.W.X.X.X.X.X.X.Y.b.b.b.b.@ v.Z.Q.`.o.o.@       ",
"      @ A.A.A. +.+++X.X.X.X.X.X.X.@+b.b.b.b.@ v.#+$+%+H.o.@       ",
"      @ A.A.A.2.3.3.&+X.X.X.X.X.*+b.b.b.b.=+@ -+Q.;+>+,+'+@       ",
"      @ A.A.0.a.b.)+!+X.X.X.X.X.~+b.{+]+^+/+@ (+Q._+:+<+[+@       ",
"      @ A.}+a.b.b.|+X.X.X.X.X.1+2+3+4+4+5+6+@ Q.Q.Q.n.7+8+^.      ",
"      @ 9+a.b.b.0+X.X.X.X.X.a+4+4+4+4+4+4+4+@ Q.Q.Q.Q.b+c+d+      ",
"      @ a.b.b.e+X.X.X.X.X.X.f+4+4+4+4+4+4+4+@ Q.Q.Q.g+h+i+        ",
"      @ a.b.b.j+!+X.X.X.X.X.k+l+4+4+4+4+4+4+@ Q.Q.m+n+o+          ",
"      @ =+b.b.b.p+X.X.X.X.X.q+r+s+t+u+4+4+4+@ Q.Q.@ v+            ",
"      @ w+b.b.b.b.Y.X.X.X.x+y+z+A+A.B+C+4+4+@ Q.D+^.              ",
"      @ E+b.b.b.b.=+F+X.X.G+A.A.A.A.A.H+4+4+@ I+^.                ",
"      @ J+b.b.b.b./+y+K+X.L+A.A.A.A.A.A.M+N+@ O+                  ",
"      ^.@ @ @ @ @ @ @ @ @ @ @ @ @ @ @ @ @ @ ^.                    ",
"                                                                  ",
"                                                                  ",
"                                                                  "};
