/* XPM */
static char *shader_standard_xpm[] = {
/* width height num_colors chars_per_pixel */
"    32    32      256            2",
/* colors */
"`` c #1c4424",
"`. c #24a334",
"`# c #7ca28c",
"`a c #3cd24c",
"`b c #1c752c",
"`c c #54a67c",
"`d c #44eb69",
"`e c #2cbc3c",
"`f c #7ce66c",
"`g c #5c7264",
"`h c #5cd45c",
"`i c #248b34",
"`j c #44bc64",
"`k c #b4d6bc",
"`l c #3ca64c",
"`m c #1c5c28",
"`n c #a4b2a4",
"`o c #3ce060",
"`p c #7cf589",
"`q c #64ea80",
"`r c #448e5c",
"`s c #44724c",
"`t c #44c864",
"`u c #3cb048",
"`v c #94f27c",
"`w c #3c5e3c",
"`x c #4cd454",
"`y c #34c844",
"`z c #5cd684",
"`A c #a4c2b4",
"`B c #1c6729",
"`C c #24812f",
"`D c #249834",
"`E c #54c664",
"`F c #7cfc91",
"`G c #64f682",
"`H c #7cbe9c",
"`I c #1c5025",
"`J c #2cb13c",
"`K c #44b16d",
"`L c #54ea74",
"`M c #5c9678",
"`N c #64de58",
"`O c #4cde6c",
"`P c #44c670",
"`Q c #3cbd64",
"`R c #a4fa8c",
"`S c #4cd46c",
"`T c #44c264",
"`U c #a4bba9",
"`V c #3cd464",
"`W c #2c7234",
"`X c #4ca469",
"`Y c #449a54",
"`Z c #2c6634",
"`0 c #3cbb48",
"`1 c #345a3c",
"`2 c #74ee74",
"`3 c #3cc862",
"`4 c #bcc4bc",
"`5 c #8cfc98",
"`6 c #bcfaac",
"`7 c #34a33f",
"`8 c #6ca274",
".` c #348e44",
".. c #44bb6d",
".# c #1c6229",
".a c #3ce664",
".b c #64de8c",
".c c #349644",
".d c #94be9c",
".e c #305634",
".f c #44b66a",
".g c #94fea4",
".h c #54ce64",
".i c #54f375",
".j c #4cda71",
".k c #94a29c",
".l c #237a2f",
".m c #54b284",
".n c #8cdaa4",
".o c #269235",
".p c #84eea4",
".q c #3c8048",
".r c #44ce4c",
".s c #1c6e2c",
".t c #348644",
".u c #74f88c",
".v c #1c5625",
".w c #849484",
".x c #6cde74",
".y c #b4bcb7",
".z c #44aa6c",
".A c #2caa3c",
".B c #34c244",
".C c #5c8064",
".D c #74d66c",
".E c #245d2d",
".F c #44e065",
".G c #24692d",
".H c #248633",
".I c #279e35",
".J c #7cfe9c",
".K c #4cb068",
".L c #44ce6c",
".M c #a4feaf",
".N c #40da64",
".O c #549674",
".P c #1e4a25",
".Q c #2ca437",
".R c #4ced6d",
".S c #34bd40",
".T c #94ea6c",
".U c #5cda5c",
".V c #4cbb61",
".W c #8cf28c",
".X c #64f284",
".Y c #4cae5c",
".Z c #3cce4a",
".0 c #6cf989",
".1 c #2eb63d",
".2 c #4c9e68",
".3 c #bcccbc",
".4 c #6ce67c",
".5 c #5cf37a",
".6 c #64ae6c",
".7 c #3cda5c",
".8 c #24732f",
"#` c #7cea84",
"#. c #7cce7c",
"## c #64ce64",
"#a c #8cc6a4",
"#b c #9cca94",
"#c c #4c694f",
"#d c #accab4",
"#e c #74d694",
"#f c #548e6c",
"#g c #64be74",
"#h c #9cb09c",
"#i c #8cae98",
"#j c #74927c",
"#k c #94fa94",
"#l c #6cca8c",
"#m c #b4b6b4",
"#n c #54745c",
"#o c #5ce274",
"#p c #b4c2bc",
"#q c #bce2b8",
"#r c #54be84",
"#s c #64a28c",
"#t c #74a694",
"#u c #4ce670",
"#v c #9cdab4",
"#w c #74f28a",
"#x c #bcfea4",
"#y c #8ca294",
"#z c #44aa54",
"#A c #acb6b4",
"#B c #449250",
"#C c #3cb64c",
"#D c #2c7a38",
"#E c #2c6e34",
"#F c #5ce67c",
"#G c #64ae8c",
"#H c #4c9868",
"#I c #98cea8",
"#J c #4c7a54",
"#K c #54da54",
"#L c #389e48",
"#M c #9caaa4",
"#N c #59b689",
"#O c #889a88",
"#P c #64866c",
"#Q c #647a64",
"#R c #54de84",
"#S c #48ce60",
"#T c #60da74",
"#U c #5ce674",
"#V c #8cfea8",
"#W c #44d64c",
"#X c #44a45c",
"#Y c #84f284",
"#Z c #44b054",
"#0 c #acc6a4",
"#1 c #84be8c",
"#2 c #5cee74",
"#3 c #acfe9c",
"#4 c #54d46c",
"#5 c #acbab4",
"#6 c #347644",
"#7 c #74e26c",
"#8 c #3cc24c",
"a` c #3cce60",
"a. c #34aa44",
"a# c #94c6a4",
"aa c #54c680",
"ab c #3cc264",
"ac c #6ce694",
"ad c #bcfebc",
"ae c #9cfe9f",
"af c #54da74",
"ag c #4caa6a",
"ah c #2c863c",
"ai c #4cce74",
"aj c #acfeaf",
"ak c #6cf284",
"al c #346e44",
"am c #64e684",
"an c #24422c",
"ao c #84ea70",
"ap c #2c8c3a",
"aq c #acb1ac",
"ar c #6cee84",
"as c #4c7654",
"at c #4cc75f",
"au c #54d45c",
"av c #3cc84c",
"aw c #2c9838",
"ax c #84fb94",
"ay c #24512c",
"az c #4cc96c",
"aA c #44d365",
"aB c #c4c2c4",
"aC c #3c924c",
"aD c #4cbe74",
"aE c #8cf2ac",
"aF c #bcbebc",
"aG c #647e6c",
"aH c #84faa4",
"aI c #84e67c",
"aJ c #b4cebc",
"aK c #9cfb8f",
"aL c #3cd45c",
"aM c #647664",
"aN c #5cd66c",
"aO c #4c8a5c",
"aP c #64d484",
"aQ c #34b23c",
"aR c #a4fe9c",
"aS c #4cd67c",
"aT c #4ca274",
"aU c #74ec84",
"aV c #bcf6bc",
"aW c #5cae84",
"aX c #3c7e54",
"aY c #64de74",
"aZ c #84ba9c",
"a0 c #5cea84",
"a1 c #64967c",
"a2 c #54de74",
"a3 c #4cc261",
"a4 c #4c9a5c",
"a5 c #34663c",
"a6 c #24622c",
"a7 c #44e665",
"a8 c #4cb664",
/* pixels */
"aBaFaBaFaBaFaBaFaBaFaB#p#I#I#eaP`z`z#l#aa##paBaFaBaFaBaFaBaFaBaF",
"`4aBaFaBaFaBaFaBaF#d.n.b`L.b#RafaSaSaaaa.Laa`H`UaBaFaBaFaBaFaBaF",
"aBaFaBaFaBaFaB`4#v.Xaca0`La7a7.F.F.N.N`V`t`P#r..aZ.yaBaFaBaFaBaF",
"aFaBaFaBaFaBaJaE.p.X.5.R.R`da7a7`o`o.N`V`V`3`t..#N#N`AaBaFaBaFaB",
"aBaFaBaFaB`k.gaH`G.5.i.R`d`da7.a`o.N.NaL`Va``3`3..#N.m`n`4aBaFaB",
"aFaBaFaB.3.M#V.0`G.i.i`d.R`d.a.F`o`oaLaLa`a``3ab...f.maW#5aBaFaB",
"aBaFaB`4aV.M.J.0.5.i.i.R.R.R.F`o.F.7`VaLa``3`3ab`Q.f`KaW#t.yaBaF",
"`4aBaF#qad#V.J.0`G.i.i.5.X#U.R.F.7.7aLaLa``3`3`Q`Q.f`Kag#s#iaFaB",
"aBaF.3`6aj#V`F`F.5.5.0.u`FaU#U.F.NaL`Va``3`3abab`Q.f`K.z`c`M#AaF",
"aFaB#q`6aj.gax.0.0.X.uaxaxaU`L.NaAaLa`a``3`3ab`Q.f.f`K.z.2a1`#`4",
"aB`4`6#x.Mae`5`F.0`q#w`p#wam`OaAaAaLa``3`3ab`j`Q.f`K.z#XaT.O`M.y",
"aB`A.DaKaKae.g`F#wak`q`q#Fa2.j.NaAa``t`3`tab`j`j`K`K.z`X#H#f`s#y",
"aF#b.D#Y`paRae`5`par`q#Ua2.jaAaAaA`t.L`t`j`j...f`K.K`X.2#HaO`s#j",
"aB#.auao`2#k#3#k#YaUam#oaf#K`S`S.L`t`t`T..`j.f.K.K#X`X`Y`r#6al.C",
"aF.h.h`N.T`v`RaK.W#`.xaY#T#4`Saiazaza3aD`j.V.K`K`X`X`Y`r.q#6`Z#J",
"aB`h.r#W`N`N`faoaI#7.x#TaN#4.hazata3a3.Va8`K.Y#z#X#BaC.t#D#E`Z`s",
"aF`E#8`a`a#Kau.U`hauau#Satatatat.V`j.V#Z#Z#z`l#L.`.`ah#D`W.G.E`s",
"aB#g`0`y.Z`a.Z.r.Zavavav#8#8.S`0#CaQ`ua.`7`7aw.oapah#D.8.G.#.Eas",
"aF#1.S.B`y`y`y`y`y.B.B.S.S.S.1`J`Ja..Q.Q.Iaw.oap`C`C.8.G`B.E.EaG",
"aB.d.S.S`e`y`e.B.S`e.S`e`J`J`J.A.Q.Q.Q`D.o`i`i`C.l.8`B.G`m.Eay#O",
"aF.y#CaQ`e`e`e`e`e.1`J`J`J`J.Q.Q`..I`D.o`i`i`C.l.8`B.G`m`m.E.E`n",
"aBaB.6.IaQ`J.1`J`J`J`J.A.Q`.`..I`D`D`i`i.H`C`b.8`B.#`m`m.Eay#naB",
"aFaB`U#L.Q.A.A.A.A`..Q`.`..I`D`D.o`i.H`C.l`b`B`B.#`m`m`mayay#MaB",
"aBaFaB`8apaw`..Q`..Q.I.I`D`D.o`i.H`C.l`b.s`B`B`m`m`m.v.vayaGaBaF",
"aFaBaF.y#B`i.oaw`D.o`D.o`i`i.H`C`b`b`b`B`B.#`m`m.v.v`Iay`1#maBaF",
"aBaFaBaF#hap`C.H.H`i.H.H`C`C`b`b`b`B`B.#`m`m.v`I`I`I`Iay.kaBaFaB",
"`4aBaFaBaB#iah`W.8.l`b`b`b`b`B`B`B.#.v.v.v`I`I`I`I.Pay#OaBaBaFaB",
"aBaFaBaFaBaF`n.q.E`B.G`B.#.#.#`m.v.v.v`I`I`I`I.P```1.kaBaFaBaFaB",
"aFaBaFaBaFaBaB.y#P.G`I.v.v.v.v`I`I`I`I`I.P````.P`g#maFaBaFaBaFaB",
"aBaFaBaFaBaFaFaFaF#h#n.E.v.P.P.P.P``````.P.P#c.k`4aBaFaBaFaBaFaB",
"aFaBaFaBaFaBaBaBaFaFaBaq#O#Q#c`w.e`1#c`g#jaqaFaBaFaBaFaBaFaBaFaB",
"aBaFaBaFaBaFaFaBaBaFaBaBaFaFaFaFaBaFaFaFaFaBaFaBaFaBaFaBaFaBaFaB"
};
