/* XPM */
static char * render_ArnoldDisplacementShader_xpm[] = {
"32 32 102 2",
"  	c None",
". 	c #181818",
"+ 	c #171717",
"@ 	c #191919",
"# 	c #0A0A0A",
"$ 	c #060606",
"% 	c #0B0B0B",
"& 	c #090909",
"* 	c #151515",
"= 	c #131313",
"- 	c #101010",
"; 	c #2B2B2B",
"> 	c #040404",
", 	c #242424",
"' 	c #686868",
") 	c #B4B4B4",
"! 	c #717171",
"~ 	c #0F0F0F",
"{ 	c #121212",
"] 	c #333333",
"^ 	c #2D2D2D",
"/ 	c #2A2A2A",
"( 	c #272727",
"_ 	c #545454",
": 	c #5A5A5A",
"< 	c #5F5F5F",
"[ 	c #696969",
"} 	c #DCDCDC",
"| 	c #D4D4D4",
"1 	c #1B1B1B",
"2 	c #2E2E2E",
"3 	c #1E1E1E",
"4 	c #252525",
"5 	c #404040",
"6 	c #555555",
"7 	c #646464",
"8 	c #020202",
"9 	c #616161",
"0 	c #EBEBEB",
"a 	c #E1E1E1",
"b 	c #676767",
"c 	c #6D6D6D",
"d 	c #0C0C0C",
"e 	c #D3D3D3",
"f 	c #6E6E6E",
"g 	c #2F2F2F",
"h 	c #080808",
"i 	c #3D3D3D",
"j 	c #5C5C5C",
"k 	c #E2E2E2",
"l 	c #EAEAEA",
"m 	c #626262",
"n 	c #000000",
"o 	c #848484",
"p 	c #C7C7C7",
"q 	c #FFFFFF",
"r 	c #C3C3C3",
"s 	c #8B8B8B",
"t 	c #4A4A4A",
"u 	c #010101",
"v 	c #727272",
"w 	c #575757",
"x 	c #BBBBBB",
"y 	c #6A6A6A",
"z 	c #141414",
"A 	c #5E5E5E",
"B 	c #535353",
"C 	c #070707",
"D 	c #424242",
"E 	c #858585",
"F 	c #585858",
"G 	c #222222",
"H 	c #161616",
"I 	c #282828",
"J 	c #050505",
"K 	c #3A3A3A",
"L 	c #414141",
"M 	c #030303",
"N 	c #606060",
"O 	c #1D1D1D",
"P 	c #1A1A1A",
"Q 	c #888888",
"R 	c #3C3C3C",
"S 	c #7A7A7A",
"T 	c #C6C6C6",
"U 	c #828282",
"V 	c #3F3F3F",
"W 	c #ACACAC",
"X 	c #505050",
"Y 	c #737373",
"Z 	c #C4C4C4",
"` 	c #232323",
" .	c #5D5D5D",
"..	c #FEFEFE",
"+.	c #969696",
"@.	c #CECECE",
"#.	c #BEBEBE",
"$.	c #666666",
"%.	c #777777",
"&.	c #2C2C2C",
"*.	c #595959",
"=.	c #797979",
". . . . . . . . . . . . . + @ @ @ @ @ + . . . @ @ # $ . . . . . ",
". . . . . . . . . . % & & # * = = - ; > $ > , ' ' ) ! @ . . . . ",
". . . . . . . . . @ = ~ { ] ^ / ^ ( _ : < [ } | | | ' @ . . . . ",
". . . . . . . . . 1 2 3 4 @ 5 ^ ^ ( 6 6 : 7 | | | | ' @ . . . . ",
". . . . . . . 8 , ' 9 0 a } b ^ ^ ( _ 6 : 7 | | | | ' @ . . . . ",
". . . . . . @ c } | | | | | b ^ / d : 6 : 7 | | | | ' @ . . . . ",
". . . . . . @ ' | | | | | | b ^ / ~ : 6 : 7 | | | | ' @ . . . . ",
". . . . . . @ ' | | | | | | b ^ / ~ : 6 : 7 | | | e f @ . . . . ",
". . . . . . @ ' | | | | | | b g # h i : j 7 k l m c n . . . . . ",
". . . . . . @ ' | | | | | | m o p q r s _ t u n 1 @ + . . . . . ",
". . . . . . @ ' | | | | | | : q q ' v w x # / = @ . . . . . . . ",
". . . + @ = n y | | | e k 0 z A B 0 k e a C / = @ . . . . . . . ",
". . . d D E q F k 0 9 b + @ G l | | | | a C / = @ . . . . . . . ",
". . @ H I J K L u M ~ N _ 6 O a | | | | a C / = @ . . . . . . . ",
". . @ = / / ^ ^ / / ~ : 6 6 O a | | | | a C / H P . . . . . . . ",
". . @ = / / / / / / ~ : 6 6 O a | | | | a n n Q R n 1 + . . . . ",
". . @ = / / / / / / ~ : 6 6 O a | | | | a S q q T U V @ . . . . ",
". . @ = / / / / / / ~ : 6 6 O a | | | | l U ' w W k ' @ . . . . ",
". . @ = / / / / / 2 > i : _ O a e k 0 A ] = 0 } | | ' @ . . . . ",
". . @ = / / 2 u X Y q Z g @ ` r c n 1  .j 7 | | | | ' @ . . . . ",
". . @ z u X Y q q q ..q T U L d ^ ~ : 6 : 7 | | | | ' @ . . . . ",
". . . n +.@.q ..q #.v w W k $.^ / ~ : 6 : 7 | | | | ' @ . . . . ",
". . . + @ # R %.w W k e | | b ^ / ~ : 6 : 7 | | | | ' @ . . . . ",
". . . . . . P f e | | | | | b ^ / ~ : 6 : 7 | | e 0 1 @ . . . . ",
". . . . . . @ ' | | | | | | b &.^ = I  .*.7 e 0 b n 1 + . . . . ",
". . . . . . @ ' | | | | | | b O h P P M ^ =.b n 1 + . . . . . . ",
". . . . . . @ ' | | | | | | ' P . . . + P > 1 + . . . . . . . . ",
". . . . . . @ ' | | | | | | ' @ . . . . . . . . . . . . . . . . ",
". . . . . . @ ' | | | | } l 1 @ . . . . . . . . . . . . . . . . ",
". . . . . . @ ' | } l m , n 1 + . . . . . . . . . . . . . . . . ",
". . . . . . @ S m , n 1 . . . . . . . . . . . . . . . . . . . . ",
". . . . . . . > 1 . . . . . . . . . . . . . . . . . . . . . . . "};
