/* XPM */
static char *shader_AO_xpm[] = {
/* width height num_colors chars_per_pixel */
"    32    32      256            2",
/* colors */
"`` c #c0c0c0",
"`. c #c4c4c4",
"`# c #d4d4d4",
"`a c #e2e2e2",
"`b c #ececec",
"`c c #f4f4f4",
"`d c #f5f5f5",
"`e c #efefef",
"`f c #e6e6e6",
"`g c #d8d8d8",
"`h c #c9c9c9",
"`i c #c3c3c3",
"`j c #f9f9f9",
"`k c #ffffff",
"`l c #fdfdfd",
"`m c #eaeaea",
"`n c #cdcdcd",
"`o c #d0d0d0",
"`p c #dcdcdc",
"`q c #fefefe",
"`r c #e8e8e8",
"`s c #d2d2d2",
"`t c #e7e7e7",
"`u c #c8c8c8",
"`v c #fafafa",
"`w c #d9d9d9",
"`x c #ebebeb",
"`y c #fbfbfb",
"`z c #fcfcfc",
"`A c #c7c7c7",
"`B c #cbcbcb",
"`C c #e4e4e4",
"`D c #e3e3e3",
"`E c #f7f7f7",
"`F c #f8f8f8",
"`G c #c2c2c2",
"`H c #f0f0f0",
"`I c #f6f6f6",
"`J c #cccccc",
"`K c #f1f1f1",
"`L c #f2f2f2",
"`M c #f3f3f3",
"`N c #ededed",
"`O c #eeeeee",
"`P c #e9e9e9",
"`Q c #d6d6d6",
"`R c #e5e5e5",
"`S c #d3d3d3",
"`T c #c5c5c5",
"`U c #dddddd",
"`V c #dfdfdf",
"`W c #e0e0e0",
"`X c #e1e1e1",
"`Y c #dedede",
"`Z c #c1c1c1",
"`0 c #dadada",
"`1 c #dbdbdb",
"`2 c #d7d7d7",
"`3 c #d5d5d5",
"`4 c #c6c6c6",
"`5 c #cacaca",
"`6 c #cfcfcf",
"`7 c #d1d1d1",
"`8 c #cecece",
".` c #bfbfbf",
".. c #bebebe",
".# c #b4b4b4",
".a c #b6b6b6",
".b c #b8b8b8",
".c c #bababa",
".d c #bcbcbc",
".e c #bdbdbd",
".f c #bbbbbb",
".g c #b9b9b9",
".h c #a8a8a8",
".i c #acacac",
".j c #aeaeae",
".k c #b0b0b0",
".l c #b1b1b1",
".m c #b2b2b2",
".n c #a9a9a9",
".o c #a5a5a5",
".p c #adadad",
".q c #979797",
".r c #9b9b9b",
".s c #a0a0a0",
".t c #a2a2a2",
".u c #a4a4a4",
".v c #a6a6a6",
".w c #a3a3a3",
".x c #a1a1a1",
".y c #9d9d9d",
".z c #949494",
".A c #868686",
".B c #888888",
".C c #909090",
".D c #939393",
".E c #959595",
".F c #969696",
".G c #929292",
".H c #8b8b8b",
".I c #838383",
".J c #878787",
".K c #777777",
".L c #7a7a7a",
".M c #808080",
".N c #848484",
".O c #818181",
".P c #7c7c7c",
".Q c #7d7d7d",
".R c #9f9f9f",
".S c #b7b7b7",
".T c #898989",
".U c #6e6e6e",
".V c #626262",
".W c #616161",
".X c #686868",
".Y c #7f7f7f",
".Z c #858585",
".0 c #707070",
".1 c #6f6f6f",
".2 c #747474",
".3 c #ababab",
".4 c #afafaf",
".5 c #b5b5b5",
".6 c #000000",
".7 c #000000",
".8 c #000000",
"#` c #000000",
"#. c #000000",
"## c #000000",
"#a c #000000",
"#b c #000000",
"#c c #000000",
"#d c #000000",
"#e c #000000",
"#f c #000000",
"#g c #000000",
"#h c #000000",
"#i c #000000",
"#j c #000000",
"#k c #000000",
"#l c #000000",
"#m c #000000",
"#n c #000000",
"#o c #000000",
"#p c #000000",
"#q c #000000",
"#r c #000000",
"#s c #000000",
"#t c #000000",
"#u c #000000",
"#v c #000000",
"#w c #000000",
"#x c #000000",
"#y c #000000",
"#z c #000000",
"#A c #000000",
"#B c #000000",
"#C c #000000",
"#D c #000000",
"#E c #000000",
"#F c #000000",
"#G c #000000",
"#H c #000000",
"#I c #000000",
"#J c #000000",
"#K c #000000",
"#L c #000000",
"#M c #000000",
"#N c #000000",
"#O c #000000",
"#P c #000000",
"#Q c #000000",
"#R c #000000",
"#S c #000000",
"#T c #000000",
"#U c #000000",
"#V c #000000",
"#W c #000000",
"#X c #000000",
"#Y c #000000",
"#Z c #000000",
"#0 c #000000",
"#1 c #000000",
"#2 c #000000",
"#3 c #000000",
"#4 c #000000",
"#5 c #000000",
"#6 c #000000",
"#7 c #000000",
"#8 c #000000",
"a` c #000000",
"a. c #000000",
"a# c #000000",
"aa c #000000",
"ab c #000000",
"ac c #000000",
"ad c #000000",
"ae c #000000",
"af c #000000",
"ag c #000000",
"ah c #000000",
"ai c #000000",
"aj c #000000",
"ak c #000000",
"al c #000000",
"am c #000000",
"an c #000000",
"ao c #000000",
"ap c #000000",
"aq c #000000",
"ar c #000000",
"as c #000000",
"at c #000000",
"au c #000000",
"av c #000000",
"aw c #000000",
"ax c #000000",
"ay c #000000",
"az c #000000",
"aA c #000000",
"aB c #000000",
"aC c #000000",
"aD c #000000",
"aE c #000000",
"aF c #000000",
"aG c #000000",
"aH c #000000",
"aI c #000000",
"aJ c #000000",
"aK c #000000",
"aL c #000000",
"aM c #000000",
"aN c #000000",
"aO c #000000",
"aP c #000000",
"aQ c #000000",
"aR c #000000",
"aS c #000000",
"aT c #000000",
"aU c #000000",
"aV c #000000",
"aW c #000000",
"aX c #000000",
"aY c #000000",
"aZ c #000000",
"a0 c #000000",
"a1 c #000000",
"a2 c #000000",
"a3 c #000000",
"a4 c #000000",
"a5 c #000000",
"a6 c #000000",
"a7 c #000000",
"a8 c #000000",
/* pixels */
"`````````````````````````.`#`a`b`c`d`e`f`g`h````````````````````",
"`````````````````````i`a`j`k`k`k`k`k`k`k`k`l`m`n````````````````",
"```````````````````o`d`k`k`k`k`k`k`k`k`k`k`k`k`l`p``````````````",
"`````````````````g`q`k`k`k`k`k`k`k`k`k`k`k`k`k`k`q`r````````````",
"```````````````s`q`k`q`q`q`q`q`q`q`q`l`q`q`q`q`q`q`k`t``````````",
"`````````````u`v`k`l`l`l`l`l`l`l`l`l`l`l`l`l`l`l`l`q`q`w````````",
"`````````````x`k`y`z`z`z`z`z`z`z`z`z`z`z`z`z`z`y`z`y`q`v`A``````",
"```````````B`k`y`v`v`v`v`v`v`v`v`v`v`v`v`v`v`v`v`v`v`j`k`C``````",
"```````````D`k`E`E`E`F`F`F`F`F`F`F`F`F`F`F`F`F`F`F`F`E`v`c`i````",
"`````````G`H`I`c`c`d`d`I`I`I`I`I`I`I`I`I`d`d`I`d`d`d`c`c`c`J````",
"`````````u`H`H`H`K`L`L`L`M`L`L`M`M`M`M`L`L`L`L`L`L`L`K`H`H`#````",
"`````````J`b`b`N`O`O`O`e`e`e`H`H`H`e`e`e`e`e`e`e`e`O`N`b`H`w````",
"`````````B`t`t`r`P`m`x`x`x`b`b`b`b`b`b`b`b`x`x`x`m`m`r`r`t`Q````",
"`````````h`a`a`D`C`R`f`f`t`t`t`t`t`t`t`t`t`f`f`f`R`C`D`a`D`S````",
"`````````T`p`p`U`V`W`X`X`a`a`a`a`a`a`a`a`a`a`X`X`W`V`Y`p`D`o````",
"`````````Z`#`Q`Q`g`w`0`p`p`p`p`U`U`p`p`p`p`1`1`1`0`w`2`3`3`4````",
"```````````5`o`6`7`s`#`3`3`Q`Q`Q`2`Q`Q`Q`Q`3`#`#`S`s`o`6`8`Z````",
"```````````.`o`4`u`5`J`n`n`8`6`6`6`6`6`8`8`8`n`J`5`h`A`B`A``````",
"````````````.`.`..`Z`i`.`T`4`4`A`A`A`A`4`4`T`.`i`Z.`.``5`G``````",
"``````````````.`.#.a.b.c.d.d.e...e...e.e.d.f.c.g.a.#.``T````````",
"````````````````.#.h.i.j.k.l.m.m.m.m.m.m.l.k.j.i.n.o.p.`````````",
"`````````````````s.q.r.s.t.u.o.v.v.v.v.o.u.w.x.y.z`3`.``````````",
"```````````i`n`2`w.g.A.B.C.D.E.F.q.q.q.F.z.G.H.I.w`g`g`p`w`8`.``",
"`````.`o`V`D`Y`W`#`n.k.J.K.L.M.I.N.N.I.O.P.K.Q.R`u`s`0`C`b`x`r`a",
"`h`a`O`e`e`f`Y`Q`n`G.S.v.T.U.V.W.W.W.W.W.X.Y.y.m..`h`#`p`a`x`x`f",
"`4`S`W`b`e`P`W`w`7`u.e.l.u.E.Z.K.0.1.2.Y.C.R.p.b`.`8`Q`V`m`C`s`G",
"```````.`3`V`V`w`U`#`n`4...S.l.i.n.n.3.4.5.f`i`5`7`w`C`U`2`G````",
"`````````````T`B`Q`#`X`1`3`7`8`J`B`B`J`n`o`S`2`p`C`g`#`.````````",
"```````````````````.`7`Q`3`f`X`V`Y`Y`V`V`X`D`m`p`g`T````````````",
"`````````````````````````.`#`U`V`O`b`x`x`H`D`V`4````````````````",
"`````````````````````````````G`h`p`t`x`x`f`J````````````````````",
"```````````````````````````````````.`6`s`G``````````````````````"
};
