/* XPM */
static char *shader_wire_xpm[] = {
/* width height num_colors chars_per_pixel */
"    32    32      256            2",
/* colors */
"`` c #c0c0c0",
"`. c #a1a1a1",
"`# c #9b9b9b",
"`a c #a7a7a7",
"`b c #7d7d7d",
"`c c #575757",
"`d c #4a4a4a",
"`e c #707070",
"`f c #9a9a9a",
"`g c #999999",
"`h c #a6a6a6",
"`i c #939393",
"`j c #737373",
"`k c #9d9d9d",
"`l c #838383",
"`m c #494949",
"`n c #aeaeae",
"`o c #404040",
"`p c #8b8b8b",
"`q c #5c5c5c",
"`r c #a2a2a2",
"`s c #9e9e9e",
"`t c #b2b2b2",
"`u c #cfcfcf",
"`v c #d0d0d0",
"`w c #ffffff",
"`x c #555555",
"`y c #d5d5d5",
"`z c #bababa",
"`A c #eeeeee",
"`B c #b5b5b5",
"`C c #dcdcdc",
"`D c #ababab",
"`E c #9c9c9c",
"`F c #989898",
"`G c #545454",
"`H c #4d4d4d",
"`I c #646464",
"`J c #adadad",
"`K c #c4c4c4",
"`L c #595959",
"`M c #dadada",
"`N c #d6d6d6",
"`O c #d8d8d8",
"`P c #909090",
"`Q c #474747",
"`R c #cecece",
"`S c #676767",
"`T c #484848",
"`U c #818181",
"`V c #f0f0f0",
"`W c #a9a9a9",
"`X c #979797",
"`Y c #7f7f7f",
"`Z c #1a1a1a",
"`0 c #7c7c7c",
"`1 c #797979",
"`2 c #787878",
"`3 c #777777",
"`4 c #171717",
"`5 c #696969",
"`6 c #8e8e8e",
"`7 c #969696",
"`8 c #a8a8a8",
".` c #6f6f6f",
".. c #c2c2c2",
".# c #919191",
".a c #f3f3f3",
".b c #b8b8b8",
".c c #cbcbcb",
".d c #bbbbbb",
".e c #686868",
".f c #585858",
".g c #fbfbfb",
".h c #7a7a7a",
".i c #e6e6e6",
".j c #959595",
".k c #a5a5a5",
".l c #c5c5c5",
".m c #c1c1c1",
".n c #606060",
".o c #b7b7b7",
".p c #747474",
".q c #f4f4f4",
".r c #767676",
".s c #a0a0a0",
".t c #161616",
".u c #6e6e6e",
".v c #bfbfbf",
".w c #c8c8c8",
".x c #3d3d3d",
".y c #f6f6f6",
".z c #424242",
".A c #e5e5e5",
".B c #d2d2d2",
".C c #878787",
".D c #3e3e3e",
".E c #2b2b2b",
".F c #afafaf",
".G c #525252",
".H c #2a2a2a",
".I c #444444",
".J c #4b4b4b",
".K c #4f4f4f",
".L c #4c4c4c",
".M c #111111",
".N c #373737",
".O c #727272",
".P c #868686",
".Q c #f8f8f8",
".R c #8f8f8f",
".S c #9f9f9f",
".T c #808080",
".U c #efefef",
".V c #ededed",
".W c #ececec",
".X c #c3c3c3",
".Y c #b9b9b9",
".Z c #c9c9c9",
".0 c #b0b0b0",
".1 c #c7c7c7",
".2 c #565656",
".3 c #b6b6b6",
".4 c #e8e8e8",
".5 c #898989",
".6 c #5b5b5b",
".7 c #e2e2e2",
".8 c #505050",
"#` c #717171",
"#. c #6c6c6c",
"## c #222222",
"#a c #363636",
"#b c #464646",
"#c c #f1f1f1",
"#d c #bebebe",
"#e c #313131",
"#f c #b4b4b4",
"#g c #3c3c3c",
"#h c #252525",
"#i c #131313",
"#j c #434343",
"#k c #2f2f2f",
"#l c #181818",
"#m c #393939",
"#n c #343434",
"#o c #3f3f3f",
"#p c #636363",
"#q c #828282",
"#r c #cacaca",
"#s c #616161",
"#t c #e7e7e7",
"#u c #f7f7f7",
"#v c #929292",
"#w c #e3e3e3",
"#x c #e1e1e1",
"#y c #aaaaaa",
"#z c #8c8c8c",
"#A c #757575",
"#B c #333333",
"#C c #666666",
"#D c #fcfcfc",
"#E c #454545",
"#F c #5e5e5e",
"#G c #272727",
"#H c #bcbcbc",
"#I c #d7d7d7",
"#J c #cdcdcd",
"#K c #949494",
"#L c #656565",
"#M c #2e2e2e",
"#N c #242424",
"#O c #7e7e7e",
"#P c #d9d9d9",
"#Q c #626262",
"#R c #202020",
"#S c #fdfdfd",
"#T c #8d8d8d",
"#U c #d3d3d3",
"#V c #dbdbdb",
"#W c #dddddd",
"#X c #888888",
"#Y c #b1b1b1",
"#Z c #515151",
"#0 c #5a5a5a",
"#1 c #e0e0e0",
"#2 c #6a6a6a",
"#3 c #5d5d5d",
"#4 c #acacac",
"#5 c #191919",
"#6 c #cccccc",
"#7 c #c6c6c6",
"#8 c #ebebeb",
"a` c #f5f5f5",
"a. c #7b7b7b",
"a# c #6b6b6b",
"aa c #eaeaea",
"ab c #858585",
"ac c #383838",
"ad c #303030",
"ae c #a3a3a3",
"af c #a4a4a4",
"ag c #000000",
"ah c #000000",
"ai c #000000",
"aj c #000000",
"ak c #000000",
"al c #000000",
"am c #000000",
"an c #000000",
"ao c #000000",
"ap c #000000",
"aq c #000000",
"ar c #000000",
"as c #000000",
"at c #000000",
"au c #000000",
"av c #000000",
"aw c #000000",
"ax c #000000",
"ay c #000000",
"az c #000000",
"aA c #000000",
"aB c #000000",
"aC c #000000",
"aD c #000000",
"aE c #000000",
"aF c #000000",
"aG c #000000",
"aH c #000000",
"aI c #000000",
"aJ c #000000",
"aK c #000000",
"aL c #000000",
"aM c #000000",
"aN c #000000",
"aO c #000000",
"aP c #000000",
"aQ c #000000",
"aR c #000000",
"aS c #000000",
"aT c #000000",
"aU c #000000",
"aV c #000000",
"aW c #000000",
"aX c #000000",
"aY c #000000",
"aZ c #000000",
"a0 c #000000",
"a1 c #000000",
"a2 c #000000",
"a3 c #000000",
"a4 c #000000",
"a5 c #000000",
"a6 c #000000",
"a7 c #000000",
"a8 c #000000",
/* pixels */
"````````````````````````````````````````````````````````````````",
"```````````````````````.`#`a`b`c`d`e`f`g`#``````````````````````",
"```````````````````h`i`j`k`l`m`n`i`o`a`p`q`r`s``````````````````",
"```````````````r`t`u`v`w`w`x`y`w`w`x`z`w`A`B`C`D`E``````````````",
"`````````````F`G`H`I`J`K`b`L`M`N`O`P`Q`R`K`h`x`S`T`U````````````",
"```````````f`V`W`t`J`X`Y`Z`0`0`1`2`3`4`5`6`7`8.`..`w.#``````````",
"`````````s.a.b.c`w`w`w.d.e`w`w`w`w`w.f.b`w`w`w.g.h.i`w.j````````",
"``````.k`L.l.m`w`w`w`w.n.o`w`w`w`w`w`X.p`w`w`w`w`V`i.q.#.r``````",
"``````.s.h.t`L.u`E.v.w.x`C`A`V.a.q.y.v.z.A.B.v`a.C.D.E`c`8`B````",
"`````D.q.v.d.F`6.r.G.H`4.x.I`T.J`H.K.L.M.N.z`x.O.P`k.e.Q`w.R````",
"````.S`w`k`w`w`w`w`w.T`P.a`V.U`A.V.W.W.x.X`w`w`w`w`w`n.Y`w.Z.b``",
"``.0.j`y.1`w`w`w`w`w.2`z`w`w`w`w`w`w`w.K.3`w`w`w`w`w.4.5`w.i`b``",
"```h`x.6.7`w`w`w`w`w.8.i`w`w`w`w`w`w`w#``k`w`w`w`w`w`w`#.s`o#.``",
"```W`y###a#b.n.R...l`Q.g`w`w`w`w`w`w`w`k`1#c`N#d`g#.`x#e.H`u#d``",
"```W.7#f.V`z`P.e#g#h#i.I.z#j#j#j#j#j#b#k#l#m#n#o#p#q`s.k.S`w#r.d",
"``.S`O..`w`w`w`w`w`D#s`M`y.B`u.c.1.m.o#q#b#t#u`w`w`w`w`A#v`w#w`t",
"``.h.b#x`w`w`w`w`w`J`b`w`w`w`w`w`w`w`w.Z.K`w`w`w`w`w`w.Q.j`w.P#y",
"```h`I`v`w`w`w`w`w`E#q`w`w`w`w`w`w`w`w.l.I`w`w`w`w`w`w`w#z#A`3`z",
"``.b#z#B.L#C`h`y#D`f`#`w`w`w`w`w`w`w`w.B#E`w`w.q`N`z.P#F#G.k#H``",
"``#H#d#I#J#K#L#g`T#M#j.`.``e`j`l#z#v`F`U#N.e.K.z#g`G#O`s`l`w.S``",
"````.R`R`w`w`w#D#P#Q.K.5.P`l`U.T#O.r`j.f#R.#`z.4.g`w`w.Q#y#S.j``",
"`````7.X`w`w`w`w`w`8#T`w`w`w`w`w`w`w`w#U`T`w`w`w`w`w`w#V`D`F`B``",
"````.v#C`a#W`w`w`w.3.``w`w`w`w`w`w`w`w#d.G`w`w`w`w`w.y`J`b`g````",
"```````7#..u.6#X.o#Y#Z`w`w`w`w`w`w`w`w.3#0.g#1`n`6#2`L#3#4``````",
"````````#z`w#x`t.r.f#5.K`x#Q#C#.`e.p.h.G#R`L.e.p#y#6`M.d`a``````",
"`````````h`u`w`w`w.g`T.v#U.c#7`K..``.v`q`0#8`w`w`w`w.d.#````````",
"```````````1`D#Pa``w`1#f`w`w`w`w`w`w`w`L.m`w`w#D.W.1.h``````````",
"````````````a..S`#`8`Ya#.Vaa#8.W.U.aa`#j.X.o.S`kab.`````````````",
"```````````````X`O.4..aca..C.Pab#X#z`jad`r.1#t`u#K``````````````",
"````````````````.k`P..`D#O`w`w`w`w`w#Aae`w`y.S`k````````````````",
"````````````````````.v.0#T`p.Y.c#6`8#p`h#y.3````````````````````",
"`````````````````````````````t``af`a.v``````````````````````````"
};
