/* XPM */
static char *shader_util_xpm[] = {
/* width height num_colors chars_per_pixel */
"    32    32      256            2",
/* colors */
"`` c #0c0e0c",
"`. c #8c8a8c",
"`# c #5cc684",
"`a c #d4c614",
"`b c #e48e14",
"`c c #b4c6cc",
"`d c #b4eadc",
"`e c #b49e7c",
"`f c #ecdeac",
"`g c #dcaa06",
"`h c #dce8ec",
"`i c #b4d6d4",
"`j c #b4b4b4",
"`k c #ccae54",
"`l c #8cc7a4",
"`m c #cceacc",
"`n c #d4ba0c",
"`o c #ccb274",
"`p c #dc8e34",
"`q c #ccd6d4",
"`r c #acdae4",
"`s c #444e4c",
"`t c #dcf6e4",
"`u c #dccfe4",
"`v c #54c283",
"`w c #dc9e08",
"`x c #cccbcc",
"`y c #b4e6ec",
"`z c #f4e6bc",
"`A c #b4d8fc",
"`B c #acc6dc",
"`C c #dcdbdc",
"`D c #c4b6a4",
"`E c #e4ac04",
"`F c #ccf2d4",
"`G c #e4bc04",
"`H c #7cc298",
"`I c #b4caec",
"`J c #a4c2b4",
"`K c #847244",
"`L c #acd2d8",
"`M c #74c694",
"`N c #e4a004",
"`O c #d4aa24",
"`P c #dceeec",
"`Q c #ccba34",
"`R c #bceee9",
"`S c #b4dff4",
"`T c #ecdaf4",
"`U c #ccaa6c",
"`V c #dce2ea",
"`W c #343234",
"`X c #cce6f4",
"`Y c #ccd6fc",
"`Z c #d4a224",
"`0 c #b4d2cc",
"`1 c #ccbe50",
"`2 c #d4c204",
"`3 c #c4c094",
"`4 c #d49e3c",
"`5 c #6c6234",
"`6 c #c4bab4",
"`7 c #b4c1bc",
"`8 c #acd2f0",
".` c #7ccf9c",
".. c #cceeec",
".# c #dc9614",
".a c #bceedc",
".b c #a4aaa4",
".c c #ece6e4",
".d c #6cc28c",
".e c #c4e7f4",
".f c #444444",
".g c #cce0f4",
".h c #d4b40c",
".i c #b4ded4",
".j c #ace2f0",
".k c #ecd2e4",
".l c #dca607",
".m c #ccceec",
".n c #f4f2f4",
".o c #94c2a7",
".p c #dc9824",
".q c #949694",
".r c #c4c6c4",
".s c #e4e6e7",
".t c #d4be18",
".u c #c4b294",
".v c #64be84",
".w c #bce6f4",
".x c #f4eebc",
".y c #c4d9fc",
".z c #dcdcf4",
".A c #d4f6d8",
".B c #84c69c",
".C c #c4dff4",
".D c #d4e6ef",
".E c #d4a258",
".F c #bcbebc",
".G c #acd4fc",
".H c #bcc6c4",
".I c #bcbabb",
".J c #ccb244",
".K c #94cea4",
".L c #f4f9f4",
".M c #dcd6fc",
".N c #dc9e14",
".O c #accefc",
".P c #e4b404",
".Q c #c4ceec",
".R c #747274",
".S c #7cc698",
".T c #d4b61c",
".U c #e4e2e4",
".V c #3c3b3c",
".W c #5c5e5c",
".X c #c4c2c4",
".Y c #e49609",
".Z c #fceebf",
".0 c #64c88c",
".1 c #c4e6cc",
".2 c #a4a4a4",
".3 c #fce2c4",
".4 c #94c6a8",
".5 c #dcbc04",
".6 c #c4ba74",
".7 c #acdaef",
".8 c #545354",
"#` c #5cc284",
"#. c #242224",
"## c #7c7e7c",
"#a c #d49a3c",
"#b c #646664",
"#c c #d4d2d4",
"#d c #8cc2a4",
"#e c #eceeec",
"#f c #c4cec4",
"#g c #b4aeac",
"#h c #ccae8c",
"#i c #d4be94",
"#j c #ccb664",
"#k c #bcd2fc",
"#l c #d4c224",
"#m c #e4c614",
"#n c #d4cee4",
"#o c #cc9654",
"#p c #949294",
"#q c #d4a61c",
"#r c #4c4a4c",
"#s c #9c9e9c",
"#t c #fcfefc",
"#u c #848684",
"#v c #acbab4",
"#w c #accedc",
"#x c #c4be9c",
"#y c #e4c204",
"#z c #d4a644",
"#A c #ccbe64",
"#B c #ecd6fc",
"#C c #d4aa44",
"#D c #bce0cc",
"#E c #d4ceec",
"#F c #c4ba8c",
"#G c #e4a604",
"#H c #d4ba24",
"#I c #dcc204",
"#J c #bce8d4",
"#K c #bcd6cc",
"#L c #e4eeec",
"#M c #c4eeec",
"#N c #bcdefc",
"#O c #d4d6fc",
"#P c #dc9e1c",
"#Q c #bccec4",
"#R c #c4eed4",
"#S c #acacac",
"#T c #dcb404",
"#U c #9cbeac",
"#V c #9c9a9c",
"#W c #fcfafc",
"#X c #646264",
"#Y c #848284",
"#Z c #6c6a6c",
"#0 c #b4a28c",
"#1 c #ccb27c",
"#2 c #e4d2e4",
"#3 c #bcd8fc",
"#4 c #accaec",
"#5 c #ecaa04",
"#6 c #ccf2e4",
"#7 c #ecbe04",
"#8 c #bcceec",
"a` c #acc1b4",
"a. c #acd6e4",
"a# c #d4ae2c",
"aa c #ccae7c",
"ab c #b4c2cc",
"ac c #84ce9c",
"ad c #d4e0f4",
"ae c #ccd2fc",
"af c #e4dcf4",
"ag c #d4f2e4",
"ah c #c4d2fc",
"ai c #7ccaa4",
"aj c #d4b22c",
"ak c #84c29c",
"al c #d4eee8",
"am c #74c294",
"an c #e4d6f4",
"ao c #dcc614",
"ap c #d4d6d4",
"aq c #4c4e4c",
"ar c #dce2f4",
"as c #d4c214",
"at c #e4e2f4",
"au c #c4beac",
"av c #ece2b0",
"aw c #dcae04",
"ax c #b4dacc",
"ay c #d4be04",
"az c #ccb66c",
"aA c #acdedc",
"aB c #dca207",
"aC c #b4eae7",
"aD c #accae4",
"aE c #c4ba9c",
"aF c #ccf6dc",
"aG c #d4ae1c",
"aH c #dcf2e4",
"aI c #343638",
"aJ c #cceaf0",
"aK c #ccdaf4",
"aL c #ccc24c",
"aM c #d4a234",
"aN c #c4beb8",
"aO c #acd6f0",
"aP c #eceaec",
"aQ c #b4e2dc",
"aR c #ace6ec",
"aS c #e4eae8",
"aT c #64c28c",
"aU c #bceaf1",
"aV c #d4eaec",
"aW c #d4a654",
"aX c #bcc2be",
"aY c #bccac0",
"aZ c #ccb64c",
"a0 c #7cca9c",
"a1 c #e49a07",
"a2 c #fcf2c0",
"a3 c #c4f2e4",
"a4 c #bce2f4",
"a5 c #d4daf4",
"a6 c #c4f2d9",
"a7 c #8c8e8c",
"a8 c #b4cacc",
/* pixels */
".X.F.X.F.X.F.X.F.X.F.X.F.X.F.X.F.X.F.X.F.X.F.X.F.X.F.X.F.X.F.X.F",
"aX.X.F.X.F.X.F.X.F.X.F.XaX.H.r#Qa`a``7`7.I.X.F.X.F.X.F.X.F.X.F.X",
".X.F.X.F.X.F.X.F.XaX.H#K#D#D.1`m.K`Hak#d.o`J.FaX.X.F.X.F.X.F.X.F",
".F.X.F.X.F.X.F.XaYax#J#J#R#R`FaFacaTaT.damak#d`J.F.X.F.X.F.X.F.X",
".X.F.X.F.X.FaX`0.i`d#J`Ra6aFaF.A.``v.0#`.0aTamak.o#vaXaNaX.X.F.X",
"aX.X.F.X.F.H`iaQaC`R`Ra3aF#6ag`t.``v`##``#aT.0aT.S#da`.X.F.X.F.X",
".X.F.X.FaX`iaA`yaC`Ra3..#6alagaH.``v`##``##``##`.0am#da`.F.X.F.X",
".F.X.F.F`LaAaRaCaU#M#MaJ..alal`P.``v`##``##``##`#`.0am.4#vaN.F.X",
".X.F.X`c`r.7`yaU.w#M`XaJaV.D`haS.``v#``#`v`##``##`#`.0`H.4.F.F.X",
"aX.XaX#waA.j`S.w.e.C`X`X.D.D`h.s.``v#``##``##``#`##`#`.dak`J.X.F",
".X.F`c`L.7.ja4a4.C.e.gad.D`V`V.sai`v`##``#`v`##`#``#`#.0am.o.F.X",
".F.FaDa..7`S`A.C.C.g.gad.zad`Vat.B`v`##``##``##``v`##`#`.d.Ba`.F",
".X.F#w`8.G`A#N#3.yaKa5a5ad.zafaf.``v`##``v`##``#`##``##`.0`H#U.F",
"aXabaD`8.G`A#3.y`YaK#Oa5.M.Mafan.B`v`#`#`##``##``##``##`aT.d.oaX",
".XabaD.O.O#k#kahae`Y#O#O.M`uanana0`v`v`v`#`v`v`v`v`v#``v`#.dak`7",
".Fab`BaD`I#8.Q.Q.m.m#n`u`u`u#2.k.B.0.0.0.v.0.0.0.0.0.0.0aT`M`la`",
".X`3aL#lasasasaoaoao#mao#m#m#m#m.x.L.LaS`s#L.L#t.L#t.L#t.b`q`V.2",
".F`3`1.t`2#I#I.5#I#I#y#y#y#y#y#ya2#t#t#W`W.c#t#t#t#t#t#t.X#S#V.2",
".X#x`1.t`nay.5.5#I`G#I`G#y#y#y`Ga2#t#t#WaIaP#t#t#t#t.n`x#u#r.X.I",
".F.F#A`Q`n.5.5.5.5.5`G.5`G`G`G#7av.n.naPaI.F#g`.#b.f.Vaq#r#Sap.F",
".XaX.6`Q.h#T`n#T.5`G.5`G`G`G`G#7`5`W`W`W``.V.8.R.2`x.s#t.X`C.r.X",
"aNaX#FaZ.T.h#T#T#T#T.P.P.P.P`G.PavaP.s`C`W.U#t#t#t#t#t#W.2ap`j.F",
"aX.XaN#jaj.h#T#T#T.P#T.P.P.P.P`E.Z#t#t.L.V#e#t#t#t#t#t#W.2`j.F.X",
".X.F.X#F.JaG`g`gawaw`E#T`E.P`E`E.Z#t#t#eaq#t#t#t#t.U.X.q#p.I.F.X",
".F.X.FaN#ja#`g`g`gaw`E`E`E`E`E#5`f#e.n#c#r#c#p#Z.8.8#ua7.F.X.F.X",
".X.F.X.FaE`k`O#q.l.l.l`E.l`E`E#5`K.W.W.f#.#b#Y`jap.naP.X.I.F.X.F",
"aX.X.F.X.F`o#C#qaB.l`NaB`N`N#G`N`z#W#W.q#X#t#t#t.LaP.X`j.X.F.X.F",
".X.F.X.F.X.I`U#C`Z`w`w`N`N`N`Na1.Z#t#t#Y#s#t#W.s.X`j`j.F.X.F.X.F",
".F.X.F.X.FaX.Faa#zaM#P`w`w.Ya1.Y#i#capaq#p.2#V#S#S#gaX.X.F.X.F.X",
".X.F.X.F.XaNaX.F.u`U.E#a.p.#.Y.Y`e.2#p.f.Iap.U.r.IaX.X.F.X.F.X.F",
"aX.X.F.X.FaXaN.F.X.F`Daa.E#a`b`b.3.na7.2ap.F.I.I.X.F.X.F.X.F.X.F",
".X.F.X.F.X.X.F.X.FaNaX.F`6.u#o`p#0#p.q.I.I.X.F.X.F.X.F.X.F.X.F.X"
};
